<svg xmlns="http://www.w3.org/2000/svg" xmlns:xlink="http://www.w3.org/1999/xlink" width="56.225" height="50.15" viewBox="0 0 56.225 50.15">
  <defs>
    <linearGradient id="linear-gradient" x1="-0.018" y1="0.219" x2="0.91" y2="0.774" gradientUnits="objectBoundingBox">
      <stop offset="0" stop-color="#c6d1ff"/>
      <stop offset="0.583" stop-color="#e6d5f4"/>
      <stop offset="0.997" stop-color="#ffd9ec"/>
    </linearGradient>
  </defs>
  <g id="order" transform="translate(-1015 -1611)">
    <path id="Tracé_350" data-name="Tracé 350" d="M51.775,70.658c-7.184-5.523-14.151-1.022-21.923-2.613-7.828-1.6-10.947-6.94-19.863-4.477C2.091,65.75-2.7,74.5,1.64,81.826c1.237,2.087,3.345,3.662,4.206,6,1.389,3.768-.726,6.661-.313,10.363,1.714,15.385,25.21,9.426,33.856,4.639C52.948,95.319,62.121,78.612,51.775,70.658Z" transform="translate(1015 1553.072)" opacity="0.3" fill="url(#linear-gradient)"/>
    <g id="order-2" data-name="order" transform="translate(1022.999 1611)">
      <path id="Tracé_2297" data-name="Tracé 2297" d="M156,154.833H146V146.5a2.455,2.455,0,0,0-2.5-2.5h-.833a2.455,2.455,0,0,0-2.5,2.5v10.833H138.5a2.455,2.455,0,0,0-2.5,2.5v6.083l5,9.167V179h15v-4l2.5-5.833V157.333a2.455,2.455,0,0,0-2.5-2.5Zm-13.333,22.5v-1.667h11.667v1.667Zm14.167-8.5L154.583,174h-12.25l-4.667-8.583v-5.583A.787.787,0,0,1,138.5,159h1.667v3.333h1.667V146.5a.787.787,0,0,1,.833-.833h.833a.787.787,0,0,1,.833.833v14.167H146V156.5h2.5v4.167h1.667V156.5h2.5v4.167h1.667V156.5H156a.787.787,0,0,1,.833.833Zm0,0" transform="translate(-121.833 -129)" fill="#dd6b7f"/>
      <path id="Tracé_2298" data-name="Tracé 2298" d="M283.1,363.084l-1.5,2.25,1.333,1,1.833-2.75V360H283.1Zm0,0" transform="translate(-252.268 -322.5)" fill="#dd6b7f"/>
      <path id="Tracé_2299" data-name="Tracé 2299" d="M37.251,0H4.417L0,11.5v31H15V40.833H1.667V12.5h10V10.833H2.084L4.251,5h9.917V3.333H4.917l.667-1.667h30.5l.667,1.667H27.5V5h9.917l2.167,5.833H30V12.5H40V40.833H38.334V42.5h3.333v-31Zm0,0" fill="#dd6b7f"/>
      <path id="Tracé_2300" data-name="Tracé 2300" d="M163.566,76.9,162.4,78.065l2.25,2.25,4.75-4.75L168.232,74.4l-3.583,3.584Zm0,0" transform="translate(-145.482 -66.649)" fill="#dd6b7f"/>
      <path id="Tracé_2301" data-name="Tracé 2301" d="M140.849,44.582A7.511,7.511,0,0,0,140.182,34a7.6,7.6,0,0,0-10.666.583,7.511,7.511,0,0,0,.667,10.584l1.083-1.25a5.844,5.844,0,1,1,8.25-.5Zm0,0" transform="translate(-114.348 -28.749)" fill="#dd6b7f"/>
    </g>
  </g>
</svg>
