<svg xmlns="http://www.w3.org/2000/svg" width="50.291" height="147.826" viewBox="0 0 50.291 147.826">
  <g id="rectangle" transform="translate(-21.163 -8.841)">
    <path id="Tracé_310" data-name="Tracé 310" d="M54.484,117.536A2.766,2.766,0,1,1,57.25,120.3,2.768,2.768,0,0,1,54.484,117.536Z" transform="translate(11.439 36.363)" fill="#6e91c6"/>
    <path id="Tracé_311" data-name="Tracé 311" d="M43.377,117.536a2.766,2.766,0,1,1,2.766,2.767A2.768,2.768,0,0,1,43.377,117.536Z" transform="translate(7.626 36.363)" fill="#6e91c6"/>
    <path id="Tracé_312" data-name="Tracé 312" d="M32.27,117.536a2.767,2.767,0,1,1,2.767,2.767A2.769,2.769,0,0,1,32.27,117.536Z" transform="translate(3.813 36.363)" fill="#6e91c6"/>
    <path id="Tracé_313" data-name="Tracé 313" d="M21.163,117.536A2.766,2.766,0,1,1,23.93,120.3,2.769,2.769,0,0,1,21.163,117.536Z" transform="translate(0 36.363)" fill="#6e91c6"/>
    <path id="Tracé_314" data-name="Tracé 314" d="M54.484,105.767a2.766,2.766,0,1,1,2.766,2.764A2.764,2.764,0,0,1,54.484,105.767Z" transform="translate(11.439 32.323)" fill="#6e91c6"/>
    <path id="Tracé_315" data-name="Tracé 315" d="M43.377,105.767a2.766,2.766,0,1,1,2.766,2.764A2.764,2.764,0,0,1,43.377,105.767Z" transform="translate(7.626 32.323)" fill="#6e91c6"/>
    <path id="Tracé_316" data-name="Tracé 316" d="M32.27,105.767a2.767,2.767,0,1,1,2.767,2.764A2.765,2.765,0,0,1,32.27,105.767Z" transform="translate(3.813 32.323)" fill="#6e91c6"/>
    <path id="Tracé_317" data-name="Tracé 317" d="M21.163,105.767a2.766,2.766,0,1,1,2.767,2.764A2.765,2.765,0,0,1,21.163,105.767Z" transform="translate(0 32.323)" fill="#6e91c6"/>
    <path id="Tracé_318" data-name="Tracé 318" d="M54.484,94a2.766,2.766,0,1,1,2.766,2.766A2.765,2.765,0,0,1,54.484,94Z" transform="translate(11.439 28.283)" fill="#6e91c6"/>
    <path id="Tracé_319" data-name="Tracé 319" d="M43.377,94a2.766,2.766,0,1,1,2.766,2.766A2.766,2.766,0,0,1,43.377,94Z" transform="translate(7.626 28.283)" fill="#6e91c6"/>
    <path id="Tracé_320" data-name="Tracé 320" d="M32.27,94a2.767,2.767,0,1,1,2.767,2.766A2.766,2.766,0,0,1,32.27,94Z" transform="translate(3.813 28.283)" fill="#6e91c6"/>
    <path id="Tracé_321" data-name="Tracé 321" d="M21.163,94a2.766,2.766,0,1,1,2.767,2.766A2.766,2.766,0,0,1,21.163,94Z" transform="translate(0 28.283)" fill="#6e91c6"/>
    <path id="Tracé_322" data-name="Tracé 322" d="M54.484,82.226a2.766,2.766,0,1,1,2.766,2.769A2.765,2.765,0,0,1,54.484,82.226Z" transform="translate(11.439 24.242)" fill="#6e91c6"/>
    <path id="Tracé_323" data-name="Tracé 323" d="M43.377,82.226a2.766,2.766,0,1,1,2.766,2.769A2.766,2.766,0,0,1,43.377,82.226Z" transform="translate(7.626 24.242)" fill="#6e91c6"/>
    <path id="Tracé_324" data-name="Tracé 324" d="M32.27,82.226a2.767,2.767,0,1,1,2.767,2.769A2.766,2.766,0,0,1,32.27,82.226Z" transform="translate(3.813 24.242)" fill="#6e91c6"/>
    <path id="Tracé_325" data-name="Tracé 325" d="M21.163,82.226a2.766,2.766,0,1,1,2.767,2.769A2.766,2.766,0,0,1,21.163,82.226Z" transform="translate(0 24.242)" fill="#6e91c6"/>
    <path id="Tracé_326" data-name="Tracé 326" d="M54.484,70.457a2.766,2.766,0,1,1,2.766,2.766A2.765,2.765,0,0,1,54.484,70.457Z" transform="translate(11.439 20.202)" fill="#6e91c6"/>
    <path id="Tracé_327" data-name="Tracé 327" d="M43.377,70.457a2.766,2.766,0,1,1,2.766,2.766A2.766,2.766,0,0,1,43.377,70.457Z" transform="translate(7.626 20.202)" fill="#6e91c6"/>
    <path id="Tracé_328" data-name="Tracé 328" d="M32.27,70.457a2.767,2.767,0,1,1,2.767,2.766A2.766,2.766,0,0,1,32.27,70.457Z" transform="translate(3.813 20.202)" fill="#6e91c6"/>
    <path id="Tracé_329" data-name="Tracé 329" d="M21.163,70.457a2.766,2.766,0,1,1,2.767,2.766A2.766,2.766,0,0,1,21.163,70.457Z" transform="translate(0 20.202)" fill="#6e91c6"/>
    <path id="Tracé_330" data-name="Tracé 330" d="M54.484,58.687a2.766,2.766,0,1,1,2.766,2.766A2.767,2.767,0,0,1,54.484,58.687Z" transform="translate(11.439 16.161)" fill="#6e91c6"/>
    <path id="Tracé_331" data-name="Tracé 331" d="M43.377,58.687a2.766,2.766,0,1,1,2.766,2.766A2.768,2.768,0,0,1,43.377,58.687Z" transform="translate(7.626 16.161)" fill="#6e91c6"/>
    <path id="Tracé_332" data-name="Tracé 332" d="M32.27,58.687a2.767,2.767,0,1,1,2.767,2.766A2.768,2.768,0,0,1,32.27,58.687Z" transform="translate(3.813 16.161)" fill="#6e91c6"/>
    <path id="Tracé_333" data-name="Tracé 333" d="M21.163,58.687a2.766,2.766,0,1,1,2.767,2.766A2.768,2.768,0,0,1,21.163,58.687Z" transform="translate(0 16.161)" fill="#6e91c6"/>
    <path id="Tracé_334" data-name="Tracé 334" d="M54.484,46.915a2.766,2.766,0,1,1,2.766,2.769A2.765,2.765,0,0,1,54.484,46.915Z" transform="translate(11.439 12.121)" fill="#6e91c6"/>
    <path id="Tracé_335" data-name="Tracé 335" d="M43.377,46.915a2.766,2.766,0,1,1,2.766,2.769A2.766,2.766,0,0,1,43.377,46.915Z" transform="translate(7.626 12.121)" fill="#6e91c6"/>
    <path id="Tracé_336" data-name="Tracé 336" d="M32.27,46.915a2.767,2.767,0,1,1,2.767,2.769A2.766,2.766,0,0,1,32.27,46.915Z" transform="translate(3.813 12.121)" fill="#6e91c6"/>
    <path id="Tracé_337" data-name="Tracé 337" d="M21.163,46.915a2.766,2.766,0,1,1,2.767,2.769A2.766,2.766,0,0,1,21.163,46.915Z" transform="translate(0 12.121)" fill="#6e91c6"/>
    <path id="Tracé_338" data-name="Tracé 338" d="M54.484,35.146a2.766,2.766,0,1,1,2.766,2.766A2.764,2.764,0,0,1,54.484,35.146Z" transform="translate(11.439 8.081)" fill="#6e91c6"/>
    <circle id="Ellipse_25" data-name="Ellipse 25" cx="2.766" cy="2.766" r="2.766" transform="translate(51.003 40.462)" fill="#6e91c6"/>
    <path id="Tracé_339" data-name="Tracé 339" d="M32.27,35.146a2.767,2.767,0,1,1,2.767,2.766A2.765,2.765,0,0,1,32.27,35.146Z" transform="translate(3.813 8.081)" fill="#6e91c6"/>
    <path id="Tracé_340" data-name="Tracé 340" d="M21.163,35.146a2.766,2.766,0,1,1,2.767,2.766A2.765,2.765,0,0,1,21.163,35.146Z" transform="translate(0 8.081)" fill="#6e91c6"/>
    <path id="Tracé_341" data-name="Tracé 341" d="M54.484,23.379a2.766,2.766,0,1,1,2.766,2.766A2.768,2.768,0,0,1,54.484,23.379Z" transform="translate(11.439 4.04)" fill="#6e91c6"/>
    <path id="Tracé_342" data-name="Tracé 342" d="M43.377,23.379a2.766,2.766,0,1,1,2.766,2.766A2.768,2.768,0,0,1,43.377,23.379Z" transform="translate(7.626 4.04)" fill="#6e91c6"/>
    <path id="Tracé_343" data-name="Tracé 343" d="M32.27,23.379a2.767,2.767,0,1,1,2.767,2.766A2.769,2.769,0,0,1,32.27,23.379Z" transform="translate(3.813 4.04)" fill="#6e91c6"/>
    <path id="Tracé_344" data-name="Tracé 344" d="M21.163,23.379a2.766,2.766,0,1,1,2.767,2.766A2.769,2.769,0,0,1,21.163,23.379Z" transform="translate(0 4.04)" fill="#6e91c6"/>
    <path id="Tracé_345" data-name="Tracé 345" d="M54.484,11.607a2.766,2.766,0,1,1,2.766,2.767A2.765,2.765,0,0,1,54.484,11.607Z" transform="translate(11.439)" fill="#6e91c6"/>
    <path id="Tracé_346" data-name="Tracé 346" d="M43.377,11.607a2.766,2.766,0,1,1,2.766,2.767A2.766,2.766,0,0,1,43.377,11.607Z" transform="translate(7.626)" fill="#6e91c6"/>
    <path id="Tracé_347" data-name="Tracé 347" d="M32.27,11.607a2.767,2.767,0,1,1,2.767,2.767A2.766,2.766,0,0,1,32.27,11.607Z" transform="translate(3.813)" fill="#6e91c6"/>
    <path id="Tracé_348" data-name="Tracé 348" d="M21.163,11.607a2.766,2.766,0,1,1,2.767,2.767A2.766,2.766,0,0,1,21.163,11.607Z" transform="translate(0)" fill="#6e91c6"/>
  </g>
</svg>
