<svg xmlns="http://www.w3.org/2000/svg" width="50.485" height="35" viewBox="0 0 50.485 35">
  <g id="delivery" transform="translate(0 -78.521)">
    <g id="Groupe_270" data-name="Groupe 270" transform="translate(31.765 100.794)">
      <g id="Groupe_269" data-name="Groupe 269">
        <path id="Tracé_450" data-name="Tracé 450" d="M328.515,304.4a6.364,6.364,0,1,0,6.364,6.364A6.371,6.371,0,0,0,328.515,304.4Zm0,9.545a3.182,3.182,0,1,1,3.182-3.182A3.185,3.185,0,0,1,328.515,313.948Z" transform="translate(-322.151 -304.403)" fill="#dd6b7f"/>
      </g>
    </g>
    <g id="Groupe_272" data-name="Groupe 272" transform="translate(10.023 100.794)">
      <g id="Groupe_271" data-name="Groupe 271">
        <path id="Tracé_451" data-name="Tracé 451" d="M108.011,304.4a6.364,6.364,0,1,0,6.364,6.364A6.371,6.371,0,0,0,108.011,304.4Zm0,9.545a3.182,3.182,0,1,1,3.182-3.182A3.185,3.185,0,0,1,108.011,313.948Z" transform="translate(-101.647 -304.403)" fill="#dd6b7f"/>
      </g>
    </g>
    <g id="Groupe_274" data-name="Groupe 274" transform="translate(32.614 81.703)">
      <g id="Groupe_273" data-name="Groupe 273">
        <path id="Tracé_452" data-name="Tracé 452" d="M340.557,111.666a1.592,1.592,0,0,0-1.422-.876h-8.379v3.182h7.4l4.332,8.616,2.844-1.43Z" transform="translate(-330.756 -110.79)" fill="#dd6b7f"/>
      </g>
    </g>
    <g id="Groupe_276" data-name="Groupe 276" transform="translate(21.318 105.62)">
      <g id="Groupe_275" data-name="Groupe 275">
        <rect id="Rectangle_33" data-name="Rectangle 33" width="12.038" height="3.182" fill="#dd6b7f"/>
      </g>
    </g>
    <g id="Groupe_278" data-name="Groupe 278" transform="translate(4.508 105.62)">
      <g id="Groupe_277" data-name="Groupe 277">
        <path id="Tracé_453" data-name="Tracé 453" d="M52.821,353.345H47.306a1.591,1.591,0,1,0,0,3.182h5.515a1.591,1.591,0,1,0,0-3.182Z" transform="translate(-45.715 -353.345)" fill="#dd6b7f"/>
      </g>
    </g>
    <g id="Groupe_280" data-name="Groupe 280" transform="translate(4.508 78.521)">
      <g id="Groupe_279" data-name="Groupe 279">
        <path id="Tracé_454" data-name="Tracé 454" d="M91.358,95.894l-3.129-4.03a1.589,1.589,0,0,0-1.256-.615H75.412V80.112a1.591,1.591,0,0,0-1.591-1.591H47.306a1.591,1.591,0,1,0,0,3.182H72.23V92.839a1.591,1.591,0,0,0,1.591,1.591H86.193l2.317,2.985v8.2h-4.4a1.591,1.591,0,0,0,0,3.182H90.1a1.591,1.591,0,0,0,1.591-1.591V96.869A1.593,1.593,0,0,0,91.358,95.894Z" transform="translate(-45.715 -78.521)" fill="#dd6b7f"/>
      </g>
    </g>
    <g id="Groupe_282" data-name="Groupe 282" transform="translate(2.598 97.559)">
      <g id="Groupe_281" data-name="Groupe 281">
        <path id="Tracé_455" data-name="Tracé 455" d="M35.262,271.6H27.944a1.591,1.591,0,0,0,0,3.182h7.318a1.591,1.591,0,0,0,0-3.182Z" transform="translate(-26.353 -271.597)" fill="#dd6b7f"/>
      </g>
    </g>
    <g id="Groupe_284" data-name="Groupe 284" transform="translate(0 91.301)">
      <g id="Groupe_283" data-name="Groupe 283">
        <path id="Tracé_456" data-name="Tracé 456" d="M15.167,208.134H1.591a1.591,1.591,0,0,0,0,3.182H15.167a1.591,1.591,0,0,0,0-3.182Z" transform="translate(0 -208.134)" fill="#dd6b7f"/>
      </g>
    </g>
    <g id="Groupe_286" data-name="Groupe 286" transform="translate(2.598 85.044)">
      <g id="Groupe_285" data-name="Groupe 285">
        <path id="Tracé_457" data-name="Tracé 457" d="M41.52,144.672H27.944a1.591,1.591,0,1,0,0,3.182H41.52a1.591,1.591,0,1,0,0-3.182Z" transform="translate(-26.353 -144.672)" fill="#dd6b7f"/>
      </g>
    </g>
  </g>
</svg>
