<svg xmlns="http://www.w3.org/2000/svg" width="35" height="35" viewBox="0 0 35 35">
  <path id="headphones" d="M32.949,15.383v0a15.449,15.449,0,0,0-30.9,0v0A5.123,5.123,0,0,0,0,19.482v4.238a5.133,5.133,0,0,0,5.127,5.127H7.178A1.025,1.025,0,0,0,8.2,27.822V15.381a9.3,9.3,0,0,1,18.594,0V27.822a1.025,1.025,0,0,0,1.025,1.025h1.025v1.025A1.027,1.027,0,0,1,27.822,30.9h-5.3a3.082,3.082,0,0,0-2.9-2.051h-4.17a3.076,3.076,0,1,0,0,6.152h4.17a3.082,3.082,0,0,0,2.9-2.051h5.3A3.08,3.08,0,0,0,30.9,29.873V28.745A5.136,5.136,0,0,0,35,23.721V19.482a5.123,5.123,0,0,0-2.051-4.1ZM19.619,32.949h-4.17a1.025,1.025,0,1,1,0-2.051h4.17a1.025,1.025,0,0,1,0,2.051ZM6.152,26.8H5.127a3.08,3.08,0,0,1-3.076-3.076V19.482a3.08,3.08,0,0,1,3.076-3.076H6.152ZM17.5,4.1A11.357,11.357,0,0,0,6.2,14.355H5.127a5.127,5.127,0,0,0-.992.1,13.4,13.4,0,0,1,26.731,0,5.127,5.127,0,0,0-.992-.1H28.8A11.357,11.357,0,0,0,17.5,4.1ZM32.949,23.721A3.08,3.08,0,0,1,29.873,26.8H28.848V16.406h1.025a3.08,3.08,0,0,1,3.076,3.076Zm0,0" transform="translate(0 0)" fill="#dd6b7f"/>
</svg>
