<svg xmlns="http://www.w3.org/2000/svg" width="39.365" height="48.122" viewBox="0 0 39.365 48.122">
  <g id="apple" transform="translate(-240.806 -820.896)">
    <path id="Tracé_74" data-name="Tracé 74" d="M263.214,8a10.463,10.463,0,0,0,2-7c-.009-.436-.569-1.066-1-1-2.276.348-4.425,2.156-6,4-1.452,1.678-3.1,3.415-3,6a1.318,1.318,0,0,0,1,1,9.821,9.821,0,0,0,7-3" transform="translate(4.786 821)" fill="#e4e4e4"/>
    <path id="Tracé_75" data-name="Tracé 75" d="M257.213,10c-.15-4.007,3.093-8.491,8-10-.154-.212-.719-.043-1,0-2.276.348-4.425,2.156-6,4-1.452,1.678-3.1,3.415-3,6a1.318,1.318,0,0,0,1,1,13.329,13.329,0,0,0,2,0C258.081,10.875,257.22,10.194,257.213,10Z" transform="translate(4.787 821)" fill="#e4e4e4"/>
    <path id="Tracé_76" data-name="Tracé 76" d="M87.118,146.251a9.768,9.768,0,0,1-6-9,11.228,11.228,0,0,1,4-9,.683.683,0,0,0,0-1c-1.15-1.459-1.709-2.393-3-3h0c-.167-.079-.771.09-1,0h0c-6.5-2.546-10.519,1-13,1-1.9,0-4.894-2.058-8-2a11.866,11.866,0,0,0-10,6c-3.229,5.578-2.515,13.058,0,19h0c.064.152.914.809,1,1h0a22.466,22.466,0,0,0,2,4c2.018,2.9,4.837,6.12,8,6,3.045-.12,4.321-2,8-2s3.781,2.058,7,2c3.277-.062,6-3.083,8-6a24.546,24.546,0,0,0,3-6C87.234,146.915,87.437,146.411,87.118,146.251Z" transform="translate(192.882 709.749)" fill="#e4e4e4"/>
    <path id="Tracé_77" data-name="Tracé 77" d="M55.119,155.316c-.892-1.29-1.261-3.339-2-5h0c-.087-.195-.934.157-1,0h0c-2.537-6.021-3.288-14.294,0-20a11.694,11.694,0,0,1,9-6,7.129,7.129,0,0,0-1,0,11.68,11.68,0,0,0-10,6c-3.276,5.686-2.552,13.942,0,20h0c.065.155.913-.195,1,0,0,0,0,0,0,0,.739,1.661,1.108,3.71,2,5,2.048,2.96,4.79,6.123,8,6,.316-.013.72.045,1,0C59.426,160.77,56.933,157.938,55.119,155.316Z" transform="translate(192.881 707.684)" fill="#e4e4e4"/>
  </g>
</svg>
