<svg xmlns="http://www.w3.org/2000/svg" width="48.569" height="48.063" viewBox="0 0 48.569 48.063">
  <g id="huwawei" transform="translate(-379.711 -780.964)">
    <g id="Groupe_80" data-name="Groupe 80" transform="translate(380 781)">
      <path id="Tracé_87" data-name="Tracé 87" d="M41.158,68.87a1.978,1.978,0,0,0-1,0c-.757.768-4.271,4.412-4,8,.159,2.975,2.878,4.9,3,5,.1.077,3.508,3.278,15,9,.03.006-.063.079,0,0h0A125.042,125.042,0,0,0,41.158,68.87Z" transform="translate(-33.158 -62.87)" fill="#e4e4e4"/>
      <path id="Tracé_88" data-name="Tracé 88" d="M63.247,332.306c-.037-.128-1,0-1,0h-14c-.147.005-.075.874,0,1,1.639,2.757,4.249,4.672,7,4,1.966-.486,5.532-3.948,7-5h0C62.358,332.2,63.247,332.306,63.247,332.306Z" transform="translate(-43.247 -301.306)" fill="#e4e4e4"/>
      <path id="Tracé_89" data-name="Tracé 89" d="M20,211.386c-6.082-4.1-17.338-10.107-19-11-.107-.057-.966-.116-1,0a6.936,6.936,0,0,0,1,6,7.325,7.325,0,0,0,5,4,10.381,10.381,0,0,1,2,1c.223.041,9.675.012,12,0Z" transform="translate(0 -181.386)" fill="#e4e4e4"/>
      <path id="Tracé_90" data-name="Tracé 90" d="M143.259.285c-3.968,1.03-6.263,5.692-5,10h0c1.324,5.866,8.6,14.979,10,17h0c1.994-19.935-1.453-26.169-2-27a4.782,4.782,0,0,0-1,0A13.466,13.466,0,0,1,143.259.285Z" transform="translate(-125.259 -0.285)" fill="#e4e4e4"/>
      <path id="Tracé_91" data-name="Tracé 91" d="M273.762,5.337h0a7.308,7.308,0,0,0-5-5,6.121,6.121,0,0,1-2,0c-.482-.073-5.044,6.625-3,27h0a5.7,5.7,0,0,0,1,0h0c1.439-2.077,7.684-11.162,9-17C273.762,10.337,274.448,7.253,273.762,5.337Z" transform="translate(-238.762 -0.337)" fill="#e4e4e4"/>
      <path id="Tracé_92" data-name="Tracé 92" d="M306.7,332.4h0c-.112.029-.05-.1,0,0,.009.019-.018-.015,0,0h0c1.431,1.027,4.909,4.413,7,5,0,0,3.683,1.448,7-4,.077-.126.147-.995,0-1Z" transform="translate(-277.705 -301.403)" fill="#e4e4e4"/>
      <path id="Tracé_93" data-name="Tracé 93" d="M323.385,200.1c-.035-.117-.892-.058-1,0-1.658.895-12.917,6.9-19,11h0c-.165.111-.138,0,0,0,2.355.005,11.777.039,12,0a8.22,8.22,0,0,1,2-1,6.815,6.815,0,0,0,5-4A7.239,7.239,0,0,0,323.385,200.1Z" transform="translate(-275.385 -181.102)" fill="#e4e4e4"/>
      <path id="Tracé_94" data-name="Tracé 94" d="M309.142,76.847c.234-3.71-3.247-7.256-4-8a2.008,2.008,0,0,0-1,0,125.87,125.87,0,0,0-13,22h0c-.084.182-.14.081,0,0,11.023-5.486,14.449-8.547,15-9C306.257,81.753,309.018,79.785,309.142,76.847Z" transform="translate(-264.142 -62.847)" fill="#e4e4e4"/>
    </g>
    <g id="Groupe_81" data-name="Groupe 81" transform="translate(380 781)">
      <path id="Tracé_95" data-name="Tracé 95" d="M54.16,89.869c-9.811-5.136-12.64-7.711-13-8a8.3,8.3,0,0,1-2-5,10.535,10.535,0,0,1,2-7c-.377-.489.152-.812,0-1a1.979,1.979,0,0,0-1,0c-.757.768-4.271,4.412-4,8,.159,2.975,2.878,4.9,3,5,.1.077,3.513,3.28,15,9,.03.006-.063.079,0,0h0C54.021,90.565,54.3,90.17,54.16,89.869Z" transform="translate(-33.16 -62.869)" fill="#e4e4e4"/>
      <path id="Tracé_96" data-name="Tracé 96" d="M10,211.385a10.381,10.381,0,0,0-2-1,7.325,7.325,0,0,1-5-4,9.635,9.635,0,0,1-1-6c-.745-.406-.723.149-1,0-.107-.057-.966-.116-1,0a6.936,6.936,0,0,0,1,6,7.325,7.325,0,0,0,5,4,10.381,10.381,0,0,1,2,1c.1.018,1.939,0,4,0C10.959,211.384,10.061,211.4,10,211.385Z" transform="translate(0 -181.385)" fill="#e4e4e4"/>
      <path id="Tracé_97" data-name="Tracé 97" d="M148.257,25.285c-2.448-3.745-6.961-10.4-8-15h0c-1.263-4.308,1.032-8.97,5-10a4.255,4.255,0,0,0,1,0c-.059-.1.035.054,0,0a4.775,4.775,0,0,0-1,0,13.466,13.466,0,0,1-2,0c-3.968,1.03-6.263,5.692-5,10h0c1.324,5.866,8.6,14.979,10,17h0C148.33,26.557,148.2,25.976,148.257,25.285Z" transform="translate(-125.257 -0.285)" fill="#e4e4e4"/>
      <path id="Tracé_98" data-name="Tracé 98" d="M267.709.337c-.421-.094-.349.1-1,0-.482-.073-5.044,6.625-3,27h0a5.7,5.7,0,0,0,1,0h0c.3-.44.34-.992,1-2C264.348,9.071,266.7,1.844,267.709.337Z" transform="translate(-238.709 -0.337)" fill="#e4e4e4"/>
      <path id="Tracé_99" data-name="Tracé 99" d="M308.557,332.4h-2c-.112.029-.05-.1,0,0,.009.019-.018-.015,0,0h0c1.431,1.027,5.908,4.413,8,5a2.6,2.6,0,0,0,2,0C314.309,336.676,310.114,333.518,308.557,332.4Z" transform="translate(-277.557 -301.403)" fill="#e4e4e4"/>
      <path id="Tracé_100" data-name="Tracé 100" d="M323.385,201.1c-.051-.512.165-.449,0-1-.035-.117-.892-.058-1,0-1.658.895-12.917,6.9-19,11h0c-.165.111-.138,0,0,0,.62,0,1.749,0,3,0C311.371,207.846,319.118,203.453,323.385,201.1Z" transform="translate(-275.385 -181.102)" fill="#e4e4e4"/>
      <path id="Tracé_101" data-name="Tracé 101" d="M306.142,69.848a11.354,11.354,0,0,0-1-1,2.008,2.008,0,0,0-1,0,125.87,125.87,0,0,0-13,22h0c-.084.182-.14.081,0,0,.761-.379,2.312-.643,3-1A118.147,118.147,0,0,1,306.142,69.848Z" transform="translate(-264.142 -62.848)" fill="#e4e4e4"/>
    </g>
    <g id="Groupe_82" data-name="Groupe 82" transform="translate(380 821.083)">
      <path id="Tracé_102" data-name="Tracé 102" d="M6,431.342H2c-.052,0,0,.052,0,0v-3c0-.052.052,0,0,0H0c-.052,0,0-.052,0,0v8c0,.052-.052,0,0,0H2c.052,0,0,.052,0,0v-3c0-.052-.052,0,0,0H6c.052,0,0-.052,0,0v3c0,.052-.052,0,0,0H7a6.421,6.421,0,0,0,1,0v-8a6.425,6.425,0,0,0-1,0H6c-.052,0,0-.052,0,0v3C6,431.394,6.052,431.342,6,431.342Z" transform="translate(0 -428.425)" fill="#e4e4e4"/>
      <path id="Tracé_103" data-name="Tracé 103" d="M99.855,433.347c0,1.382.477,2-1,2s-2-.618-2-2v-5c0-.052.052,0,0,0h-2c-.052,0,0-.052,0,0v5c0,.994-.39,1.579,0,2,.693.769,2.524,1,4,1a3.557,3.557,0,0,0,3-1c.379-.412,0-1,0-2v-5c0-.052.052,0,0,0h-1a6.421,6.421,0,0,0-1,0v5Z" transform="translate(-85.855 -428.43)" fill="#e4e4e4"/>
      <path id="Tracé_104" data-name="Tracé 104" d="M179.925,428.343l-3,8c-.029.062-.068,0,0,0h1c.038,0-.014.035,0,0l1-2c.014-.035-.038,0,0,0h4c.038,0-.015-.035,0,0l1,2c.015.035-.038,0,0,0h1c.069,0,.029.062,0,0l-3-8c-.015-.033.037,0,0,0h-2C179.889,428.343,179.941,428.309,179.925,428.343Zm0,5,1-3c.032-.077-.033-.077,0,0l1,3c.027.062.067,0,0,0h-2C179.859,433.343,179.9,433.4,179.925,433.343Z" transform="translate(-159.925 -428.426)" fill="#e4e4e4"/>
      <path id="Tracé_105" data-name="Tracé 105" d="M270.012,434.341l-2-6c-.012-.039.041,0,0,0h-2c-.042,0,.011-.041,0,0l-2,6c-.025.09.029.089,0,0l-2-6c-.013-.039.041,0,0,0h-2c-.065,0-.022-.061,0,0l3,8c.013.037-.04,0,0,0h2c.042,0-.011.041,0,0l2-6c.025-.091-.028-.09,0,0l2,6c.012.039-.041,0,0,0h2c.04,0-.013.038,0,0l2-8c.02-.061.064,0,0,0h-1c-.041,0,.012-.04,0,0l-2,6C269.985,434.429,270.04,434.429,270.012,434.341Z" transform="translate(-236.012 -428.424)" fill="#e4e4e4"/>
      <path id="Tracé_106" data-name="Tracé 106" d="M403.048,432.342c0,1.418.126,2.36,1,3a5.318,5.318,0,0,0,3,1h3c.052,0,0,.052,0,0v-1c0-.052.052,0,0,0h-3c-1.37,0-1.961-.669-2-2,0-.053-.053,0,0,0h5c.052,0,0,.052,0,0v-2c0-.052.052,0,0,0h-5c-.055,0,0,.055,0,0a1.94,1.94,0,0,1,2-2h3c.052,0,0,.052,0,0v-1c0-.052.052,0,0,0h-3C404.32,428.342,403.048,429.574,403.048,432.342Z" transform="translate(-365.048 -428.425)" fill="#e4e4e4"/>
      <path id="Tracé_107" data-name="Tracé 107" d="M492.223,428.341v8c0,.052-.052,0,0,0h2c.052,0,0,.052,0,0v-8c0-.052.052,0,0,0h-2C492.171,428.341,492.223,428.289,492.223,428.341Z" transform="translate(-446.223 -428.424)" fill="#e4e4e4"/>
    </g>
    <path id="Tracé_108" data-name="Tracé 108" d="M50.248,337.42h0c-.005-.008.076.15,0,0h0c-.011-.019,0,.02,0,0-.04-.1-1,.1-1,0h-1c-.147.005-.075-.126,0,0,1.629,2.741,4.267,4.637,7,4A8.973,8.973,0,0,1,50.248,337.42Z" transform="translate(336.752 475.58)" fill="#e4e4e4"/>
  </g>
</svg>
