<svg xmlns="http://www.w3.org/2000/svg" width="111.119" height="23.141" viewBox="0 0 111.119 23.141">
  <g id="lenovo" transform="translate(-727.881 -800.881)">
    <path id="Tracé_109" data-name="Tracé 109" d="M177.168,225.929a6.689,6.689,0,0,1,7,7v10a1.826,1.826,0,0,1-1,1h-3a1.826,1.826,0,0,1-1-1v-9a4.073,4.073,0,0,0-4-4,4.02,4.02,0,0,0-4,4v9c0,.269.269,1,0,1h-4a1.826,1.826,0,0,1-1-1v-16a1.826,1.826,0,0,1,1-1h4c.269,0,0,.731,0,1v2h0a8.057,8.057,0,0,1,6-3" transform="translate(597.832 580.071)" fill="#e4e4e4"/>
    <g id="Groupe_83" data-name="Groupe 83" transform="translate(764.196 806.193)">
      <path id="Tracé_110" data-name="Tracé 110" d="M216.962,257.778v-9a4.073,4.073,0,0,0-4-4,3.049,3.049,0,0,0-1,0,4.408,4.408,0,0,1,3,4v9a1.826,1.826,0,0,0,1,1h2A1.825,1.825,0,0,1,216.962,257.778Z" transform="translate(-202.157 -240.971)" fill="#e4e4e4"/>
      <path id="Tracé_111" data-name="Tracé 111" d="M169.166,243.983v-16c0-.269-.269-1,0-1h-2a1.826,1.826,0,0,0-1,1v16a1.826,1.826,0,0,0,1,1h2C168.9,244.983,169.166,244.252,169.166,243.983Z" transform="translate(-166.362 -227.176)" fill="#e4e4e4"/>
    </g>
    <path id="Tracé_112" data-name="Tracé 112" d="M354,226.985h5c.346,0,.132.68,0,1l-7,16c-.075.182.2,1,0,1h-5c-.2,0,.075-.818,0-1l-7-16c-.132-.32-.346-1,0-1h5c.2,0-.07.808,0,1l4,10a.551.551,0,0,0,1,0l4-10C354.073,227.793,353.8,226.985,354,226.985Z" transform="translate(461.997 579.015)" fill="#e4e4e4"/>
    <path id="Tracé_113" data-name="Tracé 113" d="M348.987,243.985l-7-16c-.132-.32.654-1,1-1h-3c-.346,0-.132.68,0,1l7,16c.075.182-.2,1,0,1h3C349.79,244.985,349.062,244.168,348.987,243.985Z" transform="translate(462.013 579.015)" fill="#e4e4e4"/>
    <path id="Tracé_114" data-name="Tracé 114" d="M92.308,232.926a7.615,7.615,0,0,0-2-4c-1.615-1.876-3.089-3-6-3-5.287,0-10,3.849-10,9,0,5.285,4.193,9,10,9a12.614,12.614,0,0,0,8-3,.819.819,0,0,0,0-1l-3-1c-.169-.13.174-.124,0,0-1.848,1.321-3.245,1-5,1a5.032,5.032,0,0,1-3-1c-.322-.216-.358-.851,0-1l11-4C92.516,233.839,92.347,233.147,92.308,232.926Zm-5-1-7,3c-.315.131-.989.341-1,0a7.057,7.057,0,0,1,1-4c.819-1.1,2.425-1,4-1,1.523,0,2.27.823,3,2C87.468,232.184,87.589,231.81,87.308,231.926Z" transform="translate(669.692 580.074)" fill="#e4e4e4"/>
    <path id="Tracé_115" data-name="Tracé 115" d="M77.308,234.926a8.851,8.851,0,0,1,8-9,7.424,7.424,0,0,0-1,0c-5.287,0-10,3.849-10,9,0,5.285,4.193,9,10,9a7.771,7.771,0,0,0,1,0C80.208,243.409,77.308,239.809,77.308,234.926Z" transform="translate(669.692 580.074)" fill="#e4e4e4"/>
    <path id="Tracé_116" data-name="Tracé 116" d="M16,222.161v3a1.828,1.828,0,0,1-1,1H0c-.269,0,0-.732,0-1v-22c0-.268-.269,0,0,0H4c.269,0,1-.268,1,0v18c0,.268-.269,0,0,0H15A1.827,1.827,0,0,1,16,222.161Z" transform="translate(728 597.839)" fill="#e4e4e4"/>
    <path id="Tracé_117" data-name="Tracé 117" d="M2,225.161v-22c0-.268.731,0,1,0H0c-.269,0,0-.268,0,0v22c0,.268-.269,1,0,1H3A1.828,1.828,0,0,1,2,225.161Z" transform="translate(728 597.839)" fill="#e4e4e4"/>
    <path id="Tracé_118" data-name="Tracé 118" d="M435.078,225.926a9,9,0,1,0,9,9A8.74,8.74,0,0,0,435.078,225.926Zm0,14a5.082,5.082,0,0,1-5-5,4.963,4.963,0,0,1,5-5,5.081,5.081,0,0,1,5,5A5,5,0,0,1,435.078,239.926Z" transform="translate(394.922 580.074)" fill="#e4e4e4"/>
    <g id="Groupe_84" data-name="Groupe 84" transform="translate(820.612 805.898)">
      <path id="Tracé_119" data-name="Tracé 119" d="M474.056,254.7a12.627,12.627,0,0,0,2,0c2.686,0,4-2.161,4-5a5.082,5.082,0,0,0-5-5,3.188,3.188,0,0,0-1,0,5.125,5.125,0,0,1,0,10Z" transform="translate(-463.668 -240.598)" fill="#e4e4e4"/>
      <path id="Tracé_120" data-name="Tracé 120" d="M428.078,234.926a8.921,8.921,0,0,1,8-9,6.867,6.867,0,0,0-1,0,9,9,0,0,0,0,18,6.867,6.867,0,0,0,1,0A8.912,8.912,0,0,1,428.078,234.926Z" transform="translate(-425.69 -225.824)" fill="#e4e4e4"/>
    </g>
    <path id="Tracé_121" data-name="Tracé 121" d="M265.25,225.926a9,9,0,1,0,9,9A8.739,8.739,0,0,0,265.25,225.926Zm0,14a5.081,5.081,0,0,1-5-5,4.963,4.963,0,0,1,5-5,5.081,5.081,0,0,1,5,5A5,5,0,0,1,265.25,239.926Z" transform="translate(527.75 580.074)" fill="#e4e4e4"/>
    <g id="Groupe_85" data-name="Groupe 85" transform="translate(783.682 805.898)">
      <path id="Tracé_122" data-name="Tracé 122" d="M258.247,234.926a8.921,8.921,0,0,1,8-9,6.867,6.867,0,0,0-1,0,9,9,0,0,0,0,18,6.867,6.867,0,0,0,1,0A8.912,8.912,0,0,1,258.247,234.926Z" transform="translate(-255.929 -225.824)" fill="#e4e4e4"/>
      <path id="Tracé_123" data-name="Tracé 123" d="M304.223,254.7a12.627,12.627,0,0,0,2,0c2.685,0,4-2.161,4-5,0-2.764-1.365-5-4-5a12.7,12.7,0,0,0-2,0C308.854,245.953,308.743,253.484,304.223,254.7Z" transform="translate(-293.905 -240.598)" fill="#e4e4e4"/>
    </g>
  </g>
</svg>
