<svg xmlns="http://www.w3.org/2000/svg" width="66.321" height="60" viewBox="0 0 66.321 60">
  <g id="account" transform="translate(0 -24.4)">
    <g id="Groupe_515" data-name="Groupe 515" transform="translate(0 24.4)">
      <g id="Groupe_514" data-name="Groupe 514" transform="translate(0 0)">
        <path id="Tracé_2015" data-name="Tracé 2015" d="M53.922,24.4H4.088A4.069,4.069,0,0,0,0,28.441V69.5a4.069,4.069,0,0,0,4.088,4.041H36.726a.962.962,0,1,0,0-1.924H33.092V65.4a4.03,4.03,0,0,0-2.515-3.73l-5.111-2.106a1.088,1.088,0,0,1-.679-1.007v-1.5a7.1,7.1,0,0,0,2.076-5V47.945c0-3.36-3.231-6.094-7.2-6.094s-7.2,2.734-7.2,6.094v4.106a7.1,7.1,0,0,0,2.076,5v1.5a1.088,1.088,0,0,1-.679,1.007L8.745,61.665A4.03,4.03,0,0,0,6.229,65.4v6.223H4.088A2.132,2.132,0,0,1,1.946,69.5V36.589H56.063V52.564a.973.973,0,0,0,1.946,0V28.441A4.069,4.069,0,0,0,53.922,24.4ZM8.175,65.4a2.112,2.112,0,0,1,1.318-1.955L14.6,61.335a3.007,3.007,0,0,0,1.876-2.783v-.208a.975.975,0,0,0,.905-.477.956.956,0,0,0-.354-1.314,5.207,5.207,0,0,1-2.627-4.5V47.945c0-2.3,2.358-4.171,5.256-4.171s5.256,1.871,5.256,4.171v4.106a5.207,5.207,0,0,1-2.629,4.5.956.956,0,0,0-.355,1.314.975.975,0,0,0,.843.48c.021,0,.043,0,.064,0v.208a3.007,3.007,0,0,0,1.877,2.783l5.111,2.106A2.112,2.112,0,0,1,31.147,65.4v6.223H8.175Zm47.888-30.73H1.946V28.441a2.132,2.132,0,0,1,2.142-2.118H53.922a2.132,2.132,0,0,1,2.142,2.118Z" transform="translate(0 -24.4)" fill="#dd6b7f"/>
      </g>
    </g>
    <g id="Groupe_517" data-name="Groupe 517" transform="translate(4.111 29.533)">
      <g id="Groupe_516" data-name="Groupe 516" transform="translate(0 0)">
        <path id="Tracé_2016" data-name="Tracé 2016" d="M33.021,64.418h-.01a.967.967,0,1,0,.01,0Z" transform="translate(-32.054 -64.418)" fill="#dd6b7f"/>
      </g>
    </g>
    <g id="Groupe_519" data-name="Groupe 519" transform="translate(10.26 29.533)">
      <g id="Groupe_518" data-name="Groupe 518" transform="translate(0 0)">
        <path id="Tracé_2017" data-name="Tracé 2017" d="M80.962,64.418h-.01a.967.967,0,1,0,.01,0Z" transform="translate(-79.995 -64.418)" fill="#dd6b7f"/>
      </g>
    </g>
    <g id="Groupe_521" data-name="Groupe 521" transform="translate(7.18 29.533)">
      <g id="Groupe_520" data-name="Groupe 520" transform="translate(0 0)">
        <path id="Tracé_2018" data-name="Tracé 2018" d="M56.951,64.418h-.01a.967.967,0,1,0,.01,0Z" transform="translate(-55.984 -64.418)" fill="#dd6b7f"/>
      </g>
    </g>
    <g id="Groupe_523" data-name="Groupe 523" transform="translate(14.722 29.533)">
      <g id="Groupe_522" data-name="Groupe 522" transform="translate(0 0)">
        <path id="Tracé_2019" data-name="Tracé 2019" d="M149.965,64.418H113.011a.962.962,0,1,0,0,1.924h36.954a.962.962,0,0,0,0-1.924Z" transform="translate(-112.049 -64.418)" fill="#dd6b7f"/>
      </g>
    </g>
    <g id="Groupe_525" data-name="Groupe 525" transform="translate(36.682 54.761)">
      <g id="Groupe_524" data-name="Groupe 524">
        <path id="Tracé_2020" data-name="Tracé 2020" d="M309.9,261.375l-13.858-4.82a.96.96,0,0,0-.632,0l-9.965,3.466a.962.962,0,0,0,.632,1.817l9.649-3.356,12.85,4.469a28.806,28.806,0,0,1-12.85,21.087A28.376,28.376,0,0,1,284.638,270.3a26.94,26.94,0,0,1-1.811-8.035.962.962,0,0,0-1.923.042,28.27,28.27,0,0,0,1.909,8.605A30.288,30.288,0,0,0,295.215,286a.962.962,0,0,0,1.017,0,30.288,30.288,0,0,0,12.4-15.086,28.262,28.262,0,0,0,1.909-8.605A.961.961,0,0,0,309.9,261.375Z" transform="translate(-280.903 -256.501)" fill="#a8c7e8"/>
      </g>
    </g>
    <g id="Groupe_527" data-name="Groupe 527" transform="translate(45.268 64.648)">
      <g id="Groupe_526" data-name="Groupe 526">
        <path id="Tracé_2021" data-name="Tracé 2021" d="M360.336,334.883a.962.962,0,0,0-1.36,0l-5.948,5.947-3.537-3.537a.962.962,0,1,0-1.36,1.36l4.218,4.218a.962.962,0,0,0,1.36,0l6.628-6.628A.962.962,0,0,0,360.336,334.883Z" transform="translate(-347.848 -334.601)" fill="#a8c7e8"/>
      </g>
    </g>
    <g id="Groupe_529" data-name="Groupe 529" transform="translate(31.24 41.01)">
      <g id="Groupe_528" data-name="Groupe 528" transform="translate(0 0)">
        <path id="Tracé_2022" data-name="Tracé 2022" d="M258.517,152.456H242.093a1.991,1.991,0,0,0-1.988,1.988v3.08a1.991,1.991,0,0,0,1.988,1.988h16.424a1.991,1.991,0,0,0,1.988-1.988v-3.08A1.991,1.991,0,0,0,258.517,152.456Zm.064,5.068a.065.065,0,0,1-.065.065H242.093a.064.064,0,0,1-.065-.065v-3.08a.065.065,0,0,1,.065-.065h16.424a.065.065,0,0,1,.065.065Z" transform="translate(-240.105 -152.456)" fill="#dd6b7f"/>
      </g>
    </g>
    <g id="Groupe_531" data-name="Groupe 531" transform="translate(32.226 50.327)">
      <g id="Groupe_530" data-name="Groupe 530">
        <path id="Tracé_2023" data-name="Tracé 2023" d="M261.388,224.487H249.07a.962.962,0,0,0,0,1.924h12.318a.962.962,0,0,0,0-1.924Z" transform="translate(-248.108 -224.487)" fill="#dd6b7f"/>
      </g>
    </g>
    <g id="Groupe_533" data-name="Groupe 533" transform="translate(32.19 54.475)">
      <g id="Groupe_532" data-name="Groupe 532" transform="translate(0 0)">
        <path id="Tracé_2024" data-name="Tracé 2024" d="M256.255,256.5H249.07a.962.962,0,1,0,0,1.924h7.186a.962.962,0,0,0,0-1.924Z" transform="translate(-248.108 -256.502)" fill="#dd6b7f"/>
      </g>
    </g>
  </g>
</svg>
