<svg xmlns="http://www.w3.org/2000/svg" width="60" height="60" viewBox="0 0 60 60">
  <g id="garantee" transform="translate(0 0)">
    <g id="XMLID_971_" transform="translate(0 0.001)">
      <path id="XMLID_1518_" d="M59.172,32.625,47.344,28.991V13.36a1.172,1.172,0,0,0-1.172-1.172H36.764A13.141,13.141,0,0,0,23.6,0,13.213,13.213,0,0,0,10.59,12.188H1.172A1.172,1.172,0,0,0,0,13.36V31.3a1.172,1.172,0,0,0,2.344,0V14.532h8.2v3.887a3.75,3.75,0,0,0,7.5,0V14.532H29.3v3.887a3.75,3.75,0,1,0,7.5,0V14.532H45V29.279L34.109,32.625a1.172,1.172,0,0,0-.828,1.12v9.316a17.471,17.471,0,0,0,7.873,14.6H5.859a3.52,3.52,0,0,1-3.516-3.516v-12.3a1.172,1.172,0,0,0-2.344,0v12.3A5.866,5.866,0,0,0,5.859,60H41.484a5.824,5.824,0,0,0,2.8-.712,17.536,17.536,0,0,0,2.059.675,1.171,1.171,0,0,0,.591,0A17.469,17.469,0,0,0,60,43.061V33.745A1.172,1.172,0,0,0,59.172,32.625ZM18.126,12.188A5.634,5.634,0,0,1,23.76,7.5,5.683,5.683,0,0,1,29.2,12.188H18.126Zm16.327,6.23a1.406,1.406,0,1,1-2.812,0v-5.19A8.055,8.055,0,0,0,23.8,5.158H23.67A7.976,7.976,0,0,0,15.7,13.125v5.293a1.406,1.406,0,1,1-2.812,0V13.257A10.873,10.873,0,0,1,23.609,2.344,10.795,10.795,0,0,1,34.453,13.125Zm23.2,24.643A15.124,15.124,0,0,1,46.641,57.615,15.124,15.124,0,0,1,35.625,43.061v-8.45l11.016-3.385,11.016,3.385Z" transform="translate(0 -0.001)" fill="#dd6b7f"/>
      <path id="XMLID_1540_" d="M355.387,349.586a1.172,1.172,0,1,0-1.657,1.657l2.975,2.975a1.172,1.172,0,0,0,1.657,0l5.137-5.138a1.172,1.172,0,0,0-1.657-1.657l-4.309,4.309Z" transform="translate(-311.974 -306.407)" fill="#a8c7e8"/>
      <path id="XMLID_1578_" d="M1.172,304.424a1.172,1.172,0,1,0-.829-2,1.172,1.172,0,0,0,.829,2Z" transform="translate(0 -266.68)" fill="#a8c7e8"/>
    </g>
  </g>
</svg>
