<svg id="apple" xmlns="http://www.w3.org/2000/svg" width="13.624" height="16.777" viewBox="0 0 13.624 16.777">
  <path id="Tracé_74" data-name="Tracé 74" d="M258.094,2.673a3.791,3.791,0,0,0,.9-2.43A.251.251,0,0,0,258.7,0a3.89,3.89,0,0,0-2.215,1.253,3.646,3.646,0,0,0-.915,2.38.249.249,0,0,0,.254.239,3.225,3.225,0,0,0,2.271-1.2" transform="translate(-248.782 0)" fill="#171717"/>
  <path id="Tracé_76" data-name="Tracé 76" d="M61.6,131.117a3.677,3.677,0,0,1-2.061-3.3,3.737,3.737,0,0,1,1.6-3.053.249.249,0,0,0,.053-.355,3.634,3.634,0,0,0-1.323-1.052h0c-.058-.028-.159-.071-.239-.1h0c-2.272-.893-3.7.476-4.57.476-.664,0-1.688-.749-2.774-.728a4.114,4.114,0,0,0-3.476,2.1c-1.128,1.955-.756,4.628.123,6.711h0c.023.053.058.136.088.2h0a9.561,9.561,0,0,0,.854,1.536c.705,1.018,1.547,2.164,2.653,2.122,1.064-.042,1.467-.687,2.753-.687s1.648.687,2.773.666c1.146-.022,1.871-1.039,2.571-2.061a9.357,9.357,0,0,0,1.093-2.17A.248.248,0,0,0,61.6,131.117Z" transform="translate(-48.118 -118.896)" fill="#171717"/>
</svg>
