<svg xmlns="http://www.w3.org/2000/svg" width="35" height="21.328" viewBox="0 0 35 21.328">
  <g id="battery" transform="translate(35 -100) rotate(90)">
    <g id="Groupe_300" data-name="Groupe 300" transform="translate(100)">
      <g id="Groupe_299" data-name="Groupe 299" transform="translate(0)">
        <path id="Tracé_530" data-name="Tracé 530" d="M120.008,23.993a1.391,1.391,0,0,0,1.32-1.4V8.206a5.472,5.472,0,0,0-5.472-5.472h-.4a0,0,0,0,1,0,0V2.347A2.347,2.347,0,0,0,113.1,0h-4.876a2.347,2.347,0,0,0-2.347,2.347v.384a0,0,0,0,1,0,0h-.4A5.472,5.472,0,0,0,100,8.206V29.528A5.472,5.472,0,0,0,105.472,35h10.387a5.475,5.475,0,0,0,5.468-5.4,1.387,1.387,0,0,0-1.438-1.438,1.367,1.367,0,0,0-1.3,1.344,2.759,2.759,0,0,1-2.738,2.755H105.472a2.738,2.738,0,0,1-2.738-2.738V8.206a2.738,2.738,0,0,1,2.738-2.738h1.771a1.37,1.37,0,0,0,1.37-1.37V2.738a0,0,0,0,1,0,0h4.1a0,0,0,0,1,0,0V4.1a1.37,1.37,0,0,0,1.37,1.37h1.771a2.738,2.738,0,0,1,2.738,2.738V22.627A1.367,1.367,0,0,0,120.008,23.993Z" transform="translate(-100)" fill="#dd6b7f"/>
        <path id="Tracé_531" data-name="Tracé 531" d="M185.256,203.92c0,.215.186.343.425.342a.677.677,0,0,0,.462-.184l6.454-7.384a1,1,0,0,0-.752-1.66h-3.16a0,0,0,0,1,0,0l2.5-4.023a0,0,0,0,0,0,0h-4.845l0,0-3.149,5.615a1.371,1.371,0,0,0,1.211,2.039h2.742a0,0,0,0,1,0,0l-1.836,5.088A.418.418,0,0,0,185.256,203.92Z" transform="translate(-177.326 -177.943)" fill="#dd6b7f"/>
      </g>
    </g>
  </g>
</svg>
