<svg xmlns="http://www.w3.org/2000/svg" width="35" height="35" viewBox="0 0 35 35">
  <g id="water-drops" transform="translate(0)">
    <path id="Tracé_534" data-name="Tracé 534" d="M35,12.008c0-1.574-.944-3.944-2.887-7.247-1.38-2.346-2.738-4.252-2.8-4.332a1.025,1.025,0,0,0-1.669,0,56.414,56.414,0,0,0-4.457,7.442C20.694,3.741,18.36.465,18.334.429a1.025,1.025,0,0,0-1.669,0c-.028.039-2.8,3.935-5.541,8.588q-.44.748-.844,1.464C8.868,8.05,7.425,6.024,7.351,5.921a1.025,1.025,0,0,0-1.669,0c-.057.08-1.415,1.986-2.8,4.332C.944,13.556,0,15.926,0,17.5a6.527,6.527,0,0,0,5.529,6.442,12.009,12.009,0,0,0,23.979-.951,13.957,13.957,0,0,0-.948-4.467A6.524,6.524,0,0,0,35,12.008ZM2.051,17.5c0-.664.337-2.351,2.6-6.195C5.324,10.154,6.007,9.1,6.517,8.332c.7,1.043,1.712,2.631,2.6,4.269-2.048,3.881-3.236,6.988-3.547,9.265A4.474,4.474,0,0,1,2.051,17.5ZM17.5,32.949a9.969,9.969,0,0,1-9.958-9.958c0-1.75.927-5.413,5.342-12.922,1.79-3.044,3.6-5.759,4.615-7.247,1.016,1.486,2.819,4.194,4.608,7.235,4.422,7.517,5.35,11.183,5.35,12.934A9.969,9.969,0,0,1,17.5,32.949ZM28.483,16.475a4.491,4.491,0,0,1-.758-.064,65.522,65.522,0,0,0-3.242-6.346,41.768,41.768,0,0,1,4-7.224c.508.761,1.186,1.813,1.862,2.961,2.266,3.852,2.6,5.542,2.6,6.207A4.471,4.471,0,0,1,28.483,16.475Z" transform="translate(0 0)" fill="#dd6b7f"/>
  </g>
</svg>
