<svg xmlns="http://www.w3.org/2000/svg" width="12.891" height="20" viewBox="0 0 12.891 20">
  <g id="smartphone_6_" data-name="smartphone (6)" transform="translate(-91)">
    <path id="Tracé_36" data-name="Tracé 36" d="M102.133,20H92.758A1.76,1.76,0,0,1,91,18.242V1.758A1.76,1.76,0,0,1,92.758,0h9.375a1.76,1.76,0,0,1,1.758,1.758V18.242A1.76,1.76,0,0,1,102.133,20ZM92.758,1.172a.587.587,0,0,0-.586.586V18.242a.587.587,0,0,0,.586.586h9.375a.587.587,0,0,0,.586-.586V1.758a.587.587,0,0,0-.586-.586Z" transform="translate(0 0)"/>
    <path id="Tracé_37" data-name="Tracé 37" d="M213.93,61.172h-2.344a.586.586,0,0,1,0-1.172h2.344a.586.586,0,0,1,0,1.172Z" transform="translate(-115.313 -57.656)"/>
    <circle id="Ellipse_6" data-name="Ellipse 6" cx="1" cy="1" r="1" transform="translate(96 16)"/>
  </g>
</svg>
