<svg xmlns="http://www.w3.org/2000/svg" width="14.159" height="20" viewBox="0 0 14.159 20">
  <g id="smart-watch" transform="translate(0.001 0)">
    <path id="Tracé_35" data-name="Tracé 35" d="M13.553,8.266H12.329v-2.1a2.336,2.336,0,0,0-2.284-2.333V.6a.6.6,0,0,0-.6-.6H2.888a.6.6,0,0,0-.6.6V3.836A2.336,2.336,0,0,0,0,6.169V13.83a2.336,2.336,0,0,0,2.284,2.333v3.232a.6.6,0,0,0,.6.6H9.439a.6.6,0,0,0,.6-.6V16.163a2.336,2.336,0,0,0,2.284-2.333v-2.1h1.225a.6.6,0,0,0,.6-.6V8.871a.6.6,0,0,0-.6-.6ZM3.493,1.209H8.835V3.835H3.493ZM8.835,18.79H3.493V16.164H8.835Zm2.284-4.96a1.125,1.125,0,0,1-1.124,1.124H2.333A1.125,1.125,0,0,1,1.209,13.83V6.169A1.126,1.126,0,0,1,2.333,5.045H9.995a1.126,1.126,0,0,1,1.124,1.124Zm1.83-3.306h-.62V9.476h.62Zm0,0"/>
  </g>
</svg>
