<svg xmlns="http://www.w3.org/2000/svg" width="21.829" height="20" viewBox="0 0 21.829 20">
  <g id="filter" transform="translate(-64.267 -80.334)">
    <path id="Tracé_620" data-name="Tracé 620" d="M85.242,82.163H72.237a2.682,2.682,0,0,0-5.086,0h-2.03a.854.854,0,0,0,0,1.708h2.03a2.682,2.682,0,0,0,5.086,0H85.242a.854.854,0,1,0,0-1.708ZM69.694,83.992a.975.975,0,1,1,.975-.975A.976.976,0,0,1,69.694,83.992Z" transform="translate(0)" fill="#fff"/>
    <path id="Tracé_621" data-name="Tracé 621" d="M85.242,210.7h-2.03a2.682,2.682,0,0,0-5.086,0H65.121a.854.854,0,0,0,0,1.708H78.126a2.682,2.682,0,0,0,5.086,0h2.03a.854.854,0,1,0,0-1.708Zm-4.573,1.829a.975.975,0,1,1,.975-.975A.976.976,0,0,1,80.669,212.525Z" transform="translate(0 -121.216)" fill="#fff"/>
    <path id="Tracé_622" data-name="Tracé 622" d="M85.242,339.229H75.9a2.682,2.682,0,0,0-5.086,0H65.121a.854.854,0,0,0,0,1.708h5.689a2.682,2.682,0,0,0,5.086,0h9.347a.854.854,0,1,0,0-1.708Zm-11.89,1.829a.975.975,0,1,1,.975-.975A.976.976,0,0,1,73.352,341.058Z" transform="translate(0 -242.432)" fill="#fff"/>
  </g>
</svg>
