<svg xmlns="http://www.w3.org/2000/svg" width="21.332" height="20" viewBox="0 0 21.332 20">
  <g id="like" transform="translate(0 0)">
    <path id="Tracé_628" data-name="Tracé 628" d="M10.667,3.664l-.956-.983A5.008,5.008,0,0,0,1.867,4.07c-.7,1.364-.855,3.333.419,5.846,1.227,2.42,3.779,5.318,8.381,8.476,4.6-3.157,7.153-6.056,8.381-8.476,1.273-2.515,1.117-4.483.419-5.846A5.008,5.008,0,0,0,11.623,2.68Zm0,16.336C-9.777,6.491,4.372-4.053,10.432,1.524c.08.073.159.149.235.228q.113-.118.235-.227C16.96-4.056,31.11,6.489,10.667,20Z" transform="translate(0 0)" fill-rule="evenodd"/>
  </g>
</svg>
