<svg xmlns="http://www.w3.org/2000/svg" width="18.947" height="20" viewBox="0 0 18.947 20">
  <g id="bx-user" transform="translate(-4.5 -3)">
    <path id="Tracé_6" data-name="Tracé 6" d="M19.811,9.156A3.156,3.156,0,1,1,16.656,6,3.156,3.156,0,0,1,19.811,9.156Z" transform="translate(-2.682 -0.896)" fill="none"/>
    <path id="Tracé_7" data-name="Tracé 7" d="M13.974,3a5.263,5.263,0,1,0,5.263,5.263A5.269,5.269,0,0,0,13.974,3Zm0,8.421a3.158,3.158,0,1,1,3.158-3.158A3.162,3.162,0,0,1,13.974,11.421ZM23.447,23V21.947a7.378,7.378,0,0,0-7.368-7.368H11.868A7.377,7.377,0,0,0,4.5,21.947V23H6.605V21.947a5.269,5.269,0,0,1,5.263-5.263h4.211a5.269,5.269,0,0,1,5.263,5.263V23Z" transform="translate(0)"/>
  </g>
</svg>
