<svg xmlns="http://www.w3.org/2000/svg" width="13" height="12.97" viewBox="0 0 13 12.97">
  <path id="close" d="M8.19,4.147,9.1,5.06,7.4,6.735,9.1,8.409l-.913.913L6.485,7.648,4.81,9.323,3.9,8.409,5.571,6.735,3.9,5.06l.913-.913L6.485,5.821ZM6.5.25a6.263,6.263,0,0,1,4.6,1.9A6.246,6.246,0,0,1,13,6.735a6.246,6.246,0,0,1-1.9,4.582,6.263,6.263,0,0,1-4.6,1.9,6.263,6.263,0,0,1-4.6-1.9A6.247,6.247,0,0,1,0,6.735,6.244,6.244,0,0,1,1.9,2.153,6.265,6.265,0,0,1,6.5.25Zm0,11.691a5,5,0,0,0,3.669-1.522,5.018,5.018,0,0,0,1.522-3.684,5.018,5.018,0,0,0-1.522-3.684A5,5,0,0,0,6.5,1.529,5,5,0,0,0,2.831,3.051,5.018,5.018,0,0,0,1.309,6.735a5.018,5.018,0,0,0,1.522,3.684A5,5,0,0,0,6.5,11.941Z" transform="translate(0 -0.25)" fill="#dd6b7f"/>
</svg>
