<svg xmlns="http://www.w3.org/2000/svg" width="49" height="48.102" viewBox="0 0 49 48.102">
  <g id="hp" transform="translate(-158.667 -780.915)">
    <path id="Tracé_78" data-name="Tracé 78" d="M24.668,0c-.252,0-.75-.008-1,0-.206.007-.929-.191-1,0l-4,13c-.12.326-.352,1,0,1h4c2.579,0,3.883,1.607,3,4l-6,16c-.073.2.213,1,0,1h-5c-.352,0-.121-.674,0-1l6-17c.121-.326.352,0,0,0h-3c-.213,0-.927-.2-1,0l-6,17c-.073.2-.787,1-1,1h-4c-.352,0-.12-.674,0-1h0l12-32c.145-.393-.6-1.13-1-1a24.467,24.467,0,0,0-17,23c0,11.177,8.513,20.33,19,23,.254.065-.09.243,0,0h0l12-33h0c.073-.2.787,0,1,0h9c2.582,0,3.883,1.607,3,4l-5,14c-.411,1.113-1.8,3-3,3h-7c-.213,0,.073-.2,0,0l-5,12c-.12.325.65,1,1,1h0a24,24,0,0,0,0-48Z" transform="translate(158.999 781)" fill="#e4e4e4"/>
    <g id="Groupe_79" data-name="Groupe 79" transform="translate(159 781)">
      <path id="Tracé_79" data-name="Tracé 79" d="M205.393,143.825c2.579,0,3.883,2.574,3,5l-6,16c-.072.2.211,1,0,1h1c.213,0,.927-.8,1-1l6-16c.883-2.426-.421-5-3-5Z" transform="translate(-182.726 -130.825)" fill="#e4e4e4"/>
      <path id="Tracé_80" data-name="Tracé 80" d="M377.95,163.826l5-15c.883-2.426-.418-5-3-5h-2c2.582,0,3.883,2.574,3,5l-5,15a3.4,3.4,0,0,1-3,2h2A3.4,3.4,0,0,0,377.95,163.826Z" transform="translate(-337.283 -130.826)" fill="#e4e4e4"/>
      <path id="Tracé_81" data-name="Tracé 81" d="M109.394,195.307l6-17c.073-.2.787,0,1,0h-2c-.213,0-.927-.2-1,0l-6,17c-.073.2-.788,1-1,1h2C108.607,196.307,109.321,195.508,109.394,195.307Z" transform="translate(-96.727 -161.307)" fill="#e4e4e4"/>
      <path id="Tracé_82" data-name="Tracé 82" d="M252.473,380.775l5-12c.073-.2-.213-1,0-1h-2c-.213,0,.073.8,0,1l-5,12c-.12.329.65,1,1,1h0a8.5,8.5,0,0,0,1,0C252.263,381.661,252.383,381.022,252.473,380.775Z" transform="translate(-226.806 -333.775)" fill="#e4e4e4"/>
      <path id="Tracé_83" data-name="Tracé 83" d="M1.668,35.139c0-10.171,6.935-18.512,16-22-.011-.314-.663-1.108-1-1a24.471,24.471,0,0,0-17,23c0,11.17,8.513,20.332,19,23,.254.065-.09.243,0,0h0A24.309,24.309,0,0,1,1.668,35.139Z" transform="translate(-0.001 -11.139)" fill="#e4e4e4"/>
      <path id="Tracé_84" data-name="Tracé 84" d="M194.594,14h2c-.352,0-.12-.669,0-1l4-13c.059-.163.836.038,1,0-.368-.017-.628,0-1,0-.252,0-.75-.008-1,0-.206.007-.929-.194-1,0l-4,13C194.473,13.331,194.242,14,194.594,14Z" transform="translate(-175.927 0)" fill="#e4e4e4"/>
    </g>
    <path id="Tracé_85" data-name="Tracé 85" d="M320.022,178.149l-5,14c-.121.331.648,0,1,0h3c.213,0-.073.2,0,0l5-14c.121-.331.352,0,0,0h-3C320.809,178.149,320.095,177.949,320.022,178.149Z" transform="translate(-126.355 619.851)" fill="#e4e4e4"/>
    <path id="Tracé_86" data-name="Tracé 86" d="M317.022,192.149l5-14c.073-.2.787,0,1,0h-2c-.213,0-.927-.2-1,0l-5,14c-.121.331.648,0,1,0h2C317.67,192.149,316.9,192.48,317.022,192.149Z" transform="translate(-126.355 619.851)" fill="#e4e4e4"/>
  </g>
</svg>
