<svg xmlns="http://www.w3.org/2000/svg" width="140.364" height="23" viewBox="0 0 140.364 23">
  <g id="nokia" transform="translate(-563 -940)">
    <g id="nokia-2" data-name="nokia" transform="translate(563 940)">
      <g id="Groupe_99" data-name="Groupe 99">
        <path id="Tracé_157" data-name="Tracé 157" d="M24.658,231.067c-13.556-16.513-12.666-15.557-13-15.557H.486a.482.482,0,0,0-.486.478v21.293a.482.482,0,0,0,.486.478h5.9a.482.482,0,0,0,.486-.478V222.215a.487.487,0,0,1,.863-.3c13.735,16.717,12.909,15.845,13.251,15.845H31.911a.482.482,0,0,0,.486-.478V215.988a.482.482,0,0,0-.486-.478h-5.9a.482.482,0,0,0-.486.478v14.778A.487.487,0,0,1,24.658,231.067Z" transform="translate(0 -215.097)" fill="#e4e4e4"/>
        <path id="Tracé_158" data-name="Tracé 158" d="M135.528,214.09c-6.081,0-9.2,1.058-9.2,7.17,0,10.149-.366,11.7,1.526,13.76,2.354,2.475,5.744,1.994,19.412,1.994,6.1,0,9.193-1.068,9.193-7.174,0-10.441.318-11.757-1.518-13.761C152.573,213.609,149.121,214.09,135.528,214.09Zm14.455,14.858c0,1.3-.143,1.7-.505,2.008-.614.533-1.037.4-13.66.4-1.571,0-2.122-.087-2.509-.4-.633-.575-.494-1.026-.494-8.8,0-2.31.552-2.416,3-2.416,12.733,0,13.065-.13,13.66.414C150.131,220.7,149.983,221.112,149.983,228.948Z" transform="translate(-91.812 -214.052)" fill="#e4e4e4"/>
        <path id="Tracé_159" data-name="Tracé 159" d="M244.84,216.014v21.293a.482.482,0,0,0,.486.478h6.21a.482.482,0,0,0,.486-.478V216.014a.482.482,0,0,0-.486-.478h-6.21A.482.482,0,0,0,244.84,216.014Z" transform="translate(-177.77 -215.123)" fill="#e4e4e4"/>
        <path id="Tracé_160" data-name="Tracé 160" d="M291.539,215.5c-8.436,0-8.037-.068-8.252.121L271.7,225.8a.474.474,0,0,0,0,.713l12.56,11.12a.489.489,0,0,0,.325.122H293.2a.477.477,0,0,0,.311-.846l-12.957-10.632a.474.474,0,0,1,0-.736l11.289-9.189A.477.477,0,0,0,291.539,215.5Z" transform="translate(-197.292 -215.092)" fill="#e4e4e4"/>
        <path id="Tracé_161" data-name="Tracé 161" d="M359.486,237.786h6.223a.482.482,0,0,0,.486-.478V216.014a.482.482,0,0,0-.486-.478h-6.223a.482.482,0,0,0-.486.478v21.293A.482.482,0,0,0,359.486,237.786Z" transform="translate(-260.657 -215.123)" fill="#e4e4e4"/>
        <path id="Tracé_162" data-name="Tracé 162" d="M411.916,215.506c-9.049,0-8.6-.092-8.789.244l-12.174,21.293a.478.478,0,0,0,.423.713h6.8a.487.487,0,0,0,.428-.252l1.836-3.364a.487.487,0,0,1,.428-.252h13.313a.487.487,0,0,1,.427.251l1.848,3.366a.486.486,0,0,0,.427.251h7.2a.478.478,0,0,0,.423-.713l-12.17-21.293A.488.488,0,0,0,411.916,215.506Zm-8.455,12.843,3.644-6.585a.489.489,0,0,1,.853,0l3.637,6.585a.478.478,0,0,1-.426.707h-7.281A.479.479,0,0,1,403.46,228.349Z" transform="translate(-284.209 -215.094)" fill="#e4e4e4"/>
        <path id="Tracé_163" data-name="Tracé 163" d="M24.658,231.067c-13.556-16.513-12.666-15.557-13-15.557H.486a.482.482,0,0,0-.486.478v21.293a.482.482,0,0,0,.486.478h5.9a.482.482,0,0,0,.486-.478V222.215a.487.487,0,0,1,.863-.3c13.735,16.717,12.909,15.845,13.251,15.845H31.911a.482.482,0,0,0,.486-.478V215.988a.482.482,0,0,0-.486-.478h-5.9a.482.482,0,0,0-.486.478v14.778A.487.487,0,0,1,24.658,231.067Z" transform="translate(0 -215.097)" fill="#e4e4e4"/>
        <path id="Tracé_164" data-name="Tracé 164" d="M135.528,214.09c-6.081,0-9.2,1.058-9.2,7.17,0,10.149-.366,11.7,1.526,13.76,2.354,2.475,5.744,1.994,19.412,1.994,6.1,0,9.193-1.068,9.193-7.174,0-10.441.318-11.757-1.518-13.761C152.573,213.609,149.121,214.09,135.528,214.09Zm14.455,14.858c0,1.3-.143,1.7-.505,2.008-.614.533-1.037.4-13.66.4-1.571,0-2.122-.087-2.509-.4-.633-.575-.494-1.026-.494-8.8,0-2.31.552-2.416,3-2.416,12.733,0,13.065-.13,13.66.414C150.131,220.7,149.983,221.112,149.983,228.948Z" transform="translate(-91.812 -214.052)" fill="#e4e4e4"/>
      </g>
      <g id="Groupe_100" data-name="Groupe 100" transform="translate(34.502 0)">
        <path id="Tracé_165" data-name="Tracé 165" d="M201.319,235.157c.653.542.505.949.505,8.674,0,1.281-.143,1.676-.505,1.98s-.642.388-3.2.408c6.706.016,7.079.015,7.573-.408.362-.3.505-.7.505-1.98,0-7.725.147-8.132-.505-8.674-.48-.432-.79-.432-7.56-.417C200.72,234.76,200.976,234.848,201.319,235.157Z" transform="translate(-178.143 -228.984)" fill="#e4e4e4"/>
        <path id="Tracé_166" data-name="Tracé 166" d="M132.226,235.021c-1.892-2.061-1.526-3.611-1.526-13.76,0-6.113,3.116-7.17,9.2-7.17,2.552,0,4.746-.017,6.643-.028-2.671-.032-6.206.028-11.013.028-6.081,0-9.2,1.058-9.2,7.17,0,10.149-.366,11.7,1.526,13.76,1.913,2.011,4.509,2.071,12.747,2.022C135.71,236.986,133.749,236.622,132.226,235.021Z" transform="translate(-126.302 -214.054)" fill="#e4e4e4"/>
      </g>
      <path id="SVGCleanerId_0" d="M244.84,216.014v21.293a.482.482,0,0,0,.486.478h6.21a.482.482,0,0,0,.486-.478V216.014a.482.482,0,0,0-.486-.478h-6.21A.482.482,0,0,0,244.84,216.014Z" transform="translate(-177.77 -215.123)" fill="#e4e4e4"/>
      <path id="Tracé_167" data-name="Tracé 167" d="M291.539,215.5c-8.436,0-8.037-.068-8.252.121L271.7,225.8a.474.474,0,0,0,0,.713l12.56,11.12a.489.489,0,0,0,.325.122H293.2a.477.477,0,0,0,.311-.846l-12.957-10.632a.474.474,0,0,1,0-.736l11.289-9.189A.477.477,0,0,0,291.539,215.5Z" transform="translate(-197.292 -215.092)" fill="#e4e4e4"/>
      <path id="Tracé_168" data-name="Tracé 168" d="M276.878,226.512a.474.474,0,0,1,0-.713l11.591-10.173c.085-.074.076-.109.543-.123-5.823-.01-5.535-.044-5.726.123L271.7,225.8a.474.474,0,0,0,0,.713l12.56,11.12a.489.489,0,0,0,.325.122h5.184a.49.49,0,0,1-.325-.122Z" transform="translate(-197.252 -215.092)" fill="#e4e4e4"/>
      <path id="Tracé_169" data-name="Tracé 169" d="M359.486,237.786h6.223a.482.482,0,0,0,.486-.478V216.014a.482.482,0,0,0-.486-.478h-6.223a.482.482,0,0,0-.486.478v21.293A.482.482,0,0,0,359.486,237.786Z" transform="translate(-260.657 -215.123)" fill="#e4e4e4"/>
      <path id="Tracé_170" data-name="Tracé 170" d="M363.737,237.307V216.014a.482.482,0,0,1,.486-.478h-4.737a.482.482,0,0,0-.486.478v21.293a.482.482,0,0,0,.486.478h4.737A.482.482,0,0,1,363.737,237.307Z" transform="translate(-260.636 -215.123)" fill="#e4e4e4"/>
      <path id="Tracé_171" data-name="Tracé 171" d="M411.916,215.506c-9.049,0-8.6-.092-8.789.244l-12.174,21.293a.478.478,0,0,0,.423.713h6.8a.487.487,0,0,0,.428-.252l1.836-3.364a.487.487,0,0,1,.428-.252h13.313a.487.487,0,0,1,.427.251l1.848,3.366a.486.486,0,0,0,.427.251h7.2a.478.478,0,0,0,.423-.713l-12.17-21.293A.488.488,0,0,0,411.916,215.506Zm-8.455,12.843,3.644-6.585a.489.489,0,0,1,.853,0l3.637,6.585a.478.478,0,0,1-.426.707h-7.281A.479.479,0,0,1,403.46,228.349Z" transform="translate(-284.209 -215.094)" fill="#e4e4e4"/>
      <g id="Groupe_101" data-name="Groupe 101" transform="translate(0 0.401)">
        <path id="Tracé_172" data-name="Tracé 172" d="M395.966,237.042l12.174-21.293c.094-.165.036-.226,1.02-.246-6.193-.013-5.864-.051-6.034.246l-12.174,21.293a.479.479,0,0,0,.423.713h5.014A.479.479,0,0,1,395.966,237.042Z" transform="translate(-284.209 -215.494)" fill="#e4e4e4"/>
        <path id="Tracé_173" data-name="Tracé 173" d="M4.967,237.308V216.015a.482.482,0,0,1,.486-.478H.486a.482.482,0,0,0-.486.478v21.293a.482.482,0,0,0,.486.478H5.452A.482.482,0,0,1,4.967,237.308Z" transform="translate(0 -215.525)" fill="#e4e4e4"/>
      </g>
      <g id="Groupe_102" data-name="Groupe 102" transform="translate(67.07 0.413)">
        <path id="SVGCleanerId_0_1_" d="M244.84,216.014v21.293a.482.482,0,0,0,.486.478h6.21a.482.482,0,0,0,.486-.478V216.014a.482.482,0,0,0-.486-.478h-6.21A.482.482,0,0,0,244.84,216.014Z" transform="translate(-244.84 -215.536)" fill="#e4e4e4"/>
      </g>
      <path id="Tracé_174" data-name="Tracé 174" d="M249.451,237.306V216.013a.482.482,0,0,1,.486-.478h-4.611a.482.482,0,0,0-.486.478v21.293a.482.482,0,0,0,.486.478h4.611A.482.482,0,0,1,249.451,237.306Z" transform="translate(-177.754 -215.123)" fill="#e4e4e4"/>
    </g>
  </g>
</svg>
