<svg xmlns="http://www.w3.org/2000/svg" width="132" height="23.067" viewBox="0 0 132 23.067">
  <g id="oppo" transform="translate(-472 -892.992)">
    <g id="Groupe_86" data-name="Groupe 86" transform="translate(472 893)">
      <path id="Tracé_124" data-name="Tracé 124" d="M15,211.343c-8.345,0-15,3.353-15,8s6.655,9,15,9,15-4.343,15-9-6.663-8-15-8Zm-1,14c-2.855,0-11-1.107-11-6,0-3.418,5.381-6,11-6s10,2.582,10,6-4.381,6-10,6Z" transform="translate(0 -211.343)" fill="#e4e4e4"/>
      <path id="Tracé_125" data-name="Tracé 125" d="M145.479,211.343a19.469,19.469,0,0,0-6,1c-.095.027-1-.11-1,0v2c0,.161.863.049,1,0a14.442,14.442,0,0,1,5-1c5.619,0,10,2.568,10,6s-4.381,7-10,7a12.929,12.929,0,0,1-9-4c-.042-.046,0,.066,0,0v-10c0-.132.117,0,0,0h-5c-.117,0,0-.132,0,0v22c0,.132-.117,0,0,0h5c.117,0,0,.132,0,0v-8c0-.174-.141-.072,0,0a21.971,21.971,0,0,0,10,2c8.337,0,15-4.324,15-9s-6.663-8-15-8Z" transform="translate(-96.479 -211.343)" fill="#e4e4e4"/>
      <path id="Tracé_126" data-name="Tracé 126" d="M279.025,211.343a26.571,26.571,0,0,0-7,1c-.095.027,0-.11,0,0v2c0,.161-.137.049,0,0a14.442,14.442,0,0,1,5-1c5.619,0,10,2.568,10,6s-4.381,7-10,7a12.929,12.929,0,0,1-9-4c-.042-.046,0,.066,0,0v-10c0-.132.117,0,0,0h-5c-.117,0,0-.132,0,0v22c0,.132-.117,0,0,0h5c.117,0,0,.132,0,0v-8c0-.174-.141-.072,0,0,2.686,1.375,7.072,2,11,2,8.337,0,15-4.324,15-9s-6.663-8-15-8Z" transform="translate(-195.025 -211.343)" fill="#e4e4e4"/>
      <path id="Tracé_127" data-name="Tracé 127" d="M409.582,211.343c-8.344,0-15,3.353-15,8s6.655,9,15,9,15-4.343,15-9-6.663-8-15-8Zm-2,14c-2.855,0-10-1.107-10-6,0-3.418,4.381-6,10-6s10,2.582,10,6-4.381,6-10,6Z" transform="translate(-292.582 -211.343)" fill="#e4e4e4"/>
    </g>
    <g id="Groupe_87" data-name="Groupe 87" transform="translate(472 893)">
      <path id="Tracé_128" data-name="Tracé 128" d="M57.99,231.483a8.674,8.674,0,0,0,1,0c5.619,0,10-2.593,10-6s-4.381-6-10-6c-.425,0-.588-.031-1,0,5.026.375,9,2.841,9,6C66.99,228.611,62.967,231.08,57.99,231.483Z" transform="translate(-42.99 -217.483)" fill="#e4e4e4"/>
      <path id="Tracé_129" data-name="Tracé 129" d="M3,219.343c0-4.411,5.244-7.644,13-8-.414-.019-.577,0-1,0-8.344,0-15,3.353-15,8s6.656,9,15,9c.423,0,.586.019,1,0C8.244,227.987,3,223.764,3,219.343Z" transform="translate(0 -211.343)" fill="#e4e4e4"/>
      <path id="Tracé_130" data-name="Tracé 130" d="M190.5,231.483c.41.031.576,0,1,0,5.619,0,11-2.593,11-6s-5.381-6-11-6c-.424,0-.589-.031-1,0,5.024.376,9,2.841,9,6S195.526,231.105,190.5,231.483Z" transform="translate(-141.503 -217.483)" fill="#e4e4e4"/>
      <path id="Tracé_131" data-name="Tracé 131" d="M132.513,235.789v-22c0-.132-.117-1,0-1h-2a3.826,3.826,0,0,0-1,1v22c0,.132.883,0,1,0h2C132.4,235.789,132.513,235.921,132.513,235.789Z" transform="translate(-96.513 -212.789)" fill="#e4e4e4"/>
      <path id="Tracé_132" data-name="Tracé 132" d="M323.074,231.483c.41.031,1.576,0,2,0,5.619,0,10-2.593,10-6s-4.381-6-10-6c-.424,0-1.59-.031-2,0,5.024.376,9,2.841,9,6S328.1,231.105,323.074,231.483Z" transform="translate(-240.074 -217.483)" fill="#e4e4e4"/>
      <path id="Tracé_133" data-name="Tracé 133" d="M265.095,235.789v-22c0-.132-.117-1,0-1h-2c-.117,0,0,.868,0,1v22c0,.132-.117,0,0,0h2C264.978,235.789,265.095,235.921,265.095,235.789Z" transform="translate(-195.095 -212.789)" fill="#e4e4e4"/>
      <path id="Tracé_134" data-name="Tracé 134" d="M452.573,231.483a8.674,8.674,0,0,0,1,0c5.619,0,10-2.593,10-6s-4.381-6-10-6c-.425,0-1.588-.031-2,0,5.026.375,9,2.841,9,6C460.573,228.611,457.55,231.08,452.573,231.483Z" transform="translate(-335.573 -217.483)" fill="#e4e4e4"/>
      <path id="Tracé_135" data-name="Tracé 135" d="M396.582,219.343c0-4.411,6.244-7.644,14-8-.414-.019-.577,0-1,0-8.344,0-15,3.353-15,8s6.656,9,15,9c.423,0,.586.019,1,0C402.826,227.987,396.582,223.764,396.582,219.343Z" transform="translate(-292.582 -211.343)" fill="#e4e4e4"/>
    </g>
  </g>
</svg>
