<svg xmlns="http://www.w3.org/2000/svg" width="132.101" height="23.264" viewBox="0 0 132.101 23.264">
  <g id="sony" transform="translate(-444.949 -1006.976)">
    <g id="Groupe_89" data-name="Groupe 89" transform="translate(445 1007)">
      <path id="Tracé_145" data-name="Tracé 145" d="M410.786,214.681v2a4.221,4.221,0,0,0,1,1h0c.89,0,2-.322,2,0,0,.191-.762.684-1,1-.005.007.006-.006,0,0l-4,4a1.438,1.438,0,0,1-2,0c-.007-.007-3.994-3.993-4-4-.2-.255,0-.68,0-1,0-.387-.052,0,1,0h1c.114,0,0-.889,0-1v-2c0-.111.114,0,0,0h-14c-.114,0,0-.111,0,0v2c0,.111-.114,1,0,1,3.386.013,3.731-.452,5,1l7,9c.034.037,0-.05,0,0v4c0,1.1-.382,2-2,2h-2c-.114,0,0-.111,0,0v2c0,.111-.114,0,0,0h16c.114,0,0,.111,0,0v-2c0-.111.114,0,0,0h-3c-1.619,0-2-.9-2-2v-4c0-.051-.035.037,0,0,.008-.009,6.992-6.991,7-7,2.422-2.99,2.261-3,4-3h2c.114,0,0-.889,0-1v-2c0-.111.114,0,0,0h-11C411.673,214.681,410.786,214.569,410.786,214.681Z" transform="translate(-290.786 -213.681)" fill="#e4e4e4"/>
      <path id="Tracé_146" data-name="Tracé 146" d="M26,212.738h0c.114,0,1-.111,1,0v7a4.217,4.217,0,0,1-1,1H24a7.22,7.22,0,0,1-1-1c-.316-1.455-1.123-1.211-2-2-4.669-4.2-15-3.068-15,0,0,4.741,22,1.036,22,10,0,8.571-16.188,8.544-23,5-.755-.428-.847-.005-1,1-.021.141.145,0,0,0H0c-.114,0,0,.111,0,0v-7c0-.111-.114-1,0-1H3a3.892,3.892,0,0,1,1,1,5.655,5.655,0,0,0,2,3c3.913,3.189,16,2.794,16-1,0-1.612-2.316-2.129-8-3H9c-5.445-.806-9-2.744-9-7,0-4.418,5.07-7,13-7a18.062,18.062,0,0,1,9,2c.716.454.964.577,1-1,0-.107-.11,0,0,0Z" transform="translate(0 -211.738)" fill="#e4e4e4"/>
      <path id="Tracé_147" data-name="Tracé 147" d="M139.057,211.315c-9.978,0-17,4.035-17,11,0,.025,0-.024,0,0s0-.024,0,0c0,6.965,7.022,12,17,12,11.842,0,16-5.33,16-11C155.057,214.771,147.819,211.315,139.057,211.315Zm0,20c-5.317,0-8.963-3.285-9-9,.037-5.7,3.67-8,9-8,5.871,0,8.946,2.5,9,8C148,227.8,144.946,231.315,139.057,231.315Z" transform="translate(-91.057 -211.315)" fill="#e4e4e4"/>
      <path id="Tracé_148" data-name="Tracé 148" d="M285.54,215.148h-12c-.114,0,0-.111,0,0v2c0,.111-.114,1,0,1h2c1.713,0,2-.127,2,1v8c0,.176-.869.12-1,0l-13-12c-.038-.035.052,0,0,0h-11c-.114,0-1-.111-1,0v2a4.221,4.221,0,0,0,1,1h2c1.712,0,2-.127,2,1v13c0,1.1-.288,2-2,2h-2c-.114,0-1-.111-1,0v2c0,.111.886,0,1,0h12c.114,0,1,.111,1,0v-2c0-.111-.886,0-1,0h-2c-1.711,0-2-.9-2-2v-10c0-.177-.131-.122,0,0l16,14c.038.035-.052,0,0,0h5c.114,0,0,.112,0,0v-17c0-1.127,1.287-1,3-1h1c.114,0,0-.889,0-1v-2C285.54,215.037,285.653,215.148,285.54,215.148Z" transform="translate(-187.54 -214.148)" fill="#e4e4e4"/>
    </g>
    <g id="Groupe_90" data-name="Groupe 90" transform="translate(445 1007)">
      <path id="Tracé_149" data-name="Tracé 149" d="M53.682,276.922c5.186-.054,7-1.257,7-3,0-1.62-1.223-2.185-6-3,1.435.439,2,1.093,2,2,0,2.965-7.087,3.382-10,3A18.45,18.45,0,0,0,53.682,276.922Z" transform="translate(-34.683 -255.922)" fill="#e4e4e4"/>
      <path id="Tracé_150" data-name="Tracé 150" d="M65.109,226.157a5.277,5.277,0,0,1,2,3,4.554,4.554,0,0,0,1,0h2c.114,0,1,.114,1,0v-2c-.341-.363-.636-.645-1-1a12.8,12.8,0,0,0-8-3c-.621,0-1.421-.064-2,0A10.534,10.534,0,0,1,65.109,226.157Z" transform="translate(-44.109 -220.157)" fill="#e4e4e4"/>
      <path id="Tracé_151" data-name="Tracé 151" d="M4.239,268.867c-.252-.385.238-1.354,0-2-.054-.146-.845,0-1,0h-3c-.114,0,0-.114,0,0v8c0,.114-.114,0,0,0h4c.145,0-.021.143,0,0,.1-.7-.323-.846,0-1Z" transform="translate(-0.239 -252.868)" fill="#e4e4e4"/>
      <path id="Tracé_152" data-name="Tracé 152" d="M9,225.738h2c-3.717-.929-7-2.369-7-6,0-4.331,4.319-7.5,11-8-.705-.053-1.244,0-2,0-7.93,0-13,2.491-13,7C0,223.082,3.555,224.916,9,225.738Z" transform="translate(0 -211.738)" fill="#e4e4e4"/>
      <path id="Tracé_153" data-name="Tracé 153" d="M192.588,239.355a27.179,27.179,0,0,0,3,0c5.871,0,8.946-3.537,9-9-.054-5.446-3.111-8-9-8a27.179,27.179,0,0,0-3,0c4.661.743,6.955,3.506,7,8C199.544,234.82,197.275,238.608,192.588,239.355Z" transform="translate(-143.588 -219.355)" fill="#e4e4e4"/>
      <path id="Tracé_154" data-name="Tracé 154" d="M127.062,222.315c0-.025,0,.024,0,0s0,.025,0,0c0-6.457,5.261-10.416,14-11-.714-.045-1.239,0-2,0-9.978,0-17,4.035-17,11,0,.025,0-.024,0,0s0-.024,0,0c0,6.965,7.022,12,17,12,.761,0,1.286.045,2,0C132.322,233.731,127.062,228.772,127.062,222.315Z" transform="translate(-91.061 -211.315)" fill="#e4e4e4"/>
      <path id="Tracé_155" data-name="Tracé 155" d="M260.376,235.149v-19c0-.5.185-.685,0-1h-8c-.114,0,0-.111,0,0v2c0,.111-.114,1,0,1h2c1.712,0,2-.127,2,1v13c0,1.1-.288,2-2,2h-2c-.114,0,0-.111,0,0v2c0,.111-.114,0,0,0h8C260.551,235.839,260.376,235.624,260.376,235.149Z" transform="translate(-187.377 -214.149)" fill="#e4e4e4"/>
      <path id="Tracé_156" data-name="Tracé 156" d="M407.787,227.681l-9-10-4-3h-4c-.114,0,0-.111,0,0v2c0,.111-.114,1,0,1,3.386.013,3.731-.452,5,1l7,9c.034.037,0-.05,0,0v4c0,1.1-.382,2-2,2h-2c-.114,0,0-.111,0,0v2c0,.111-.114,0,0,0h9c0-.059,0,.063,0,0v-8C407.787,227.631,407.821,227.718,407.787,227.681Z" transform="translate(-290.787 -213.681)" fill="#e4e4e4"/>
    </g>
  </g>
</svg>
