<svg xmlns="http://www.w3.org/2000/svg" xmlns:xlink="http://www.w3.org/1999/xlink" width="56.395" height="50.15" viewBox="0 0 56.395 50.15">
  <defs>
    <linearGradient id="linear-gradient" x1="-0.018" y1="0.219" x2="0.91" y2="0.774" gradientUnits="objectBoundingBox">
      <stop offset="0" stop-color="#c6d1ff"/>
      <stop offset="0.583" stop-color="#e6d5f4"/>
      <stop offset="0.997" stop-color="#ffd9ec"/>
    </linearGradient>
  </defs>
  <g id="create" transform="translate(-747 -1611)">
    <path id="Tracé_2311" data-name="Tracé 2311" d="M51.775,70.658c-7.184-5.523-14.151-1.022-21.923-2.613-7.828-1.6-10.947-6.94-19.863-4.477C2.091,65.75-2.7,74.5,1.64,81.826c1.237,2.087,3.345,3.662,4.206,6,1.389,3.768-.726,6.661-.313,10.363,1.714,15.385,25.21,9.426,33.856,4.639C52.948,95.319,62.121,78.612,51.775,70.658Z" transform="translate(747 1553.072)" opacity="0.3" fill="url(#linear-gradient)"/>
    <g id="user" transform="translate(754.899 1611)">
      <g id="Groupe_227" data-name="Groupe 227" transform="translate(1.185 1.083)">
        <path id="Tracé_436" data-name="Tracé 436" d="M272.85,245.958v-6.506l8.338-4.565-2.6-1.388-9.087,4.977v6.506a13,13,0,0,0,7.8,11.906l1.258.553.694-.3a13,13,0,0,1-6.4-11.179Zm0,0" transform="translate(-241.373 -209.598)" fill="#d4e1f4"/>
        <path id="Tracé_437" data-name="Tracé 437" d="M79.118,22.538A10.377,10.377,0,0,1,89.495,12.162c.336,0,.661.022.986.043a10.379,10.379,0,1,0-7.395,18.5,10.38,10.38,0,0,1-3.968-8.165Zm0,0" transform="translate(-66.8 -9.992)" fill="#d4e1f4"/>
        <path id="Tracé_438" data-name="Tracé 438" d="M32.785,247.366a17.552,17.552,0,0,1,3.643.38,17.108,17.108,0,0,0-9.065-2.548c-9.552.022-17.284,7.644-17.262,18.021l5.53-.011a17.257,17.257,0,0,1,17.154-15.842Zm0,0" transform="translate(-10.102 -220.027)" fill="#d4e1f4"/>
      </g>
      <path id="Tracé_439" data-name="Tracé 439" d="M75.164,22.922A11.461,11.461,0,1,0,63.7,11.461,11.461,11.461,0,0,0,75.164,22.922Zm0-20.753a9.292,9.292,0,1,1-9.292,9.292A9.292,9.292,0,0,1,75.164,2.169Zm0,0" transform="translate(-56.706)" fill="#3257a8"/>
      <path id="Tracé_440" data-name="Tracé 440" d="M2.3,253.123a17.01,17.01,0,0,1,4.706-11.049,15.812,15.812,0,0,1,11.439-4.793h.033a15.928,15.928,0,0,1,9.976,3.437c.163.13.325.271.488.4l1.41-1.637c-.184-.163-.368-.314-.553-.466A18.031,18.031,0,0,0,18.447,235.1a17.994,17.994,0,0,0-12.99,5.454A19.307,19.307,0,0,0,.1,254.218,1.087,1.087,0,0,0,1.185,255.3l30.469-.054v-2.169Zm0,0" transform="translate(0 -209.943)" fill="#3257a8"/>
      <path id="Tracé_441" data-name="Tracé 441" d="M316.977,313.2l-4.9,3.99-1.768-2.071a1.084,1.084,0,0,0-1.648,1.41l2.461,2.873a1.092,1.092,0,0,0,.824.379,1.071,1.071,0,0,0,.683-.238l5.725-4.651a1.091,1.091,0,0,0-1.377-1.692Zm0,0" transform="translate(-275.193 -279.285)" fill="#ee95a8"/>
      <path id="Tracé_442" data-name="Tracé 442" d="M279.43,228.518l-9.347-4.977a1.055,1.055,0,0,0-1.03.011l-9.087,4.977a1.089,1.089,0,0,0-.564.954v6.506a14.086,14.086,0,0,0,8.447,12.893l1.258.553a1,1,0,0,0,.434.087,1.227,1.227,0,0,0,.434-.087l1.42-.618A14.041,14.041,0,0,0,280,235.858v-6.376a1.1,1.1,0,0,0-.575-.965Zm-1.594,7.341a11.875,11.875,0,0,1-7.3,10.962h-.011l-.986.423-.824-.358a11.916,11.916,0,0,1-7.145-10.908v-5.866l8.013-4.391,8.252,4.4Zm0,0" transform="translate(-231.508 -199.521)" fill="#dd6b7f"/>
    </g>
  </g>
</svg>
