<svg xmlns="http://www.w3.org/2000/svg" width="18.844" height="17" viewBox="0 0 18.844 17">
  <path id="like" d="M11.425,20.567a.589.589,0,0,1-.359-.124,35.8,35.8,0,0,1-7.109-6.9C1.942,10.784,1.483,8.233,2.59,5.966A4.8,4.8,0,0,1,8.3,3.792a5.813,5.813,0,0,1,3.128,2.22,5.813,5.813,0,0,1,3.128-2.22A4.812,4.812,0,0,1,20.26,5.966c1.107,2.268.648,4.818-1.366,7.58a35.8,35.8,0,0,1-7.109,6.9A.589.589,0,0,1,11.425,20.567ZM6.789,4.753A3.475,3.475,0,0,0,3.65,6.478c-.913,1.873-.5,3.958,1.26,6.367a33.649,33.649,0,0,0,6.514,6.385,33.649,33.649,0,0,0,6.514-6.379c1.767-2.415,2.173-4.5,1.26-6.367a3.716,3.716,0,0,0-4.323-1.561A4.712,4.712,0,0,0,11.967,7.4a.589.589,0,0,1-1.09,0,4.671,4.671,0,0,0-2.91-2.474,4.305,4.305,0,0,0-1.178-.171Z" transform="translate(-2.003 -3.567)" fill="#fff"/>
</svg>
