<svg xmlns="http://www.w3.org/2000/svg" xmlns:xlink="http://www.w3.org/1999/xlink" width="632.955" height="190.54" viewBox="0 0 632.955 190.54">
  <defs>
    <linearGradient id="linear-gradient" x1="0.079" y1="0.985" x2="0.78" y2="0.177" gradientUnits="objectBoundingBox">
      <stop offset="0" stop-color="#ba7b8d"/>
      <stop offset="1" stop-color="#ffb5ca"/>
    </linearGradient>
    <linearGradient id="linear-gradient-2" x1="0.304" y1="0.688" x2="0.734" y2="0.276" gradientUnits="objectBoundingBox">
      <stop offset="0" stop-color="#9e6978"/>
      <stop offset="1" stop-color="#d496a8"/>
    </linearGradient>
    <linearGradient id="linear-gradient-3" x1="0.012" y1="1.246" x2="0.745" y2="0.125" gradientUnits="objectBoundingBox">
      <stop offset="0" stop-color="#cc879b"/>
      <stop offset="0.043" stop-color="#cf8a9e"/>
      <stop offset="0.411" stop-color="#e9a1b6"/>
      <stop offset="0.741" stop-color="#f9afc4"/>
      <stop offset="1" stop-color="#ffb5ca"/>
    </linearGradient>
    <clipPath id="clip-path">
      <path id="Tracé_281" data-name="Tracé 281" d="M446.074,309.182l-51.321-24.493-52.2,39.6,51.321,24.493L409.466,406.2l52.192-39.6Zm-16.009,56.971a9.075,9.075,0,0,1-3.24,1.622c-3.084.773-5.808-.768-6.752-4.24-1.268-4.679,1.151-11.081,5.4-14.3a9.049,9.049,0,0,1,3.242-1.625c3.078-.771,5.8.764,6.75,4.243C436.735,356.527,434.316,362.929,430.064,366.153Z" transform="translate(-342.551 -284.689)" fill="none"/>
    </clipPath>
    <linearGradient id="linear-gradient-4" x1="0.54" y1="0.473" x2="0.974" y2="0.343" gradientUnits="objectBoundingBox">
      <stop offset="0" stop-color="#06756d"/>
      <stop offset="0.27" stop-color="#08776f"/>
      <stop offset="0.463" stop-color="#0e8178"/>
      <stop offset="0.631" stop-color="#1a9088"/>
      <stop offset="0.786" stop-color="#2aa69d"/>
      <stop offset="0.93" stop-color="#3fc3b9"/>
      <stop offset="1" stop-color="#4cd4ca"/>
    </linearGradient>
    <linearGradient id="linear-gradient-5" x1="-0.082" y1="1.158" x2="0.936" y2="0.007" gradientUnits="objectBoundingBox">
      <stop offset="0" stop-color="#08998f"/>
      <stop offset="0.209" stop-color="#15a89e"/>
      <stop offset="0.616" stop-color="#37d2c7"/>
      <stop offset="1" stop-color="#5cfff3"/>
    </linearGradient>
    <clipPath id="clip-path-2">
      <path id="Tracé_286" data-name="Tracé 286" d="M504.237,312.865l-19.36,4.452-21.941,28.967,19.358-4.453,23.849,46.827,21.942-28.965Zm2.9,45.93c-1.69.456-3.738-.927-5.184-3.76-1.935-3.82-2.064-8.821-.28-11.166a2.959,2.959,0,0,1,1.576-1.132c1.688-.456,3.732.922,5.179,3.764,1.94,3.8,2.061,8.807.28,11.166A2.932,2.932,0,0,1,507.139,358.8Z" transform="translate(-462.937 -312.865)" fill="none"/>
    </clipPath>
    <linearGradient id="linear-gradient-6" x1="0.322" y1="0.896" x2="0.691" y2="0.076" gradientUnits="objectBoundingBox">
      <stop offset="0" stop-color="#06756d"/>
      <stop offset="0.286" stop-color="#08776f"/>
      <stop offset="0.476" stop-color="#0e8078"/>
      <stop offset="0.639" stop-color="#198f87"/>
      <stop offset="0.786" stop-color="#29a59b"/>
      <stop offset="0.921" stop-color="#3dc0b6"/>
      <stop offset="1" stop-color="#4cd4ca"/>
    </linearGradient>
    <linearGradient id="linear-gradient-7" x1="-0.006" y1="1.545" x2="1.077" y2="-0.691" gradientUnits="objectBoundingBox">
      <stop offset="0" stop-color="#0ac6b8"/>
      <stop offset="0.124" stop-color="#22cfc2"/>
      <stop offset="0.416" stop-color="#56e3d9"/>
      <stop offset="0.669" stop-color="#7cf2ea"/>
      <stop offset="0.873" stop-color="#93fbf4"/>
      <stop offset="1" stop-color="#9cfff8"/>
    </linearGradient>
    <linearGradient id="linear-gradient-8" x1="0.775" y1="0.567" x2="1.021" y2="0.618" gradientUnits="objectBoundingBox">
      <stop offset="0" stop-color="#000d94"/>
      <stop offset="1" stop-color="#2b37cc"/>
    </linearGradient>
    <linearGradient id="linear-gradient-9" x1="0.333" y1="1.176" x2="0.595" y2="0.118" gradientUnits="objectBoundingBox">
      <stop offset="0" stop-color="#1f2dcb"/>
      <stop offset="0.256" stop-color="#313ece"/>
      <stop offset="0.772" stop-color="#626cd9"/>
      <stop offset="1" stop-color="#7a82de"/>
    </linearGradient>
    <linearGradient id="linear-gradient-10" x1="0.189" y1="1.255" x2="0.728" y2="-0.055" xlink:href="#linear-gradient-8"/>
    <linearGradient id="linear-gradient-11" x1="0.264" y1="1.583" x2="0.804" y2="-0.896" gradientUnits="objectBoundingBox">
      <stop offset="0" stop-color="#3541cb"/>
      <stop offset="0.063" stop-color="#434ed1"/>
      <stop offset="0.258" stop-color="#6872e1"/>
      <stop offset="0.451" stop-color="#868fee"/>
      <stop offset="0.641" stop-color="#9ba3f7"/>
      <stop offset="0.826" stop-color="#a8affd"/>
      <stop offset="1" stop-color="#adb4ff"/>
    </linearGradient>
    <clipPath id="clip-path-3">
      <path id="Tracé_294" data-name="Tracé 294" d="M642.19,292.739l25.733,61.529-40.389,40.477L601.8,333.216Zm-3.532,60.067c3.289-3.293,4.249-10.022,2.154-15.033-1.559-3.723-4.376-5.445-7.073-4.72a6.029,6.029,0,0,0-2.672,1.625c-3.279,3.291-4.249,10.022-2.154,15.033,1.559,3.732,4.372,5.447,7.067,4.723a6.043,6.043,0,0,0,2.679-1.629" transform="translate(-601.801 -292.739)" fill="none"/>
    </clipPath>
    <clipPath id="clip-path-4">
      <path id="Tracé_296" data-name="Tracé 296" d="M625.55,333.606l-57.939-.952L608,292.177l57.939.952Z" transform="translate(-567.611 -292.177)" fill="none"/>
    </clipPath>
    <linearGradient id="linear-gradient-12" x1="2.25" y1="-3.386" x2="3.049" y2="-1.852" gradientUnits="objectBoundingBox">
      <stop offset="0" stop-color="#242fb0"/>
      <stop offset="0.115" stop-color="#2934b2" stop-opacity="0.965"/>
      <stop offset="0.276" stop-color="#3742ba" stop-opacity="0.863"/>
      <stop offset="0.463" stop-color="#4f59c8" stop-opacity="0.694"/>
      <stop offset="0.67" stop-color="#7179da" stop-opacity="0.459"/>
      <stop offset="0.892" stop-color="#9ba2f2" stop-opacity="0.161"/>
      <stop offset="1" stop-color="#b3b9ff" stop-opacity="0"/>
    </linearGradient>
    <radialGradient id="radial-gradient" cx="0.5" cy="0.5" r="0.5" gradientTransform="matrix(0.98, -0.201, 0.201, 0.98, -0.103, 0.025)" gradientUnits="objectBoundingBox">
      <stop offset="0" stop-color="#ad7384"/>
      <stop offset="0.368" stop-color="#bc8091"/>
      <stop offset="1" stop-color="#e09fb2"/>
    </radialGradient>
    <clipPath id="clip-path-5">
      <path id="Tracé_302" data-name="Tracé 302" d="M580.95,306.656c-.071-.114-.141-.227-.207-.337a16.419,16.419,0,0,1-1.666-3.788h0a14.713,14.713,0,0,1-.612-2.976c-.036-.3-.063-.641-.08-.979,0-.083-.007-.164-.01-.246,0-.032,0-.064,0-.095,0-.093-.005-.185-.005-.274q-.013-.712.034-1.371c.008-.142.019-.286.031-.429l.005-.053c.01-.1.02-.2.032-.3a14.765,14.765,0,0,1,.417-2.242c.034-.129.07-.258.107-.385.015-.058.031-.112.046-.166s.031-.105.046-.156l.022-.069.024-.075c.014-.046.029-.093.044-.139a16.781,16.781,0,0,1,.793-2l.02-.044-.008.02.073-.156c.1-.214.227-.451.361-.69.069-.132.141-.263.2-.376.176-.305.422-.707.624-1l.007-.008c.095-.141.192-.28.288-.414l0,0,.008-.012c.058-.08.115-.159.169-.23.076-.1.151-.195.225-.29q.338-.44.732-.88l.008-.008c.207-.231.424-.461.659-.691a16.091,16.091,0,0,1,3.967-2.9,15.533,15.533,0,0,1,2.71-1.132l.115-.036h0l.005,0,.01,0c.278-.086.559-.168.869-.246.205-.054.444-.107.651-.149l.012,0,.063-.014h0c.337-.068.488-.1.744-.134l.085-.014h0c.28-.046.476-.071.73-.095.161-.019.324-.034.488-.047l.029,0c.209-.017.42-.029.632-.037h.024c.185-.007.371-.012.557-.012.132,0,.261,0,.388,0l.147,0a15.524,15.524,0,0,1,2.967.354l.144.032,0,0c.295.064.569.131.786.192l.222.063.019.005.019.005c.364.105.815.244,1.391.468a16.146,16.146,0,0,1,6.836,4.911c.053.063.105.127.158.192l.019.025c.278.342.547.7.756,1.02l.041.061c.168.253.346.534.518.825.031.046.059.092.088.136l.08.151c.059.1.115.2.171.3.136.244.261.483.364.7.095.2.181.39.264.578l.029.066c.027.066.056.132.083.2.047.108.09.212.127.312l.008.02.01.025a16.167,16.167,0,0,1,1.022,8.241c-.008.073-.019.144-.029.215l-.014.095c-.015.105-.032.2-.049.3a16.48,16.48,0,0,1-2.235,5.994,15.53,15.53,0,0,1-6.929,6.3l-.007,0-.073.034c-.124.059-.249.119-.383.178l-.151.068-.2.088h0l-.005,0h0l-.234.1-.01,0c-.31.127-.515.2-.53.205h0c-.268.1-.437.159-.732.247l-.049.017h0l0,0-.063.017-.064.019c-.115.036-.237.071-.366.108l-.058.017-.217.058-.019.005-.007,0c-.217.061-.5.124-.737.171l-.012,0-.068.014-.122.024-.032.007c-.244.049-.388.075-.615.107l-.063.01-.012,0q-.234.036-.478.066c-.064.008-.129.014-.193.02l-.224.025c-.078.008-.164.015-.252.022-.325.027-.641.042-.946.051h-.024a15.926,15.926,0,0,1-3.832-.354l-.146-.034c-.205-.047-.4-.1-.607-.147l-.18-.044c-.237-.059-.622-.175-1.052-.322a15.605,15.605,0,0,1-2.335-1.005c-.112-.059-.222-.119-.324-.176-.078-.042-.163-.09-.249-.139a15.484,15.484,0,0,1-3.667-2.849c-.069-.073-.137-.146-.2-.215l-.03-.036a16.109,16.109,0,0,1-1.891-2.442Z" transform="translate(-578.364 -280.972)" fill="none"/>
    </clipPath>
    <linearGradient id="linear-gradient-13" x1="107.405" y1="79.024" x2="107.712" y2="79.936" gradientUnits="objectBoundingBox">
      <stop offset="0.005" stop-color="#f1f1f1"/>
      <stop offset="1" stop-color="#fff" stop-opacity="0"/>
    </linearGradient>
    <linearGradient id="linear-gradient-14" x1="0.69" y1="0.06" x2="0.147" y2="1.318" gradientUnits="objectBoundingBox">
      <stop offset="0" stop-color="#2e1e23"/>
      <stop offset="1" stop-color="#d496a8" stop-opacity="0"/>
    </linearGradient>
    <radialGradient id="radial-gradient-2" cx="0.5" cy="0.5" r="0.5" gradientTransform="matrix(0.161, 0.987, -0.987, 0.161, 0.913, -0.074)" gradientUnits="objectBoundingBox">
      <stop offset="0" stop-color="#1f2dcb"/>
      <stop offset="0.225" stop-color="#2735cd"/>
      <stop offset="0.589" stop-color="#3f4bd4"/>
      <stop offset="1" stop-color="#626bde"/>
    </radialGradient>
    <clipPath id="clip-path-6">
      <path id="Tracé_306" data-name="Tracé 306" d="M362.6,302.415c-.058-.151-.11-.3-.163-.447a19.739,19.739,0,0,1-1.049-4.869h0a17.669,17.669,0,0,1,0-3.657c.031-.366.081-.773.142-1.174.015-.1.031-.2.047-.295.005-.037.014-.075.02-.112.019-.11.037-.219.058-.324.105-.563.231-1.1.373-1.608.044-.168.091-.334.139-.5l.02-.061c.036-.119.071-.234.108-.347a18.063,18.063,0,0,1,1.034-2.542c.071-.144.146-.288.219-.43.032-.063.064-.122.1-.183s.059-.115.091-.173l.042-.076.044-.083c.027-.049.059-.1.088-.153a19.784,19.784,0,0,1,1.418-2.171l.034-.047-.015.022c.042-.056.085-.114.125-.166.168-.227.376-.478.591-.727.115-.139.229-.276.334-.393.281-.317.668-.73.976-1.024l.008-.008c.147-.144.3-.285.441-.419l.005-.005.014-.012c.086-.08.175-.159.254-.229.115-.1.225-.195.336-.288.337-.291.7-.58,1.078-.861l.01-.008c.3-.222.613-.441.946-.654a19.326,19.326,0,0,1,5.381-2.462,18.612,18.612,0,0,1,3.469-.678l.146-.017h.005l.014,0c.349-.034.7-.061,1.085-.078.254-.015.549-.019.8-.019h.1c.414,0,.6,0,.91.02l.1.005h0c.341.015.581.032.886.064.195.019.39.039.585.064l.036,0c.251.032.5.068.756.11l.027.005c.22.036.441.076.661.12.156.032.307.064.456.1l.173.039a18.775,18.775,0,0,1,3.415,1.135c.076.034.132.059.163.075h0c.332.147.639.293.88.417l.247.127.022.01.019.012c.405.21.9.483,1.529.886a19.446,19.446,0,0,1,6.875,7.446c.047.088.093.175.141.264l.017.034c.244.471.474.963.644,1.386l.032.083c.139.337.28.712.413,1.1l.07.181.059.2c.044.134.086.268.129.4.1.319.19.63.259.915.064.254.12.5.171.746l.019.085c.017.085.036.169.051.253.029.139.054.271.075.4l.005.027.007.034a19.484,19.484,0,0,1-.788,9.966c-.027.083-.056.164-.086.246l-.037.108c-.044.12-.088.232-.132.341a19.812,19.812,0,0,1-4.086,6.528,18.689,18.689,0,0,1-9.693,5.755l-.01,0-.093.024c-.161.041-.324.08-.495.117l-.195.042c-.09.02-.178.037-.261.054h0l-.007,0h0c-.105.022-.205.042-.3.059l-.012,0c-.4.075-.656.11-.676.114h0c-.339.054-.554.083-.924.115l-.063.007h0l0,0h0l-.08.005-.078.007c-.146.014-.3.027-.459.037l-.071.007-.271.015-.022,0h-.008c-.271.02-.624.025-.912.025h-.286c-.3,0-.476-.007-.752-.024l-.076,0H380.4c-.188-.01-.381-.022-.578-.039-.08-.005-.156-.014-.232-.02s-.18-.017-.271-.027-.2-.019-.3-.034c-.391-.046-.766-.105-1.127-.169l-.027-.005a19.111,19.111,0,0,1-4.435-1.346c-.078-.032-.132-.058-.163-.073-.231-.107-.454-.212-.681-.322l-.2-.095c-.264-.127-.691-.356-1.163-.634a18.915,18.915,0,0,1-2.512-1.749c-.119-.1-.234-.193-.339-.286-.083-.069-.169-.146-.259-.225a18.53,18.53,0,0,1-3.637-4.245c-.064-.1-.127-.205-.185-.3l-.027-.047a19.56,19.56,0,0,1-1.64-3.338Z" transform="translate(-361.291 -275.136)" fill="none"/>
    </clipPath>
    <linearGradient id="linear-gradient-15" x1="136.801" y1="63.228" x2="137.141" y2="64.068" xlink:href="#linear-gradient-13"/>
  </defs>
  <g id="pic" transform="translate(-299.221 -229.999)">
    <path id="Tracé_275" data-name="Tracé 275" d="M380.618,326.938a184.865,184.865,0,0,1-35.332-35.084" transform="translate(1.92 12.835)" fill="none" stroke="#707070" stroke-linecap="round" stroke-miterlimit="10" stroke-width="5"/>
    <g id="Groupe_150" data-name="Groupe 150" transform="translate(342.521 292.546)">
      <path id="Tracé_276" data-name="Tracé 276" d="M423.759,339.654a11.93,11.93,0,0,0,.005-1.23c0-.21.019-.429,0-.635a9.691,9.691,0,0,0-.3-1.808,5.871,5.871,0,0,0-3.013-3.952l-51.323-24.493a5.876,5.876,0,0,1,3.015,3.952,9.839,9.839,0,0,1,.3,1.807c.015.214-.007.436,0,.651a11.731,11.731,0,0,1-.012,1.268c0,.051-.015.1-.02.151a13.81,13.81,0,0,1-.275,1.7c-.019.088-.036.178-.058.266a15.506,15.506,0,0,1-.537,1.757c-.02.054-.037.11-.059.164a16.363,16.363,0,0,1-.819,1.81l-.017.034a15.789,15.789,0,0,1-1.078,1.742c-.019.025-.037.047-.056.071a14.414,14.414,0,0,1-1.069,1.3c-.112.122-.22.246-.336.363a12.746,12.746,0,0,1-1.368,1.225,10.623,10.623,0,0,1-1.252.808c-.071.039-.142.083-.214.119a8.121,8.121,0,0,1-1.19.512c-.2.068-.391.136-.586.183a6.517,6.517,0,0,1-.841.144c-.124.015-.247.022-.369.029a5.721,5.721,0,0,1-.59.005c-.09-.005-.18-.008-.269-.017a5.333,5.333,0,0,1-.808-.136l-.041-.014a4.963,4.963,0,0,1-.822-.3l51.321,24.491c.091.044.183.085.276.122a5.084,5.084,0,0,0,.549.181l.039.012.01,0a5.086,5.086,0,0,0,.647.125c.049.007.1,0,.151.008.088.008.178.012.268.015s.2.02.308.019.19-.017.283-.022c.122-.007.244-.015.368-.029.069-.008.136-.005.2-.017a6.364,6.364,0,0,0,.639-.127c.161-.041.324-.086.486-.141.034-.01.066-.031.1-.042a8.4,8.4,0,0,0,1.188-.512c.071-.037.142-.08.214-.119a10.354,10.354,0,0,0,1.252-.808,12.814,12.814,0,0,0,1.156-.995c.075-.073.139-.156.212-.23.115-.117.224-.241.336-.363.147-.161.3-.31.442-.48.22-.264.429-.541.63-.822l.053-.066.024-.032c.2-.278.385-.561.563-.852q.252-.409.481-.837l.01-.022.017-.034q.206-.386.39-.783c.132-.283.254-.569.369-.859.022-.056.039-.112.059-.168s.041-.112.061-.168c.069-.186.142-.373.2-.563.105-.319.2-.641.283-.963.019-.076.032-.154.051-.23s.037-.175.058-.264c.044-.2.093-.393.129-.591.066-.369.11-.737.146-1.1.005-.051.015-.1.02-.151Z" transform="translate(-330.547 -268.819)" fill="#bd7d90"/>
      <g id="Groupe_144" data-name="Groupe 144" transform="translate(51.322 24.493)">
        <path id="Tracé_277" data-name="Tracé 277" d="M425.008,299.142l15.584,57.42-52.192,39.6-15.594-57.418ZM409,356.113c4.252-3.223,6.67-9.626,5.4-14.3-.951-3.479-3.672-5.014-6.75-4.243a9.049,9.049,0,0,0-3.242,1.625c-4.252,3.222-6.67,9.624-5.4,14.3.944,3.472,3.666,5.013,6.752,4.24a9.075,9.075,0,0,0,3.24-1.622" transform="translate(-372.806 -299.142)" fill="url(#linear-gradient)"/>
      </g>
      <g id="Groupe_145" data-name="Groupe 145" transform="translate(0 39.603)">
        <path id="Tracé_278" data-name="Tracé 278" d="M409.437,389.968l-51.322-24.492-15.594-57.417,51.322,24.492Z" transform="translate(-342.521 -308.058)" fill="url(#linear-gradient-2)"/>
      </g>
      <g id="Groupe_146" data-name="Groupe 146" transform="translate(0 0)">
        <path id="Tracé_279" data-name="Tracé 279" d="M393.843,348.784l-51.322-24.492,52.2-39.6,51.322,24.492Z" transform="translate(-342.521 -284.689)" fill="url(#linear-gradient-3)"/>
      </g>
      <g id="Groupe_149" data-name="Groupe 149" transform="translate(0.05)">
        <g id="Groupe_148" data-name="Groupe 148" clip-path="url(#clip-path)">
          <g id="Groupe_147" data-name="Groupe 147" transform="translate(36.579 -3.685)">
            <line id="Ligne_9" data-name="Ligne 9" x2="7.193" y2="28.318" transform="translate(48.345 82.738)" fill="none" stroke="#815562" stroke-miterlimit="10" stroke-width="5"/>
            <path id="Tracé_280" data-name="Tracé 280" d="M377.608,282.515,431.726,307.6l16.491,60.622L432.423,365.9l-14.865-46.454-53.422-24.853Z" transform="translate(-364.136 -282.515)" fill="#fff" opacity="0.7"/>
          </g>
        </g>
      </g>
    </g>
    <path id="Tracé_282" data-name="Tracé 282" d="M555.17,340.007c-44.42,6.746-106.105,9.493-161.692-12.285" transform="translate(35.397 37.75)" fill="none" stroke="#707070" stroke-linecap="round" stroke-miterlimit="10" stroke-width="5"/>
    <g id="Groupe_157" data-name="Groupe 157" transform="translate(546.584 340.295)">
      <path id="Tracé_283" data-name="Tracé 283" d="M501.258,342.2c.027-.2.049-.407.063-.619.019-.258.025-.52.027-.788,0-.217,0-.43-.008-.651-.012-.276-.037-.552-.068-.834-.022-.22-.044-.441-.076-.663-.014-.083-.015-.164-.029-.247-.034-.2-.09-.391-.13-.588-.049-.234-.093-.464-.154-.7-.019-.07-.027-.139-.046-.208-.1-.346-.21-.688-.332-1.027-.015-.046-.027-.093-.044-.139l-.008-.025c-.136-.368-.288-.729-.454-1.081-.056-.119-.112-.234-.171-.351q-.188-.366-.386-.7c-.025-.041-.054-.073-.08-.115-.173-.281-.352-.541-.537-.785-.037-.051-.071-.114-.11-.161l-.019-.022a7.464,7.464,0,0,0-.856-.9c-.071-.064-.142-.124-.214-.181a4.974,4.974,0,0,0-.852-.581c-.017-.008-.034-.022-.051-.031a3.439,3.439,0,0,0-.9-.3c-.073-.014-.144-.024-.217-.032a2.582,2.582,0,0,0-.871.027h0l-19.358,4.452a2.593,2.593,0,0,1,.873-.027c.071.008.144.019.215.034a3.354,3.354,0,0,1,.9.3c.017.008.036.022.053.032a4.952,4.952,0,0,1,.851.58c.071.059.142.119.214.181a7.363,7.363,0,0,1,.856.907c.046.056.086.125.132.183.183.244.363.5.535.785.159.259.317.525.464.817a13.3,13.3,0,0,1,.635,1.457c.015.044.027.092.044.136.144.407.269.822.378,1.239.059.23.105.463.153.695.059.28.117.558.159.836.034.222.054.442.078.664.029.28.056.557.068.832.008.22.008.436.008.651,0,.268-.008.532-.027.79-.015.21-.037.415-.063.617-.032.249-.071.491-.12.727-.039.191-.083.38-.134.563-.063.224-.136.437-.215.644-.064.168-.129.332-.205.488a4.982,4.982,0,0,1-.48.829,3.426,3.426,0,0,1-.691.685c-.061.046-.125.075-.188.114a2.56,2.56,0,0,1-.691.331l-.088.022,19.358-4.452.09-.024a2.451,2.451,0,0,0,.351-.122,3.009,3.009,0,0,0,.341-.208c.063-.039.125-.068.186-.112.025-.019.052-.027.078-.047a3.476,3.476,0,0,0,.524-.524c.03-.037.061-.075.091-.115a4.862,4.862,0,0,0,.385-.6c.037-.069.059-.154.095-.227.075-.156.141-.319.2-.486.046-.117.1-.217.142-.339.031-.095.046-.207.073-.307.051-.183.095-.369.134-.563C501.187,342.693,501.227,342.452,501.258,342.2Z" transform="translate(-454.296 -300.65)" fill="url(#linear-gradient-4)"/>
      <g id="Groupe_151" data-name="Groupe 151" transform="translate(19.395 0)">
        <path id="Tracé_284" data-name="Tracé 284" d="M496.324,312.865l23.849,46.827-21.942,28.965L474.382,341.83Zm4.472,44.8c1.781-2.359,1.661-7.363-.28-11.166-1.447-2.842-3.491-4.22-5.181-3.764a2.956,2.956,0,0,0-1.574,1.132c-1.784,2.345-1.657,7.346.28,11.166,1.445,2.833,3.493,4.216,5.184,3.762a2.944,2.944,0,0,0,1.571-1.13" transform="translate(-474.382 -312.865)" fill="url(#linear-gradient-5)"/>
      </g>
      <g id="Groupe_154" data-name="Groupe 154" transform="translate(0 0)">
        <g id="Groupe_153" data-name="Groupe 153" clip-path="url(#clip-path-2)">
          <g id="Groupe_152" data-name="Groupe 152" transform="translate(14.574 -1.666)">
            <line id="Ligne_10" data-name="Ligne 10" x2="10.036" y2="18.606" transform="translate(29.892 45.618)" fill="none" stroke="#06756d" stroke-miterlimit="10" stroke-width="3"/>
            <path id="Tracé_285" data-name="Tracé 285" d="M475.906,316.755l23.359-4.873,16.973,32.938-8.907,2.857L492.88,320.284l-21.343,5.042Z" transform="translate(-471.537 -311.882)" fill="#fff"/>
          </g>
        </g>
      </g>
      <g id="Groupe_155" data-name="Groupe 155" transform="translate(0.036 28.965)">
        <path id="Tracé_287" data-name="Tracé 287" d="M506.166,376.784l-19.359,4.453L462.958,334.41l19.359-4.453Z" transform="translate(-462.958 -329.957)" fill="url(#linear-gradient-6)"/>
      </g>
      <g id="Groupe_156" data-name="Groupe 156" transform="translate(0.036)">
        <path id="Tracé_288" data-name="Tracé 288" d="M482.317,341.83l-19.359,4.453L484.9,317.317l19.359-4.453Z" transform="translate(-462.958 -312.865)" fill="url(#linear-gradient-7)"/>
      </g>
    </g>
    <path id="Tracé_289" data-name="Tracé 289" d="M658.463,322.2c-86.38-1.847-160.648,20.231-169.572,21.586" transform="translate(101.676 33.837)" fill="none" stroke="#707070" stroke-linecap="round" stroke-miterlimit="10" stroke-width="5"/>
    <g id="Groupe_165" data-name="Groupe 165" transform="translate(723.971 305.237)">
      <path id="Tracé_290" data-name="Tracé 290" d="M652.185,327.732c.007-.5-.005-1-.044-1.5-.008-.1-.031-.2-.039-.3-.02-.2-.049-.392-.076-.588-.032-.241-.049-.483-.093-.72-.032-.176-.09-.344-.129-.519-.059-.275-.125-.544-.2-.812-.044-.158-.069-.324-.119-.48q-.178-.562-.4-1.1c-1.31-3.128-3.51-4.843-5.779-4.881l-57.938-.952c2.269.037,4.469,1.752,5.779,4.881a13.807,13.807,0,0,1,.522,1.581c.075.268.141.539.2.812.09.41.166.822.222,1.239.025.2.056.393.074.59a16.519,16.519,0,0,1,.085,1.808c0,.024,0,.047,0,.071a16.379,16.379,0,0,1-.149,1.876c-.041.307-.108.6-.164.9-.071.366-.134.734-.229,1.086-.049.19-.114.369-.169.554-.125.4-.263.793-.419,1.171-.08.191-.163.38-.251.566a11.12,11.12,0,0,1-.571,1.049c-.092.153-.178.31-.278.456a8.949,8.949,0,0,1-1.03,1.271,7.712,7.712,0,0,1-.578.517,6.187,6.187,0,0,1-1.079.7c-.064.032-.129.069-.193.1a5.1,5.1,0,0,1-.827.31,4.633,4.633,0,0,1-1.293.163h0l57.938.951c.044,0,.086,0,.129,0a4.748,4.748,0,0,0,1.03-.129c.046-.01.092-.022.136-.034a5.189,5.189,0,0,0,.829-.312c.031-.014.063-.02.093-.036s.064-.046.1-.063a6.113,6.113,0,0,0,1.08-.7c.012-.008.024-.014.036-.022a7.331,7.331,0,0,0,.544-.495,8.85,8.85,0,0,0,1.029-1.271c.1-.144.186-.3.278-.454a11.1,11.1,0,0,0,.573-1.051c.086-.186.169-.373.249-.566.156-.378.293-.768.418-1.171.058-.185.12-.364.171-.552.02-.08.051-.153.071-.231.068-.278.1-.573.156-.857.057-.3.125-.6.164-.9.008-.064.027-.124.036-.186a16.736,16.736,0,0,0,.114-1.678V327.8C652.189,327.781,652.185,327.756,652.185,327.732Z" transform="translate(-554.132 -275.719)" fill="url(#linear-gradient-8)"/>
      <g id="Groupe_158" data-name="Groupe 158" transform="translate(57.939 0.952)">
        <path id="Tracé_291" data-name="Tracé 291" d="M642.19,292.739l25.733,61.529-40.389,40.477L601.8,333.216Zm-3.532,60.067c3.289-3.293,4.249-10.022,2.154-15.033-1.559-3.723-4.376-5.445-7.073-4.72a6.029,6.029,0,0,0-2.672,1.625c-3.279,3.291-4.249,10.022-2.154,15.033,1.559,3.732,4.372,5.447,7.067,4.723a6.043,6.043,0,0,0,2.679-1.629" transform="translate(-601.801 -292.739)" fill="url(#linear-gradient-9)"/>
      </g>
      <g id="Groupe_159" data-name="Groupe 159" transform="translate(0 40.477)">
        <path id="Tracé_292" data-name="Tracé 292" d="M651.285,378.543l-57.939-.952-25.734-61.528,57.939.952Z" transform="translate(-567.611 -316.063)" fill="url(#linear-gradient-10)"/>
      </g>
      <g id="Groupe_160" data-name="Groupe 160">
        <path id="Tracé_293" data-name="Tracé 293" d="M625.55,333.606l-57.939-.952L608,292.177l57.939.952Z" transform="translate(-567.611 -292.177)" fill="url(#linear-gradient-11)"/>
      </g>
      <g id="Groupe_162" data-name="Groupe 162" transform="translate(57.939 0.952)">
        <g id="Groupe_161" data-name="Groupe 161" clip-path="url(#clip-path-3)">
          <line id="Ligne_11" data-name="Ligne 11" x2="11.179" y2="26.574" transform="translate(34.283 58.967)" fill="none" stroke="#020e60" stroke-linecap="round" stroke-miterlimit="10" stroke-width="4"/>
        </g>
      </g>
      <g id="Groupe_164" data-name="Groupe 164">
        <g id="Groupe_163" data-name="Groupe 163" clip-path="url(#clip-path-4)">
          <path id="Tracé_295" data-name="Tracé 295" d="M592.131,289.062l70.475,1.5L648.212,307.2l-65.8-2.8Z" transform="translate(-557.331 -294.341)" fill="#fff"/>
        </g>
      </g>
    </g>
    <g id="Groupe_170" data-name="Groupe 170" transform="translate(742.184 286.245)">
      <path id="Tracé_297" data-name="Tracé 297" d="M599.984,313.473c-6.95,5.992-14.61,8.5-17.111,5.6s1.107-10.107,8.056-16.1,14.611-8.5,17.111-5.6S606.934,307.479,599.984,313.473Z" transform="translate(-575.774 -270.416)" fill="url(#linear-gradient-12)"/>
      <g id="Groupe_169" data-name="Groupe 169">
        <path id="Tracé_298" data-name="Tracé 298" d="M611.51,294.356a16.744,16.744,0,1,1-19.765-13.04A16.744,16.744,0,0,1,611.51,294.356Z" transform="translate(-578.359 -280.971)" fill="url(#radial-gradient)"/>
        <g id="Groupe_168" data-name="Groupe 168" transform="translate(0.01 0.002)">
          <g id="Groupe_167" data-name="Groupe 167" clip-path="url(#clip-path-5)">
            <g id="Groupe_166" data-name="Groupe 166" transform="translate(6.82 0.748)">
              <path id="Tracé_299" data-name="Tracé 299" d="M606.224,305.483a8.314,8.314,0,0,1-3.938,4.892,13.293,13.293,0,0,1-7.96,1.23c-3.972-.427-8.173-2.09-10.046-5.623-2.208-4.167-.171-9.732,3.752-12.342,5.081-3.381,12.018-3.05,16.048,1.864A11.042,11.042,0,0,1,606.224,305.483Z" transform="translate(-581.706 -274.47)" fill="#56303e"/>
              <path id="Tracé_300" data-name="Tracé 300" d="M603.982,288.924a9.572,9.572,0,0,1,.844,6.8,3.614,3.614,0,0,1-2.811,2.742c-1.412.163-2.679-.8-3.774-1.71-3.245-2.694-9.563-6.075-10.2-10.659-.517-3.708,3.94-5.04,6.872-4.608C598.406,282.006,602.4,285.938,603.982,288.924Z" transform="translate(-578.494 -281.413)" fill="url(#linear-gradient-13)"/>
              <path id="Tracé_301" data-name="Tracé 301" d="M589.932,284.155c-.007.076-.015.154-.027.236a2.8,2.8,0,0,1-.691,1.339c-1.081,1.3-2.95,2.628-4.737,2.437a2.336,2.336,0,0,1-1.974-1.427,2.916,2.916,0,0,1,.244-2.14C583.8,282.275,590.256,280.286,589.932,284.155Z" transform="translate(-582.389 -281.026)" fill="#fff" style="mix-blend-mode: screen;isolation: isolate"/>
            </g>
          </g>
        </g>
      </g>
    </g>
    <g id="Groupe_175" data-name="Groupe 175" transform="translate(371.013 273.378)">
      <ellipse id="Ellipse_23" data-name="Ellipse 23" cx="21.213" cy="9.221" rx="21.213" ry="9.221" transform="matrix(0.744, -0.668, 0.668, 0.744, 0, 56.76)" fill="url(#linear-gradient-14)"/>
      <g id="Groupe_174" data-name="Groupe 174" transform="translate(0.337)">
        <circle id="Ellipse_24" data-name="Ellipse 24" cx="20.16" cy="20.16" r="20.16" transform="matrix(0.161, -0.987, 0.987, 0.161, 0, 39.795)" fill="url(#radial-gradient-2)"/>
        <g id="Groupe_173" data-name="Groupe 173" transform="translate(2.978 2.98)">
          <g id="Groupe_172" data-name="Groupe 172" clip-path="url(#clip-path-6)">
            <g id="Groupe_171" data-name="Groupe 171" transform="translate(1.229 1.183)">
              <path id="Tracé_303" data-name="Tracé 303" d="M387.532,306.427a9.511,9.511,0,0,1-6.211,3.24,19.077,19.077,0,0,1-9.556-1.649c-4.409-1.81-8.653-4.869-9.578-8.877-1.09-4.726,3.172-9.275,8.575-10.361,7-1.4,14.842,1.361,17.763,7.44A9.5,9.5,0,0,1,387.532,306.427Z" transform="translate(-362.016 -267.09)" fill="#152389"/>
              <path id="Tracé_304" data-name="Tracé 304" d="M392.668,288.074a11.52,11.52,0,0,1-.649,8.228,4.354,4.354,0,0,1-3.979,2.554c-1.7-.151-2.966-1.593-4.037-2.928-3.177-3.964-9.81-9.478-9.458-15.04.286-4.5,5.865-4.992,9.217-3.774C387.764,278.565,391.519,284.168,392.668,288.074Z" transform="translate(-353.322 -275.343)" fill="url(#linear-gradient-15)"/>
              <path id="Tracé_305" data-name="Tracé 305" d="M377.227,279.057c-.025.088-.056.178-.09.271A3.361,3.361,0,0,1,376,280.74c-1.588,1.268-4.115,2.388-6.175,1.729a2.818,2.818,0,0,1-1.984-2.161,3.516,3.516,0,0,1,.807-2.464C370.45,275.358,378.544,274.572,377.227,279.057Z" transform="translate(-357.986 -275.834)" fill="#fff" style="mix-blend-mode: screen;isolation: isolate"/>
            </g>
          </g>
        </g>
      </g>
    </g>
    <path id="Tracé_307" data-name="Tracé 307" d="M734.566,366.986a311.53,311.53,0,0,0-112.542-44.2" transform="translate(194.157 34.319)" fill="none" stroke="#707070" stroke-linecap="round" stroke-miterlimit="10" stroke-width="5"/>
  </g>
</svg>
