<svg id="Groupe_266" data-name="Groupe 266" xmlns="http://www.w3.org/2000/svg" width="35" height="35" viewBox="0 0 35 35">
  <path id="Tracé_448" data-name="Tracé 448" d="M32.69,15.452a21.285,21.285,0,0,0-4.907-5.157,32.243,32.243,0,0,0-5.834-3.542l1.839-4.761a1.365,1.365,0,0,0,.092-.492V1.364A1.365,1.365,0,0,0,22.032.087a12.391,12.391,0,0,1-9.132,0,1.365,1.365,0,0,0-1.848,1.276V1.5a1.366,1.366,0,0,0,.092.492l1.84,4.763a32.057,32.057,0,0,0-5.8,3.542A21.243,21.243,0,0,0,2.3,15.455,13.582,13.582,0,0,0,0,22.923a12.376,12.376,0,0,0,3.126,8.742A11.169,11.169,0,0,0,11.165,35H11.2L23.5,35h.029a11.289,11.289,0,0,0,9.313-4.607,1.365,1.365,0,0,0-2.232-1.571,8.628,8.628,0,0,1-7.125,3.449l-12.273,0c-5.235-.136-8.487-3.714-8.487-9.343,0-3.783,2.043-7.292,6.072-10.429A29.328,29.328,0,0,1,14.94,8.869h4.392l.063.055c4.832,4.2,7.282,8.478,7.282,12.7a1.365,1.365,0,1,0,2.729,0,16.02,16.02,0,0,0-2.862-8.832c2.942,2.37,5.727,5.767,5.727,10.129a1.365,1.365,0,0,0,2.729,0A13.537,13.537,0,0,0,32.69,15.452ZM19.259,6.139H15.672L14.616,3.406a14.877,14.877,0,0,0,5.7,0Z" transform="translate(0 0.001)" fill="#dd6b7f"/>
  <path id="Tracé_449" data-name="Tracé 449" d="M192.276,199.485a1.378,1.378,0,0,0,1.378-1.378v-.8a3.783,3.783,0,0,0,3.307-3.765v-.338a3.8,3.8,0,0,0-1.147-2.738,3.883,3.883,0,0,0-2.735-1.108h-1.262a1.161,1.161,0,0,1-1.119-1.171v-.5a1.077,1.077,0,0,1,1.119-1.082h1.194a.671.671,0,0,1,.714.628,1.378,1.378,0,0,0,2.755,0,3.412,3.412,0,0,0-2.825-3.324v-.886a1.378,1.378,0,1,0-2.755,0v.933a3.847,3.847,0,0,0-1.813,1,3.793,3.793,0,0,0-1.144,2.734v.5a3.9,3.9,0,0,0,3.875,3.926h1.262a1.1,1.1,0,0,1,1.127,1.091v.338a1.067,1.067,0,0,1-1.127,1.05h-2.051a.634.634,0,0,1-.681-.62,1.378,1.378,0,0,0-2.755,0,3.364,3.364,0,0,0,3.307,3.372v.761A1.378,1.378,0,0,0,192.276,199.485Z" transform="translate(-174.811 -169.444)" fill="#dd6b7f"/>
</svg>
