<svg xmlns="http://www.w3.org/2000/svg" xmlns:xlink="http://www.w3.org/1999/xlink" width="289.95" height="122.5" viewBox="0 0 289.95 122.5">
  <defs>
    <linearGradient id="linear-gradient" x1="-7.158" y1="-1.85" x2="-7.513" y2="-0.716" gradientUnits="objectBoundingBox">
      <stop offset="0" stop-color="#ee95a8"/>
      <stop offset="0.152" stop-color="#ee95a8" stop-opacity="0.776"/>
      <stop offset="0.411" stop-color="#ee95a8" stop-opacity="0.443"/>
      <stop offset="0.648" stop-color="#ee95a8" stop-opacity="0.2"/>
      <stop offset="0.852" stop-color="#ee95a8" stop-opacity="0.051"/>
      <stop offset="1" stop-color="#ee95a8" stop-opacity="0"/>
    </linearGradient>
    <linearGradient id="linear-gradient-2" x1="0.5" x2="0.5" y2="1" gradientUnits="objectBoundingBox">
      <stop offset="0" stop-color="#fbccc8"/>
      <stop offset="1" stop-color="#ee95a8"/>
    </linearGradient>
    <clipPath id="clip-path">
      <path id="Tracé_19" data-name="Tracé 19" d="M75.527,200.555l-.027-.061c-.046-.11-.322-.783-.642-1.816-.029-.092-.056-.184-.084-.275-.039-.131-.078-.267-.118-.407a26.258,26.258,0,0,1-.83-10.206l0-.024q.065-.552.152-1.1v0a26.313,26.313,0,0,1,1.361-5.135,23.072,23.072,0,0,1,1.043-2.4c.243-.491.5-.974.78-1.451l.039-.073.037-.06c.047-.081.094-.163.142-.244.18-.3.377-.622.6-.957v0l.025-.037q.159-.241.338-.5c.053-.077.109-.152.162-.228s.089-.127.137-.193l.112-.151a26.519,26.519,0,0,1,2.3-2.731c.215-.225.382-.394.48-.491l.153-.148.15-.147.023-.021.034-.032c.074-.071.176-.164.251-.234l.036-.032.036-.033.173-.157.231-.205.2-.175.114-.1.033-.029.041-.035.065-.055.226-.188.191-.155.183-.146.009-.007.116-.091.223-.173.158-.12.216-.161.039-.029.164-.12.1-.069.12-.085.02-.014.041-.029.067-.047.179-.124.115-.079,0,0,.2-.133.172-.114.1-.066.157-.1.151-.1c.084-.053.168-.1.252-.155l.233-.141.077-.047.017-.01c.066-.04.141-.083.217-.126.107-.062.215-.122.323-.183l.221-.125c.084-.046.166-.088.25-.133l.263-.14.163-.082.146-.077.114-.054.126-.062q.714-.35,1.447-.655l.312-.129c.11-.044.219-.088.33-.131l.2-.076c.162-.062.322-.12.48-.176l.167-.059c.23-.08.454-.154.669-.222.1-.033.208-.066.312-.1l-.023.006.028-.008.064-.019c.17-.051.332-.1.483-.141l.369-.1c.281-.074.5-.13.655-.166q1.136-.271,2.292-.438c.457-.073.868-.122,1.387-.167a26.338,26.338,0,0,1,6.494.2h.006q.322.05.644.109l.085.016q.559.1,1.115.231l.09.02.033.006.029.008.044.01.034.009.307.076q.312.078.6.16l.331.094q.338.1.642.195l.029.009.027.01.143.046c1.063.346,1.748.639,1.792.658.344.141.692.3,1.041.459.246.112.5.232.765.363l.055.025.04.023c.526.263,1.1.574,1.746.967l.014.007.014.009.028.017c.3.18.611.389.934.611.279.189.556.379.8.539l.856.673c.281.217.549.428.795.625a18.988,18.988,0,0,1,1.591,1.475l0,0,.005.006c.487.5.981,1.038,1.438,1.571l.017.018.018.023a19.715,19.715,0,0,1,1.466,1.909,23.9,23.9,0,0,1,2.152,3.686,26.2,26.2,0,0,1,2.358,7.966,25.519,25.519,0,0,1,.21,4.138,17.1,17.1,0,0,1-.1,1.765c-.068.706-.172,1.421-.305,2.14-.013.085-.026.17-.04.261a17.365,17.365,0,0,1-.577,2.43c-.172.528-.383,1.239-.575,1.761s-.455,1.2-.692,1.706h0c-.253.565-.359.8-.618,1.282q-.46.911-.978,1.753l0,.006c-.112.182-.225.362-.341.538-.136.209-.274.413-.4.588-.066.094-.16.224-.267.372l-.049.067c-.112.154-.243.33-.39.523l-.1.126c-.439.57-1,1.264-1.661,1.963-.143.152-.339.359-.577.6l-.2.2-.355.344-.251.234-.09.082-.018.016-.136.124-.231.205-.229.2-.02.017a24.7,24.7,0,0,1-2.659,2l-.083.055-.249.16-.025.016-.217.137-.5.3c-.226.134-.532.3-.761.434-.211.12-.473.256-.722.382l-.006,0-.005,0c-.126.064-.249.126-.36.18-.326.16-.77.355-1.1.506s-.806.326-1.15.466c-.748.267-1.755.6-2.521.809a20.322,20.322,0,0,1-2.018.453c-.155.025-.318.049-.485.073-.485.074-.989.143-1.408.2l-.508.037q-.6.059-1.207.088l-.2.015c-.471.032-1.058.024-1.592.009-.227-.005-.453-.013-.68-.024a18.182,18.182,0,0,1-1.959-.17l-.061-.01q-.793-.1-1.585-.255l-.334-.057-.59-.143q-.236-.055-.472-.114l-.9-.216a17.025,17.025,0,0,1-1.943-.633l-.049-.017-.1-.04c-.506-.2-1.093-.435-1.786-.741l-.046-.021h0a23.473,23.473,0,0,1-3.255-1.8l-.036-.023c-.322-.212-.655-.441-1-.689l-.006,0,0,0q-.218-.158-.442-.326c-.207-.154-.407-.306-.579-.449l-.172-.143q-.453-.368-.916-.78c-.424-.371-.842-.757-1.174-1.108l0,0c-.58-.582-1.158-1.217-1.723-1.907-.352-.418-.686-.847-.968-1.257q-.477-.661-.932-1.381c-.071-.11-.136-.215-.2-.321q-.6-.979-1.134-2.069l-.04-.075-.023-.051Q75.9,201.484,75.527,200.555Z" transform="translate(-73.654 -164.438)" fill="none"/>
    </clipPath>
    <linearGradient id="linear-gradient-3" x1="3.866" y1="-18.237" x2="5.015" y2="-18.237" gradientUnits="objectBoundingBox">
      <stop offset="0" stop-color="#cabaf8"/>
      <stop offset="0.138" stop-color="#c5b5f4"/>
      <stop offset="0.281" stop-color="#b9a9eb"/>
      <stop offset="0.426" stop-color="#a494dc"/>
      <stop offset="0.43" stop-color="#a494dc"/>
      <stop offset="0.612" stop-color="#a898df"/>
      <stop offset="0.801" stop-color="#b4a4e8"/>
      <stop offset="0.992" stop-color="#c9b9f7"/>
      <stop offset="0.997" stop-color="#cabaf8"/>
    </linearGradient>
    <linearGradient id="linear-gradient-4" x2="0.028" y2="1" gradientUnits="objectBoundingBox">
      <stop offset="0" stop-color="#d7b00a"/>
      <stop offset="1" stop-color="#3a48b0"/>
    </linearGradient>
    <linearGradient id="linear-gradient-5" x1="29.955" y1="-68.599" x2="30.217" y2="-67.485" gradientUnits="objectBoundingBox">
      <stop offset="0" stop-color="#fff"/>
      <stop offset="0.173" stop-color="#fff" stop-opacity="0.773"/>
      <stop offset="0.398" stop-color="#fff" stop-opacity="0.502"/>
      <stop offset="0.601" stop-color="#fff" stop-opacity="0.286"/>
      <stop offset="0.775" stop-color="#fff" stop-opacity="0.129"/>
      <stop offset="0.913" stop-color="#fff" stop-opacity="0.035"/>
      <stop offset="0.997" stop-color="#fff" stop-opacity="0"/>
    </linearGradient>
    <linearGradient id="linear-gradient-6" x1="0.5" y1="-0.045" x2="0.5" y2="0.93" gradientUnits="objectBoundingBox">
      <stop offset="0" stop-color="#cf65b0"/>
      <stop offset="0.995" stop-color="#feffb7"/>
    </linearGradient>
  </defs>
  <g id="left-icon" transform="translate(-20.5 -5768)">
    <path id="Tracé_13" data-name="Tracé 13" d="M72.778,251.363A24.436,24.436,0,0,0,66.231,263.1c-1.426,5.692-.877,12.246,4.279,16.728,6.287,5.465,18.106,5.767,25.192,1.415a16.266,16.266,0,0,0,7.122-19.275,22.4,22.4,0,0,0-10.836-13.187C85.575,245.027,77.181,247.069,72.778,251.363Z" transform="translate(-7.552 5568.755)" opacity="0.38" fill="url(#linear-gradient)" style="mix-blend-mode: multiply;isolation: isolate"/>
    <g id="Groupe_15" data-name="Groupe 15" transform="translate(62.679 5768)">
      <g id="Groupe_14" data-name="Groupe 14">
        <g id="Groupe_13" data-name="Groupe 13">
          <path id="Tracé_14" data-name="Tracé 14" d="M123.412,178.594l-.029-.059c-.053-.107-.383-.755-.957-1.671-.051-.081-.1-.162-.154-.243-.073-.114-.151-.233-.232-.354a26.249,26.249,0,0,0-7.195-7.287l-.02-.013q-.46-.311-.933-.6l0,0a26.353,26.353,0,0,0-4.78-2.317,23.045,23.045,0,0,0-2.5-.776c-.531-.136-1.067-.253-1.608-.356l-.081-.018-.07-.011c-.092-.017-.184-.035-.277-.051-.348-.062-.718-.12-1.116-.171h0l-.044-.005q-.287-.036-.6-.068c-.093-.01-.186-.017-.279-.026l-.236-.022-.187-.013a26.57,26.57,0,0,0-3.571-.037c-.311.016-.549.033-.686.044l-.212.019-.209.018-.031,0-.047,0-.341.037-.048.006-.048.006-.231.028-.307.042-.264.038-.148.023-.043.007-.053.009-.084.013-.29.049-.243.044-.23.043-.01,0-.146.028-.276.057-.193.042-.263.059-.047.011-.2.046-.116.028-.143.035-.024.006-.049.012-.08.021-.21.055-.135.035h0l-.231.064-.2.055-.118.035-.178.053-.171.052-.282.09-.259.084-.085.028-.019.006-.237.083c-.117.04-.233.083-.349.125l-.239.086-.264.1c-.092.036-.185.071-.277.108l-.169.07-.153.061-.115.051-.129.054q-.731.313-1.44.669l-.3.152c-.105.054-.21.109-.315.165l-.185.1c-.152.083-.3.166-.446.249l-.154.088c-.211.122-.413.244-.6.363l-.278.173.02-.013-.024.016-.057.036c-.15.1-.291.188-.422.275-.106.07-.213.141-.318.213-.24.164-.427.3-.553.389q-.946.684-1.827,1.452c-.354.3-.659.578-1.031.942a26.353,26.353,0,0,0-4.082,5.055l0,0v0q-.172.277-.338.559l-.043.075q-.286.491-.553,1l-.043.081-.017.029-.013.027-.021.04-.016.031q-.072.14-.143.282-.144.288-.273.562-.074.155-.145.312c-.1.213-.188.418-.271.613l-.013.028-.01.026c-.02.046-.039.092-.058.139-.431,1.031-.656,1.742-.67,1.787-.118.353-.227.718-.331,1.089-.076.259-.15.53-.223.816l-.017.058-.009.045c-.144.571-.281,1.206-.406,1.955l0,.016,0,.017-.006.031c-.056.341-.1.717-.146,1.106-.039.336-.075.668-.111.956l-.048,1.088c-.019.354-.034.7-.044,1.01a19.1,19.1,0,0,0,.08,2.168v.014c.06.693.147,1.421.253,2.115l0,.024.005.029a19.818,19.818,0,0,0,.49,2.357,23.994,23.994,0,0,0,1.391,4.036,25.176,25.176,0,0,0,1.982,3.688,26.395,26.395,0,0,0,5.517,6.153,17.137,17.137,0,0,0,1.4,1.075c.579.409,1.189.8,1.821,1.164l.224.14a17.3,17.3,0,0,0,2.218,1.148c.513.215,1.19.518,1.709.714s1.207.438,1.745.588h0c.593.177.84.249,1.375.368.661.164,1.318.3,1.967.4h.008c.211.034.422.066.631.092.247.033.491.062.705.082l.456.04.083.007c.189.015.408.031.651.045l.159.009c.718.039,1.613.064,2.571.021.208-.009.493-.023.832-.046l.284-.018.492-.045.341-.037.121-.015.024,0,.183-.022.306-.042.3-.043.025,0a24.717,24.717,0,0,0,3.252-.709l.1-.027.283-.084.028-.009.245-.075.555-.181c.249-.084.578-.205.825-.293.229-.083.5-.192.761-.3l.006,0,.005,0,.371-.156c.334-.143.771-.353,1.1-.5s.773-.4,1.1-.568c.691-.393,1.6-.941,2.257-1.382a20.245,20.245,0,0,0,1.66-1.234c.12-.1.244-.209.371-.32.372-.319.754-.656,1.074-.934l.359-.361q.438-.42.854-.857l.143-.143c.331-.336.709-.786,1.045-1.2q.217-.262.426-.531a18.018,18.018,0,0,0,1.149-1.6l.032-.053q.439-.669.84-1.369c.06-.1.12-.2.176-.291l.277-.54c.075-.143.149-.287.222-.432l.42-.819a16.979,16.979,0,0,0,.788-1.886l.02-.048.033-.1c.182-.511.383-1.111.6-1.836.005-.016.009-.034.014-.05v0a23.411,23.411,0,0,0,.76-3.64l.006-.043c.05-.382.094-.784.129-1.206v0c.015-.18.029-.362.041-.547.018-.257.034-.509.038-.732,0-.072,0-.148,0-.224q.016-.584.007-1.2c-.005-.564-.024-1.132-.074-1.612v0c-.063-.819-.167-1.671-.322-2.55-.088-.539-.195-1.072-.322-1.553q-.19-.793-.439-1.608c-.036-.125-.074-.244-.113-.361q-.353-1.091-.828-2.21l-.031-.079-.024-.05C124,179.774,123.72,179.186,123.412,178.594Z" transform="translate(-73.657 -164.441)" fill="url(#linear-gradient-2)"/>
          <g id="Groupe_12" data-name="Groupe 12">
            <g id="Groupe_11" data-name="Groupe 11" clip-path="url(#clip-path)">
              <path id="Tracé_15" data-name="Tracé 15" d="M133.023,188.393a29.232,29.232,0,0,1,1.251,5.859c.039.443.066.982.089,1.492a7.484,7.484,0,0,0-1.205-3.729c-3.345-4.847-12.427-2.342-20.286,5.6s-11.519,18.3-8.174,23.147c1.388,2.012,3.766,2.757,6.633,2.373l-.666.079a29.054,29.054,0,0,1-5.429.022,27.81,27.81,0,0,1-6.557-1.509c-.594-.22-1.363-.567-1.947-.811a6.842,6.842,0,0,1-2.807-2.363c-4.235-6.137.4-19.26,10.35-29.31s21.452-13.222,25.687-7.084h0l.1.151A27.9,27.9,0,0,1,133.023,188.393Zm1.34,7.351c.012.263.023.52.034.748C134.395,196.237,134.382,195.989,134.363,195.744Z" transform="translate(-81.557 -170.602)" opacity="0.7" fill="url(#linear-gradient-3)" style="mix-blend-mode: overlay;isolation: isolate"/>
              <path id="Tracé_16" data-name="Tracé 16" d="M100.614,219.111a20.289,20.289,0,0,0,.617,2.728,11.863,11.863,0,0,0,8.816,8.463c10.054,2.5,22.082-.783,27.662-7.856a15.072,15.072,0,0,0-.333-19.156c-3.335-3.909-8.858-6.606-14.776-7.213-4.882-.5-10.088.448-13.867,2.947C101.569,203.764,99.521,212.094,100.614,219.111Z" transform="translate(-84.929 -177.752)" opacity="0.7" fill="url(#linear-gradient-4)" style="mix-blend-mode: multiply;isolation: isolate"/>
              <g id="Groupe_10" data-name="Groupe 10" transform="translate(11.155 3.936)" style="mix-blend-mode: screen;isolation: isolate">
                <path id="Tracé_17" data-name="Tracé 17" d="M94.247,180.245a5.1,5.1,0,0,0,2.233,1.314c4.046,1.186,10.942-1.652,11.648-5.7.929-5.339-10.262-6.137-13.935-1.837A4.5,4.5,0,0,0,94.247,180.245Z" transform="translate(-92.972 -171.254)" fill="url(#linear-gradient-5)"/>
                <path id="Tracé_18" data-name="Tracé 18" d="M131.573,180.731c.413,3.637,3.368,7.843,5.29,9.435,1.313,1.088,3.022,1.993,4.668,1.545a4.4,4.4,0,0,0,2.883-3.776c.524-3.928-5.32-15.436-10.714-12.1A4.7,4.7,0,0,0,131.573,180.731Z" transform="translate(-109.261 -172.936)" fill="#606060" opacity="0.7" style="mix-blend-mode: screen;isolation: isolate"/>
              </g>
            </g>
          </g>
        </g>
      </g>
    </g>
    <path id="Tracé_2296" data-name="Tracé 2296" d="M84.015,548.4h-1c0-3.418-1.4-5.1-2.884-6.878-1.532-1.837-3.116-3.738-3.116-7.518s1.584-5.681,3.116-7.519c1.482-1.779,2.884-3.46,2.884-6.878s-1.4-5.094-2.884-6.873C78.6,510.9,77.015,509,77.015,505.221s1.584-5.68,3.116-7.517c1.483-1.778,2.884-3.459,2.884-6.875s-1.4-5.1-2.884-6.873c-1.532-1.837-3.116-3.735-3.116-7.514s1.584-5.677,3.116-7.514c1.482-1.779,2.884-3.458,2.884-6.875s-1.4-5.1-2.884-6.874c-1.532-1.837-3.116-3.737-3.116-7.515s1.584-5.678,3.116-7.515c1.483-1.778,2.884-3.458,2.884-6.873s-1.4-5.094-2.884-6.873c-1.532-1.837-3.116-3.736-3.116-7.513s1.584-5.678,3.116-7.515c1.482-1.778,2.884-3.458,2.884-6.875h1c0,3.779-1.584,5.679-3.116,7.516-1.484,1.778-2.884,3.458-2.884,6.874s1.4,5.094,2.884,6.873c1.532,1.837,3.116,3.736,3.116,7.513s-1.584,5.677-3.116,7.514c-1.483,1.778-2.884,3.458-2.884,6.874s1.4,5.1,2.884,6.874c1.532,1.837,3.116,3.736,3.116,7.515s-1.584,5.678-3.116,7.515c-1.484,1.779-2.884,3.458-2.884,6.874s1.4,5.1,2.884,6.873c1.532,1.837,3.116,3.737,3.116,7.514s-1.584,5.679-3.116,7.516c-1.483,1.778-2.884,3.459-2.884,6.876s1.4,5.094,2.884,6.873c1.532,1.837,3.116,3.736,3.116,7.513s-1.584,5.681-3.116,7.519c-1.483,1.779-2.884,3.46-2.884,6.878s1.4,5.1,2.884,6.878C82.431,542.72,84.015,544.62,84.015,548.4Z" transform="translate(714.95 5752.435) rotate(90)" fill="url(#linear-gradient-6)"/>
  </g>
</svg>
