<svg xmlns="http://www.w3.org/2000/svg" width="60" height="60" viewBox="0 0 60 60">
  <g id="Page-1" transform="translate(0)">
    <g id="_001---Money-In" data-name="001---Money-In">
      <path id="Shape" d="M15,33a4,4,0,1,0-3-6.618,4,4,0,1,0,0,5.236A3.975,3.975,0,0,0,15,33Zm0-6a2,2,0,1,1-2,2A2,2,0,0,1,15,27ZM9,31a2,2,0,1,1,2-2A2,2,0,0,1,9,31Z" fill="#dd6b7f"/>
      <path id="Shape-2" data-name="Shape" d="M48,16a11.962,11.962,0,0,0-8.919,4H35.475a9,9,0,1,0-16.95,0H5a5.006,5.006,0,0,0-5,5V55a5.006,5.006,0,0,0,5,5H51a5.006,5.006,0,0,0,5-5V36.919A11.983,11.983,0,0,0,48,16ZM27,10a7,7,0,1,1-7,7A7,7,0,0,1,27,10ZM51,58H5a3,3,0,0,1-3-3V54H54v1A3,3,0,0,1,51,58Zm3-13H16a1,1,0,0,0,0,2H54v5H2V47H8a1,1,0,0,0,0-2H2V25a3,3,0,0,1,3-3H19.522a8.99,8.99,0,0,0,14.956,0h3.146A11.978,11.978,0,0,0,54,38.376Zm-6-7A10,10,0,1,1,58,28,10,10,0,0,1,48,38Z" fill="#dd6b7f"/>
      <path id="Shape-3" data-name="Shape" d="M43,15a1,1,0,0,0,1-1V8a1,1,0,0,0-2,0v6A1,1,0,0,0,43,15Z" fill="#a8c7e8"/>
      <path id="Shape-4" data-name="Shape" d="M43,5a1,1,0,0,0,1-1V2a1,1,0,0,0-2,0V4A1,1,0,0,0,43,5Z" fill="#a8c7e8"/>
      <path id="Shape-5" data-name="Shape" d="M49,14a1,1,0,0,0,1-1V1a1,1,0,0,0-2,0V13A1,1,0,0,0,49,14Z" fill="#a8c7e8"/>
      <path id="Shape-6" data-name="Shape" d="M54,15a1,1,0,0,0,1-1V12a1,1,0,0,0-2,0v2A1,1,0,0,0,54,15Z" fill="#a8c7e8"/>
      <path id="Shape-7" data-name="Shape" d="M54,9a1,1,0,0,0,1-1V7a1,1,0,0,0-2,0V8A1,1,0,0,0,54,9Z" fill="#a8c7e8"/>
      <path id="Shape-8" data-name="Shape" d="M21,4a1,1,0,0,0,1-1V1a1,1,0,0,0-2,0V3A1,1,0,0,0,21,4Z" fill="#a8c7e8"/>
      <path id="Shape-9" data-name="Shape" d="M21,8a1,1,0,0,0,1-1V6a1,1,0,0,0-2,0V7A1,1,0,0,0,21,8Z" fill="#a8c7e8"/>
      <path id="Shape-10" data-name="Shape" d="M27,6a1,1,0,0,0,1-1V1a1,1,0,0,0-2,0V5A1,1,0,0,0,27,6Z" fill="#a8c7e8"/>
      <path id="Shape-11" data-name="Shape" d="M32,8a1,1,0,0,0,1-1V5a1,1,0,0,0-2,0V7A1,1,0,0,0,32,8Z" fill="#a8c7e8"/>
      <path id="Shape-12" data-name="Shape" d="M9,39H7a1,1,0,0,0,0,2H9a1,1,0,0,0,0-2Z" fill="#dd6b7f"/>
      <path id="Shape-13" data-name="Shape" d="M21,39H13a1,1,0,0,0,0,2h8a1,1,0,0,0,0-2Z" fill="#dd6b7f"/>
      <path id="Shape-14" data-name="Shape" d="M47.051,23.251a.976.976,0,0,0,1.9,0A1.991,1.991,0,0,1,50,25a1,1,0,0,0,2,0,4,4,0,0,0-3-3.858V20a1,1,0,0,0-2,0v1.142A3.992,3.992,0,0,0,48,29a1.993,1.993,0,0,1,.949,3.749.976.976,0,0,0-1.9,0A1.991,1.991,0,0,1,46,31a1,1,0,0,0-2,0,4,4,0,0,0,3,3.858V36a1,1,0,0,0,2,0V34.858A3.992,3.992,0,0,0,48,27a1.993,1.993,0,0,1-.949-3.749Z" fill="#a8c7e8"/>
      <path id="Shape-15" data-name="Shape" d="M27,18a1,1,0,1,1-.9,1.446,1,1,0,0,0-1.788.9A2.986,2.986,0,0,0,26,21.823V22a1,1,0,0,0,2,0v-.184A2.993,2.993,0,0,0,27,16a1,1,0,1,1,.9-1.446,1,1,0,0,0,1.788-.9A2.986,2.986,0,0,0,28,12.177V12a1,1,0,0,0-2,0v.184A2.993,2.993,0,0,0,27,18Z" fill="#a8c7e8"/>
    </g>
  </g>
</svg>
