<svg xmlns="http://www.w3.org/2000/svg" width="66.922" height="60" viewBox="0 0 66.922 60">
  <g id="probleme" transform="translate(0 -26.482)">
    <g id="XMLID_77_" transform="translate(0 26.482)">
      <path id="XMLID_78_" d="M65.878,74.924,40.134,30.334a7.7,7.7,0,0,0-13.345,0L1.044,74.924A7.7,7.7,0,0,0,7.717,86.482H27.58a1.307,1.307,0,0,0,0-2.614H7.717a5.091,5.091,0,0,1-4.409-7.636l25.744-44.59a5.091,5.091,0,0,1,8.818,0l25.744,44.59a5.091,5.091,0,0,1-4.409,7.636H39.342a1.307,1.307,0,0,0,0,2.614H59.205a7.7,7.7,0,0,0,6.672-11.557Z" transform="translate(0 -26.482)" fill="#dd6b7f"/>
      <path id="XMLID_752_" d="M101.741,120.44a1.306,1.306,0,0,0,0-1.307L75.788,74.184a1.307,1.307,0,0,0-2.263,0L47.573,119.134a1.307,1.307,0,0,0,1.132,1.96h51.905A1.307,1.307,0,0,0,101.741,120.44Zm-50.774-1.96,23.689-41.03,23.689,41.03Z" transform="translate(-41.196 -67.375)" fill="#dd6b7f"/>
      <path id="XMLID_755_" d="M226.47,329.557a4.449,4.449,0,1,0,4.449,4.449A4.454,4.454,0,0,0,226.47,329.557Zm0,6.281a1.832,1.832,0,1,1,1.832-1.832A1.834,1.834,0,0,1,226.47,335.838Z" transform="translate(-193.009 -289.954)" fill="#a8c7e8"/>
      <path id="XMLID_758_" d="M222.021,192.006v7.066a4.449,4.449,0,1,0,8.9,0v-7.066a4.449,4.449,0,1,0-8.9,0Zm6.281,0v7.066a1.832,1.832,0,1,1-3.664,0v-7.066a1.832,1.832,0,1,1,3.664,0Z" transform="translate(-193.009 -166.514)" fill="#a8c7e8"/>
      <path id="XMLID_759_" d="M247.329,465.56a1.309,1.309,0,1,0,.925.383A1.318,1.318,0,0,0,247.329,465.56Z" transform="translate(-213.868 -408.177)" fill="#dd6b7f"/>
    </g>
  </g>
</svg>
