<svg xmlns="http://www.w3.org/2000/svg" xmlns:xlink="http://www.w3.org/1999/xlink" width="184.521" height="96.932" viewBox="0 0 184.521 96.932">
  <defs>
    <linearGradient id="linear-gradient" x1="0.431" y1="0.542" x2="-62.994" y2="39.19" gradientUnits="objectBoundingBox">
      <stop offset="0" stop-color="#cf65b0"/>
      <stop offset="0.995" stop-color="#feffb7"/>
    </linearGradient>
    <linearGradient id="linear-gradient-2" x1="-1.05" y1="1.445" x2="-64.476" y2="40.102" xlink:href="#linear-gradient"/>
    <linearGradient id="linear-gradient-3" x1="0.906" y1="0.252" x2="-62.52" y2="38.928" xlink:href="#linear-gradient"/>
    <linearGradient id="linear-gradient-4" x1="-0.575" y1="1.156" x2="-64.001" y2="39.822" xlink:href="#linear-gradient"/>
    <linearGradient id="linear-gradient-5" x1="2.863" y1="-0.939" x2="-60.578" y2="37.709" xlink:href="#linear-gradient"/>
    <linearGradient id="linear-gradient-6" x1="1.381" y1="-0.037" x2="-62.06" y2="38.621" xlink:href="#linear-gradient"/>
    <linearGradient id="linear-gradient-7" x1="3.394" y1="-1.264" x2="-60.031" y2="37.385" xlink:href="#linear-gradient"/>
    <linearGradient id="linear-gradient-8" x1="1.913" y1="-0.361" x2="-61.513" y2="38.296" xlink:href="#linear-gradient"/>
    <linearGradient id="linear-gradient-9" x1="3.869" y1="-1.554" x2="-59.557" y2="37.113" xlink:href="#linear-gradient"/>
    <linearGradient id="linear-gradient-10" x1="2.387" y1="-0.651" x2="-61.038" y2="38.024" xlink:href="#linear-gradient"/>
    <linearGradient id="linear-gradient-11" x1="5.826" y1="-2.745" x2="-57.615" y2="35.904" xlink:href="#linear-gradient"/>
    <linearGradient id="linear-gradient-12" x1="4.344" y1="-1.842" x2="-59.097" y2="36.815" xlink:href="#linear-gradient"/>
    <linearGradient id="linear-gradient-13" x1="6.357" y1="-3.068" x2="-57.068" y2="35.571" xlink:href="#linear-gradient"/>
    <linearGradient id="linear-gradient-14" x1="4.875" y1="-2.167" x2="-58.55" y2="36.49" xlink:href="#linear-gradient"/>
    <linearGradient id="linear-gradient-15" x1="6.831" y1="-3.361" x2="-56.594" y2="35.315" xlink:href="#linear-gradient"/>
    <linearGradient id="linear-gradient-16" x1="5.35" y1="-2.457" x2="-58.075" y2="36.218" xlink:href="#linear-gradient"/>
    <linearGradient id="linear-gradient-17" x1="8.789" y1="-4.549" x2="-54.651" y2="34.091" xlink:href="#linear-gradient"/>
    <linearGradient id="linear-gradient-18" x1="7.308" y1="-3.648" x2="-56.133" y2="35.009" xlink:href="#linear-gradient"/>
    <linearGradient id="linear-gradient-19" x1="9.32" y1="-4.874" x2="-54.106" y2="33.774" xlink:href="#linear-gradient"/>
    <linearGradient id="linear-gradient-20" x1="7.838" y1="-3.973" x2="-55.587" y2="34.685" xlink:href="#linear-gradient"/>
    <linearGradient id="linear-gradient-21" x1="9.794" y1="-5.167" x2="-53.632" y2="33.508" xlink:href="#linear-gradient"/>
    <linearGradient id="linear-gradient-22" x1="8.313" y1="-4.263" x2="-55.113" y2="34.403" xlink:href="#linear-gradient"/>
    <linearGradient id="linear-gradient-23" x1="11.753" y1="-6.355" x2="-51.688" y2="32.293" xlink:href="#linear-gradient"/>
    <linearGradient id="linear-gradient-24" x1="10.271" y1="-5.454" x2="-53.169" y2="33.203" xlink:href="#linear-gradient"/>
    <linearGradient id="linear-gradient-25" x1="11.276" y1="-6.071" x2="-52.15" y2="32.605" xlink:href="#linear-gradient"/>
    <linearGradient id="linear-gradient-26" x1="5.292" y1="-2.42" x2="-58.134" y2="36.228" xlink:href="#linear-gradient"/>
    <linearGradient id="linear-gradient-27" x1="3.811" y1="-1.518" x2="-59.615" y2="37.14" xlink:href="#linear-gradient"/>
    <linearGradient id="linear-gradient-28" x1="5.767" y1="-2.712" x2="-57.659" y2="35.964" xlink:href="#linear-gradient"/>
    <linearGradient id="linear-gradient-29" x1="3.336" y1="-1.23" x2="-60.09" y2="37.446" xlink:href="#linear-gradient"/>
    <linearGradient id="linear-gradient-30" x1="4.285" y1="-1.808" x2="-59.14" y2="36.859" xlink:href="#linear-gradient"/>
    <linearGradient id="linear-gradient-31" x1="1.855" y1="-0.326" x2="-61.571" y2="38.34" xlink:href="#linear-gradient"/>
    <linearGradient id="linear-gradient-32" x1="7.725" y1="-3.901" x2="-55.716" y2="34.747" xlink:href="#linear-gradient"/>
    <linearGradient id="linear-gradient-33" x1="6.243" y1="-2.999" x2="-57.198" y2="35.658" xlink:href="#linear-gradient"/>
    <linearGradient id="linear-gradient-34" x1="8.255" y1="-4.226" x2="-55.171" y2="34.423" xlink:href="#linear-gradient"/>
    <linearGradient id="linear-gradient-35" x1="6.774" y1="-3.324" x2="-56.652" y2="35.334" xlink:href="#linear-gradient"/>
    <linearGradient id="linear-gradient-36" x1="8.73" y1="-4.517" x2="-54.696" y2="34.149" xlink:href="#linear-gradient"/>
    <linearGradient id="linear-gradient-37" x1="6.299" y1="-3.035" x2="-57.127" y2="35.631" xlink:href="#linear-gradient"/>
    <linearGradient id="linear-gradient-38" x1="7.248" y1="-3.615" x2="-56.178" y2="35.06" xlink:href="#linear-gradient"/>
    <linearGradient id="linear-gradient-39" x1="4.818" y1="-2.133" x2="-58.608" y2="36.542" xlink:href="#linear-gradient"/>
    <linearGradient id="linear-gradient-40" x1="10.688" y1="-5.707" x2="-52.753" y2="32.942" xlink:href="#linear-gradient"/>
    <linearGradient id="linear-gradient-41" x1="9.206" y1="-4.805" x2="-54.234" y2="33.852" xlink:href="#linear-gradient"/>
    <linearGradient id="linear-gradient-42" x1="11.218" y1="-6.03" x2="-52.208" y2="32.61" xlink:href="#linear-gradient"/>
    <linearGradient id="linear-gradient-43" x1="9.736" y1="-5.13" x2="-53.689" y2="33.528" xlink:href="#linear-gradient"/>
    <linearGradient id="linear-gradient-44" x1="11.692" y1="-6.325" x2="-51.733" y2="32.351" xlink:href="#linear-gradient"/>
    <linearGradient id="linear-gradient-45" x1="9.262" y1="-4.843" x2="-54.164" y2="33.833" xlink:href="#linear-gradient"/>
    <linearGradient id="linear-gradient-46" x1="10.211" y1="-5.422" x2="-53.215" y2="33.254" xlink:href="#linear-gradient"/>
    <linearGradient id="linear-gradient-47" x1="7.781" y1="-3.94" x2="-55.646" y2="34.736" xlink:href="#linear-gradient"/>
    <linearGradient id="linear-gradient-48" x1="13.652" y1="-7.51" x2="-49.789" y2="31.129" xlink:href="#linear-gradient"/>
    <linearGradient id="linear-gradient-49" x1="12.17" y1="-6.611" x2="-51.271" y2="32.046" xlink:href="#linear-gradient"/>
    <linearGradient id="linear-gradient-50" x1="14.181" y1="-7.836" x2="-49.245" y2="30.812" xlink:href="#linear-gradient"/>
    <linearGradient id="linear-gradient-51" x1="12.699" y1="-6.935" x2="-50.727" y2="31.722" xlink:href="#linear-gradient"/>
    <linearGradient id="linear-gradient-52" x1="14.655" y1="-8.131" x2="-48.771" y2="30.544" xlink:href="#linear-gradient"/>
    <linearGradient id="linear-gradient-53" x1="12.225" y1="-6.649" x2="-51.202" y2="32.026" xlink:href="#linear-gradient"/>
    <linearGradient id="linear-gradient-54" x1="13.174" y1="-7.226" x2="-50.252" y2="31.44" xlink:href="#linear-gradient"/>
    <linearGradient id="linear-gradient-55" x1="10.743" y1="-5.745" x2="-52.683" y2="32.922" xlink:href="#linear-gradient"/>
    <linearGradient id="linear-gradient-56" x1="16.615" y1="-9.317" x2="-46.826" y2="29.331" xlink:href="#linear-gradient"/>
    <linearGradient id="linear-gradient-57" x1="15.133" y1="-8.417" x2="-48.307" y2="30.241" xlink:href="#linear-gradient"/>
    <linearGradient id="linear-gradient-58" x1="16.137" y1="-9.035" x2="-47.289" y2="29.641" xlink:href="#linear-gradient"/>
    <linearGradient id="linear-gradient-59" x1="13.706" y1="-7.553" x2="-49.72" y2="31.123" xlink:href="#linear-gradient"/>
    <linearGradient id="linear-gradient-60" x1="10.153" y1="-5.382" x2="-53.273" y2="33.266" xlink:href="#linear-gradient"/>
    <linearGradient id="linear-gradient-61" x1="8.672" y1="-4.481" x2="-54.755" y2="34.177" xlink:href="#linear-gradient"/>
    <linearGradient id="linear-gradient-62" x1="10.625" y1="-5.676" x2="-52.785" y2="33" xlink:href="#linear-gradient"/>
    <linearGradient id="linear-gradient-63" x1="8.197" y1="-4.194" x2="-55.229" y2="34.482" xlink:href="#linear-gradient"/>
    <linearGradient id="linear-gradient-64" x1="9.144" y1="-4.771" x2="-54.266" y2="33.895" xlink:href="#linear-gradient"/>
    <linearGradient id="linear-gradient-65" x1="6.716" y1="-3.289" x2="-56.71" y2="35.377" xlink:href="#linear-gradient"/>
    <linearGradient id="linear-gradient-66" x1="12.587" y1="-6.863" x2="-50.854" y2="31.785" xlink:href="#linear-gradient"/>
    <linearGradient id="linear-gradient-67" x1="11.105" y1="-5.962" x2="-52.335" y2="32.695" xlink:href="#linear-gradient"/>
    <linearGradient id="linear-gradient-68" x1="13.116" y1="-7.188" x2="-50.31" y2="31.461" xlink:href="#linear-gradient"/>
    <linearGradient id="linear-gradient-69" x1="11.635" y1="-6.286" x2="-51.791" y2="32.371" xlink:href="#linear-gradient"/>
    <linearGradient id="linear-gradient-70" x1="13.588" y1="-7.48" x2="-49.823" y2="31.186" xlink:href="#linear-gradient"/>
    <linearGradient id="linear-gradient-71" x1="11.16" y1="-5.999" x2="-52.266" y2="32.668" xlink:href="#linear-gradient"/>
    <linearGradient id="linear-gradient-72" x1="12.106" y1="-6.579" x2="-51.304" y2="32.096" xlink:href="#linear-gradient"/>
    <linearGradient id="linear-gradient-73" x1="9.679" y1="-5.097" x2="-53.747" y2="33.578" xlink:href="#linear-gradient"/>
    <linearGradient id="linear-gradient-74" x1="15.55" y1="-8.669" x2="-47.89" y2="29.98" xlink:href="#linear-gradient"/>
    <linearGradient id="linear-gradient-75" x1="14.068" y1="-7.768" x2="-49.372" y2="30.889" xlink:href="#linear-gradient"/>
    <linearGradient id="linear-gradient-76" x1="16.079" y1="-8.991" x2="-47.347" y2="29.649" xlink:href="#linear-gradient"/>
    <linearGradient id="linear-gradient-77" x1="14.597" y1="-8.092" x2="-48.829" y2="30.565" xlink:href="#linear-gradient"/>
    <linearGradient id="linear-gradient-78" x1="16.55" y1="-9.289" x2="-46.861" y2="29.386" xlink:href="#linear-gradient"/>
    <linearGradient id="linear-gradient-79" x1="14.123" y1="-7.807" x2="-49.303" y2="30.869" xlink:href="#linear-gradient"/>
    <linearGradient id="linear-gradient-80" x1="15.069" y1="-8.386" x2="-48.342" y2="30.29" xlink:href="#linear-gradient"/>
    <linearGradient id="linear-gradient-81" x1="12.641" y1="-6.904" x2="-50.784" y2="31.772" xlink:href="#linear-gradient"/>
    <linearGradient id="linear-gradient-82" x1="18.513" y1="-10.471" x2="-44.927" y2="28.168" xlink:href="#linear-gradient"/>
    <linearGradient id="linear-gradient-83" x1="17.032" y1="-9.574" x2="-46.408" y2="29.084" xlink:href="#linear-gradient"/>
    <linearGradient id="linear-gradient-84" x1="19.042" y1="-10.798" x2="-44.384" y2="27.85" xlink:href="#linear-gradient"/>
    <linearGradient id="linear-gradient-85" x1="17.56" y1="-9.898" x2="-45.866" y2="28.759" xlink:href="#linear-gradient"/>
    <linearGradient id="linear-gradient-86" x1="19.512" y1="-11.096" x2="-43.899" y2="27.58" xlink:href="#linear-gradient"/>
    <linearGradient id="linear-gradient-87" x1="17.086" y1="-9.614" x2="-46.34" y2="29.062" xlink:href="#linear-gradient"/>
    <linearGradient id="linear-gradient-88" x1="18.031" y1="-10.19" x2="-45.38" y2="28.477" xlink:href="#linear-gradient"/>
    <linearGradient id="linear-gradient-89" x1="15.604" y1="-8.708" x2="-47.822" y2="29.958" xlink:href="#linear-gradient"/>
    <linearGradient id="linear-gradient-90" x1="21.477" y1="-12.279" x2="-41.963" y2="26.369" xlink:href="#linear-gradient"/>
    <linearGradient id="linear-gradient-91" x1="19.995" y1="-11.379" x2="-43.445" y2="27.278" xlink:href="#linear-gradient"/>
    <linearGradient id="linear-gradient-92" x1="20.993" y1="-11.999" x2="-42.418" y2="26.677" xlink:href="#linear-gradient"/>
    <linearGradient id="linear-gradient-93" x1="18.567" y1="-10.517" x2="-44.859" y2="28.159" xlink:href="#linear-gradient"/>
    <linearGradient id="linear-gradient-94" x1="15.011" y1="-8.344" x2="-48.4" y2="30.304" xlink:href="#linear-gradient"/>
    <linearGradient id="linear-gradient-95" x1="13.53" y1="-7.443" x2="-49.881" y2="31.214" xlink:href="#linear-gradient"/>
    <linearGradient id="linear-gradient-96" x1="15.489" y1="-8.64" x2="-47.937" y2="30.035" xlink:href="#linear-gradient"/>
    <linearGradient id="linear-gradient-97" x1="13.058" y1="-7.158" x2="-50.367" y2="31.518" xlink:href="#linear-gradient"/>
    <linearGradient id="linear-gradient-98" x1="14.007" y1="-7.735" x2="-49.418" y2="30.932" xlink:href="#linear-gradient"/>
    <linearGradient id="linear-gradient-99" x1="11.577" y1="-6.253" x2="-51.849" y2="32.413" xlink:href="#linear-gradient"/>
    <linearGradient id="linear-gradient-100" x1="17.445" y1="-9.825" x2="-45.981" y2="28.823" xlink:href="#linear-gradient"/>
    <linearGradient id="linear-gradient-101" x1="15.964" y1="-8.925" x2="-47.463" y2="29.733" xlink:href="#linear-gradient"/>
    <linearGradient id="linear-gradient-102" x1="17.973" y1="-10.15" x2="-45.438" y2="28.499" xlink:href="#linear-gradient"/>
    <linearGradient id="linear-gradient-103" x1="16.492" y1="-9.249" x2="-46.919" y2="29.408" xlink:href="#linear-gradient"/>
    <linearGradient id="linear-gradient-104" x1="18.451" y1="-10.444" x2="-44.974" y2="28.222" xlink:href="#linear-gradient"/>
    <linearGradient id="linear-gradient-105" x1="16.021" y1="-8.962" x2="-47.405" y2="29.704" xlink:href="#linear-gradient"/>
    <linearGradient id="linear-gradient-106" x1="16.97" y1="-9.543" x2="-46.455" y2="29.132" xlink:href="#linear-gradient"/>
    <linearGradient id="linear-gradient-107" x1="14.54" y1="-8.061" x2="-48.886" y2="30.614" xlink:href="#linear-gradient"/>
    <linearGradient id="linear-gradient-108" x1="20.408" y1="-11.631" x2="-43.019" y2="27.018" xlink:href="#linear-gradient"/>
    <linearGradient id="linear-gradient-109" x1="18.926" y1="-10.731" x2="-44.5" y2="27.927" xlink:href="#linear-gradient"/>
    <linearGradient id="linear-gradient-110" x1="20.935" y1="-11.952" x2="-42.476" y2="26.687" xlink:href="#linear-gradient"/>
    <linearGradient id="linear-gradient-111" x1="19.454" y1="-11.055" x2="-43.957" y2="27.602" xlink:href="#linear-gradient"/>
    <linearGradient id="linear-gradient-112" x1="21.414" y1="-12.253" x2="-42.011" y2="26.422" xlink:href="#linear-gradient"/>
    <linearGradient id="linear-gradient-113" x1="18.984" y1="-10.771" x2="-44.442" y2="27.904" xlink:href="#linear-gradient"/>
    <linearGradient id="linear-gradient-114" x1="19.933" y1="-11.35" x2="-43.493" y2="27.325" xlink:href="#linear-gradient"/>
    <linearGradient id="linear-gradient-115" x1="17.502" y1="-9.868" x2="-45.923" y2="28.808" xlink:href="#linear-gradient"/>
    <linearGradient id="linear-gradient-116" x1="23.37" y1="-13.433" x2="-40.056" y2="25.207" xlink:href="#linear-gradient"/>
    <linearGradient id="linear-gradient-117" x1="21.889" y1="-12.536" x2="-41.537" y2="26.121" xlink:href="#linear-gradient"/>
    <linearGradient id="linear-gradient-118" x1="23.897" y1="-13.76" x2="-39.514" y2="24.888" xlink:href="#linear-gradient"/>
    <linearGradient id="linear-gradient-119" x1="22.416" y1="-12.861" x2="-40.995" y2="25.796" xlink:href="#linear-gradient"/>
    <linearGradient id="linear-gradient-120" x1="24.377" y1="-14.06" x2="-39.049" y2="24.616" xlink:href="#linear-gradient"/>
    <linearGradient id="linear-gradient-121" x1="21.946" y1="-12.578" x2="-41.479" y2="26.098" xlink:href="#linear-gradient"/>
    <linearGradient id="linear-gradient-122" x1="22.896" y1="-13.153" x2="-40.53" y2="25.513" xlink:href="#linear-gradient"/>
    <linearGradient id="linear-gradient-123" x1="20.465" y1="-11.671" x2="-42.961" y2="26.995" xlink:href="#linear-gradient"/>
    <linearGradient id="linear-gradient-124" x1="26.333" y1="-15.242" x2="-37.093" y2="23.407" xlink:href="#linear-gradient"/>
    <linearGradient id="linear-gradient-125" x1="24.852" y1="-14.342" x2="-38.575" y2="24.316" xlink:href="#linear-gradient"/>
    <linearGradient id="linear-gradient-126" x1="25.858" y1="-14.963" x2="-37.567" y2="23.712" xlink:href="#linear-gradient"/>
    <linearGradient id="linear-gradient-127" x1="23.428" y1="-13.481" x2="-39.998" y2="25.195" xlink:href="#linear-gradient"/>
    <linearGradient id="linear-gradient-128" x1="19.875" y1="-11.306" x2="-43.55" y2="27.342" xlink:href="#linear-gradient"/>
    <linearGradient id="linear-gradient-129" x1="18.394" y1="-10.406" x2="-45.032" y2="28.251" xlink:href="#linear-gradient"/>
    <linearGradient id="linear-gradient-130" x1="20.35" y1="-11.604" x2="-43.076" y2="27.071" xlink:href="#linear-gradient"/>
    <linearGradient id="linear-gradient-131" x1="17.915" y1="-10.122" x2="-45.496" y2="28.553" xlink:href="#linear-gradient"/>
    <linearGradient id="linear-gradient-132" x1="18.868" y1="-10.698" x2="-44.557" y2="27.968" xlink:href="#linear-gradient"/>
    <linearGradient id="linear-gradient-133" x1="16.434" y1="-9.216" x2="-46.977" y2="29.45" xlink:href="#linear-gradient"/>
    <linearGradient id="linear-gradient-134" x1="22.306" y1="-12.787" x2="-41.12" y2="25.861" xlink:href="#linear-gradient"/>
    <linearGradient id="linear-gradient-135" x1="20.824" y1="-11.888" x2="-42.602" y2="26.77" xlink:href="#linear-gradient"/>
    <linearGradient id="linear-gradient-136" x1="22.838" y1="-13.112" x2="-40.587" y2="25.537" xlink:href="#linear-gradient"/>
    <linearGradient id="linear-gradient-137" x1="21.357" y1="-12.212" x2="-42.069" y2="26.445" xlink:href="#linear-gradient"/>
    <linearGradient id="linear-gradient-138" x1="23.313" y1="-13.407" x2="-40.113" y2="25.259" xlink:href="#linear-gradient"/>
    <linearGradient id="linear-gradient-139" x1="20.877" y1="-11.926" x2="-42.534" y2="26.741" xlink:href="#linear-gradient"/>
    <linearGradient id="linear-gradient-140" x1="21.831" y1="-12.507" x2="-41.595" y2="26.168" xlink:href="#linear-gradient"/>
    <linearGradient id="linear-gradient-141" x1="19.396" y1="-11.025" x2="-44.015" y2="27.65" xlink:href="#linear-gradient"/>
    <linearGradient id="linear-gradient-142" x1="25.269" y1="-14.593" x2="-38.158" y2="24.056" xlink:href="#linear-gradient"/>
    <linearGradient id="linear-gradient-143" x1="23.787" y1="-13.693" x2="-39.639" y2="24.964" xlink:href="#linear-gradient"/>
    <linearGradient id="linear-gradient-144" x1="25.801" y1="-14.913" x2="-37.625" y2="23.726" xlink:href="#linear-gradient"/>
    <linearGradient id="linear-gradient-145" x1="24.319" y1="-14.018" x2="-39.106" y2="24.64" xlink:href="#linear-gradient"/>
    <linearGradient id="linear-gradient-146" x1="26.275" y1="-15.217" x2="-37.151" y2="23.458" xlink:href="#linear-gradient"/>
    <linearGradient id="linear-gradient-147" x1="23.839" y1="-13.735" x2="-39.572" y2="24.94" xlink:href="#linear-gradient"/>
    <linearGradient id="linear-gradient-148" x1="24.794" y1="-14.314" x2="-38.632" y2="24.361" xlink:href="#linear-gradient"/>
    <linearGradient id="linear-gradient-149" x1="22.358" y1="-12.832" x2="-41.053" y2="25.844" xlink:href="#linear-gradient"/>
    <linearGradient id="linear-gradient-150" x1="28.231" y1="-16.394" x2="-35.195" y2="22.245" xlink:href="#linear-gradient"/>
    <linearGradient id="linear-gradient-151" x1="26.75" y1="-15.499" x2="-36.676" y2="23.158" xlink:href="#linear-gradient"/>
    <linearGradient id="linear-gradient-152" x1="28.763" y1="-16.722" x2="-34.662" y2="21.926" xlink:href="#linear-gradient"/>
    <linearGradient id="linear-gradient-153" x1="27.282" y1="-15.823" x2="-36.143" y2="22.834" xlink:href="#linear-gradient"/>
    <linearGradient id="linear-gradient-154" x1="29.238" y1="-17.024" x2="-34.188" y2="21.652" xlink:href="#linear-gradient"/>
    <linearGradient id="linear-gradient-155" x1="26.802" y1="-15.542" x2="-36.61" y2="23.134" xlink:href="#linear-gradient"/>
    <linearGradient id="linear-gradient-156" x1="27.757" y1="-16.117" x2="-35.669" y2="22.55" xlink:href="#linear-gradient"/>
    <linearGradient id="linear-gradient-157" x1="25.32" y1="-14.635" x2="-38.091" y2="24.032" xlink:href="#linear-gradient"/>
    <linearGradient id="linear-gradient-158" x1="31.194" y1="-18.203" x2="-32.232" y2="20.445" xlink:href="#linear-gradient"/>
    <linearGradient id="linear-gradient-159" x1="29.713" y1="-17.305" x2="-33.713" y2="21.353" xlink:href="#linear-gradient"/>
    <linearGradient id="linear-gradient-160" x1="30.72" y1="-17.927" x2="-32.707" y2="20.748" xlink:href="#linear-gradient"/>
    <linearGradient id="linear-gradient-161" x1="28.283" y1="-16.445" x2="-35.129" y2="22.231" xlink:href="#linear-gradient"/>
    <linearGradient id="linear-gradient-162" x1="24.736" y1="-14.269" x2="-38.69" y2="24.38" xlink:href="#linear-gradient"/>
    <linearGradient id="linear-gradient-163" x1="23.255" y1="-13.369" x2="-40.171" y2="25.289" xlink:href="#linear-gradient"/>
    <linearGradient id="linear-gradient-164" x1="25.211" y1="-14.568" x2="-38.215" y2="24.108" xlink:href="#linear-gradient"/>
    <linearGradient id="linear-gradient-165" x1="22.78" y1="-13.086" x2="-40.646" y2="25.589" xlink:href="#linear-gradient"/>
    <linearGradient id="linear-gradient-166" x1="23.73" y1="-13.662" x2="-39.697" y2="25.005" xlink:href="#linear-gradient"/>
    <linearGradient id="linear-gradient-167" x1="21.299" y1="-12.18" x2="-42.127" y2="26.487" xlink:href="#linear-gradient"/>
    <linearGradient id="linear-gradient-168" x1="27.173" y1="-15.749" x2="-36.267" y2="22.899" xlink:href="#linear-gradient"/>
    <linearGradient id="linear-gradient-169" x1="25.691" y1="-14.85" x2="-37.749" y2="23.807" xlink:href="#linear-gradient"/>
    <linearGradient id="linear-gradient-170" x1="27.699" y1="-16.074" x2="-35.727" y2="22.575" xlink:href="#linear-gradient"/>
    <linearGradient id="linear-gradient-171" x1="26.218" y1="-15.175" x2="-37.208" y2="23.483" xlink:href="#linear-gradient"/>
    <linearGradient id="linear-gradient-172" x1="28.174" y1="-16.371" x2="-35.253" y2="22.296" xlink:href="#linear-gradient"/>
    <linearGradient id="linear-gradient-173" x1="25.743" y1="-14.889" x2="-37.683" y2="23.777" xlink:href="#linear-gradient"/>
    <linearGradient id="linear-gradient-174" x1="26.692" y1="-15.471" x2="-36.734" y2="23.204" xlink:href="#linear-gradient"/>
    <linearGradient id="linear-gradient-175" x1="24.262" y1="-13.989" x2="-39.164" y2="24.686" xlink:href="#linear-gradient"/>
    <linearGradient id="linear-gradient-176" x1="30.136" y1="-17.555" x2="-33.304" y2="21.094" xlink:href="#linear-gradient"/>
    <linearGradient id="linear-gradient-177" x1="28.655" y1="-16.656" x2="-34.786" y2="22.002" xlink:href="#linear-gradient"/>
    <linearGradient id="linear-gradient-178" x1="30.662" y1="-17.875" x2="-32.764" y2="20.765" xlink:href="#linear-gradient"/>
    <linearGradient id="linear-gradient-179" x1="29.18" y1="-16.98" x2="-34.246" y2="21.677" xlink:href="#linear-gradient"/>
    <linearGradient id="linear-gradient-180" x1="31.136" y1="-18.181" x2="-32.29" y2="20.494" xlink:href="#linear-gradient"/>
    <linearGradient id="linear-gradient-181" x1="28.706" y1="-16.699" x2="-34.72" y2="21.976" xlink:href="#linear-gradient"/>
    <linearGradient id="linear-gradient-182" x1="29.655" y1="-17.278" x2="-33.771" y2="21.398" xlink:href="#linear-gradient"/>
    <linearGradient id="linear-gradient-183" x1="27.224" y1="-15.796" x2="-36.201" y2="22.879" xlink:href="#linear-gradient"/>
    <linearGradient id="linear-gradient-184" x1="33.1" y1="-19.355" x2="-30.34" y2="19.284" xlink:href="#linear-gradient"/>
    <linearGradient id="linear-gradient-185" x1="31.618" y1="-18.462" x2="-31.822" y2="20.196" xlink:href="#linear-gradient"/>
    <linearGradient id="linear-gradient-186" x1="33.625" y1="-19.684" x2="-29.801" y2="18.964" xlink:href="#linear-gradient"/>
    <linearGradient id="linear-gradient-187" x1="32.143" y1="-18.786" x2="-31.283" y2="19.871" xlink:href="#linear-gradient"/>
    <linearGradient id="linear-gradient-188" x1="34.099" y1="-19.988" x2="-29.327" y2="18.688" xlink:href="#linear-gradient"/>
    <linearGradient id="linear-gradient-189" x1="31.668" y1="-18.505" x2="-31.758" y2="20.17" xlink:href="#linear-gradient"/>
    <linearGradient id="linear-gradient-190" x1="32.618" y1="-19.08" x2="-30.808" y2="19.587" xlink:href="#linear-gradient"/>
    <linearGradient id="linear-gradient-191" x1="30.187" y1="-17.598" x2="-33.239" y2="21.068" xlink:href="#linear-gradient"/>
    <linearGradient id="linear-gradient-192" x1="36.063" y1="-21.165" x2="-27.377" y2="17.483" xlink:href="#linear-gradient"/>
    <linearGradient id="linear-gradient-193" x1="34.582" y1="-20.268" x2="-28.859" y2="18.39" xlink:href="#linear-gradient"/>
    <linearGradient id="linear-gradient-194" x1="35.581" y1="-20.891" x2="-27.846" y2="17.784" xlink:href="#linear-gradient"/>
    <linearGradient id="linear-gradient-195" x1="33.15" y1="-19.409" x2="-30.276" y2="19.266" xlink:href="#linear-gradient"/>
    <linearGradient id="linear-gradient-196" x1="29.597" y1="-17.23" x2="-33.828" y2="21.418" xlink:href="#linear-gradient"/>
    <linearGradient id="linear-gradient-197" x1="28.116" y1="-16.332" x2="-35.31" y2="22.326" xlink:href="#linear-gradient"/>
    <linearGradient id="linear-gradient-198" x1="30.065" y1="-17.532" x2="-33.346" y2="21.143" xlink:href="#linear-gradient"/>
    <linearGradient id="linear-gradient-199" x1="27.641" y1="-16.05" x2="-35.784" y2="22.625" xlink:href="#linear-gradient"/>
    <linearGradient id="linear-gradient-200" x1="28.584" y1="-16.625" x2="-34.827" y2="22.041" xlink:href="#linear-gradient"/>
    <linearGradient id="linear-gradient-201" x1="26.16" y1="-15.143" x2="-37.266" y2="23.523" xlink:href="#linear-gradient"/>
    <linearGradient id="linear-gradient-202" x1="32.035" y1="-18.712" x2="-31.406" y2="19.937" xlink:href="#linear-gradient"/>
    <linearGradient id="linear-gradient-203" x1="30.554" y1="-17.813" x2="-32.888" y2="20.845" xlink:href="#linear-gradient"/>
    <linearGradient id="linear-gradient-204" x1="32.56" y1="-19.036" x2="-30.866" y2="19.612" xlink:href="#linear-gradient"/>
    <linearGradient id="linear-gradient-205" x1="31.078" y1="-18.137" x2="-32.347" y2="20.52" xlink:href="#linear-gradient"/>
    <linearGradient id="linear-gradient-206" x1="33.027" y1="-19.334" x2="-30.384" y2="19.332" xlink:href="#linear-gradient"/>
    <linearGradient id="linear-gradient-207" x1="30.604" y1="-17.852" x2="-32.822" y2="20.814" xlink:href="#linear-gradient"/>
    <linearGradient id="linear-gradient-208" x1="31.546" y1="-18.435" x2="-31.865" y2="20.24" xlink:href="#linear-gradient"/>
    <linearGradient id="linear-gradient-209" x1="29.122" y1="-16.953" x2="-34.303" y2="21.722" xlink:href="#linear-gradient"/>
    <linearGradient id="linear-gradient-210" x1="34.999" y1="-20.517" x2="-28.442" y2="18.132" xlink:href="#linear-gradient"/>
    <linearGradient id="linear-gradient-211" x1="33.517" y1="-19.619" x2="-29.924" y2="19.039" xlink:href="#linear-gradient"/>
    <linearGradient id="linear-gradient-212" x1="35.522" y1="-20.836" x2="-27.903" y2="17.803" xlink:href="#linear-gradient"/>
    <linearGradient id="linear-gradient-213" x1="34.039" y1="-19.942" x2="-29.383" y2="18.713" xlink:href="#linear-gradient"/>
    <linearGradient id="linear-gradient-214" x1="35.989" y1="-21.145" x2="-27.422" y2="17.53" xlink:href="#linear-gradient"/>
    <linearGradient id="linear-gradient-215" x1="33.567" y1="-19.663" x2="-29.859" y2="19.012" xlink:href="#linear-gradient"/>
    <linearGradient id="linear-gradient-216" x1="34.508" y1="-20.242" x2="-28.903" y2="18.433" xlink:href="#linear-gradient"/>
    <linearGradient id="linear-gradient-217" x1="32.085" y1="-18.76" x2="-31.34" y2="19.915" xlink:href="#linear-gradient"/>
    <linearGradient id="linear-gradient-218" x1="37.962" y1="-22.317" x2="-25.479" y2="16.323" xlink:href="#linear-gradient"/>
    <linearGradient id="linear-gradient-219" x1="36.48" y1="-21.425" x2="-26.961" y2="17.233" xlink:href="#linear-gradient"/>
    <linearGradient id="linear-gradient-220" x1="38.485" y1="-22.646" x2="-24.94" y2="16.002" xlink:href="#linear-gradient"/>
    <linearGradient id="linear-gradient-221" x1="37.004" y1="-21.749" x2="-26.422" y2="16.908" xlink:href="#linear-gradient"/>
    <linearGradient id="linear-gradient-222" x1="38.951" y1="-22.952" x2="-24.46" y2="15.723" xlink:href="#linear-gradient"/>
    <linearGradient id="linear-gradient-223" x1="36.529" y1="-21.47" x2="-26.896" y2="17.205" xlink:href="#linear-gradient"/>
    <linearGradient id="linear-gradient-224" x1="37.47" y1="-22.043" x2="-25.941" y2="16.623" xlink:href="#linear-gradient"/>
    <linearGradient id="linear-gradient-225" x1="35.048" y1="-20.561" x2="-28.378" y2="18.105" xlink:href="#linear-gradient"/>
    <linearGradient id="linear-gradient-226" x1="40.926" y1="-24.128" x2="-22.515" y2="14.521" xlink:href="#linear-gradient"/>
    <linearGradient id="linear-gradient-227" x1="39.444" y1="-23.231" x2="-23.997" y2="15.427" xlink:href="#linear-gradient"/>
    <linearGradient id="linear-gradient-228" x1="40.432" y1="-23.855" x2="-22.979" y2="14.82" xlink:href="#linear-gradient"/>
    <linearGradient id="linear-gradient-229" x1="38.011" y1="-22.373" x2="-25.415" y2="16.302" xlink:href="#linear-gradient"/>
    <linearGradient id="linear-gradient-230" x1="34.45" y1="-20.192" x2="-28.961" y2="18.456" xlink:href="#linear-gradient"/>
    <linearGradient id="linear-gradient-231" x1="32.969" y1="-19.294" x2="-30.442" y2="19.363" xlink:href="#linear-gradient"/>
    <linearGradient id="linear-gradient-232" x1="34.933" y1="-20.496" x2="-28.493" y2="18.179" xlink:href="#linear-gradient"/>
    <linearGradient id="linear-gradient-233" x1="32.502" y1="-19.014" x2="-30.924" y2="19.661" xlink:href="#linear-gradient"/>
    <linearGradient id="linear-gradient-234" x1="33.451" y1="-19.588" x2="-29.974" y2="19.078" xlink:href="#linear-gradient"/>
    <linearGradient id="linear-gradient-235" x1="31.021" y1="-18.107" x2="-32.405" y2="20.56" xlink:href="#linear-gradient"/>
    <linearGradient id="linear-gradient-236" x1="36.889" y1="-21.674" x2="-26.537" y2="16.975" xlink:href="#linear-gradient"/>
    <linearGradient id="linear-gradient-237" x1="35.408" y1="-20.776" x2="-28.019" y2="17.882" xlink:href="#linear-gradient"/>
    <linearGradient id="linear-gradient-238" x1="37.412" y1="-21.998" x2="-25.999" y2="16.651" xlink:href="#linear-gradient"/>
    <linearGradient id="linear-gradient-239" x1="35.931" y1="-21.1" x2="-27.48" y2="17.557" xlink:href="#linear-gradient"/>
    <linearGradient id="linear-gradient-240" x1="37.896" y1="-22.297" x2="-25.53" y2="16.369" xlink:href="#linear-gradient"/>
    <linearGradient id="linear-gradient-241" x1="35.465" y1="-20.816" x2="-27.961" y2="17.851" xlink:href="#linear-gradient"/>
    <linearGradient id="linear-gradient-242" x1="36.414" y1="-21.399" x2="-27.012" y2="17.276" xlink:href="#linear-gradient"/>
    <linearGradient id="linear-gradient-243" x1="33.984" y1="-19.917" x2="-29.442" y2="18.758" xlink:href="#linear-gradient"/>
    <linearGradient id="linear-gradient-244" x1="39.852" y1="-23.479" x2="-23.575" y2="15.17" xlink:href="#linear-gradient"/>
    <linearGradient id="linear-gradient-245" x1="38.371" y1="-22.582" x2="-25.056" y2="16.076" xlink:href="#linear-gradient"/>
    <linearGradient id="linear-gradient-246" x1="40.374" y1="-23.797" x2="-23.037" y2="14.842" xlink:href="#linear-gradient"/>
    <linearGradient id="linear-gradient-247" x1="38.893" y1="-22.906" x2="-24.518" y2="15.752" xlink:href="#linear-gradient"/>
    <linearGradient id="linear-gradient-248" x1="40.858" y1="-24.109" x2="-22.567" y2="14.566" xlink:href="#linear-gradient"/>
    <linearGradient id="linear-gradient-249" x1="38.428" y1="-22.627" x2="-24.998" y2="16.048" xlink:href="#linear-gradient"/>
    <linearGradient id="linear-gradient-250" x1="39.377" y1="-23.206" x2="-24.049" y2="15.469" xlink:href="#linear-gradient"/>
    <linearGradient id="linear-gradient-251" x1="36.946" y1="-21.724" x2="-26.48" y2="16.951" xlink:href="#linear-gradient"/>
    <linearGradient id="linear-gradient-252" x1="42.815" y1="-25.278" x2="-20.612" y2="13.361" xlink:href="#linear-gradient"/>
    <linearGradient id="linear-gradient-253" x1="41.333" y1="-24.387" x2="-22.093" y2="14.27" xlink:href="#linear-gradient"/>
    <linearGradient id="linear-gradient-254" x1="43.336" y1="-25.608" x2="-20.075" y2="13.04" xlink:href="#linear-gradient"/>
    <linearGradient id="linear-gradient-255" x1="41.855" y1="-24.712" x2="-21.556" y2="13.946" xlink:href="#linear-gradient"/>
    <linearGradient id="linear-gradient-256" x1="43.821" y1="-25.916" x2="-19.605" y2="12.759" xlink:href="#linear-gradient"/>
    <linearGradient id="linear-gradient-257" x1="41.391" y1="-24.434" x2="-22.036" y2="14.241" xlink:href="#linear-gradient"/>
    <linearGradient id="linear-gradient-258" x1="42.34" y1="-25.007" x2="-21.086" y2="13.66" xlink:href="#linear-gradient"/>
    <linearGradient id="linear-gradient-259" x1="39.909" y1="-23.525" x2="-23.517" y2="15.141" xlink:href="#linear-gradient"/>
    <linearGradient id="linear-gradient-260" x1="45.777" y1="-27.09" x2="-17.649" y2="11.559" xlink:href="#linear-gradient"/>
    <linearGradient id="linear-gradient-261" x1="44.296" y1="-26.193" x2="-19.13" y2="12.465" xlink:href="#linear-gradient"/>
    <linearGradient id="linear-gradient-262" x1="45.303" y1="-26.819" x2="-18.123" y2="11.856" xlink:href="#linear-gradient"/>
    <linearGradient id="linear-gradient-263" x1="42.872" y1="-25.337" x2="-20.554" y2="13.338" xlink:href="#linear-gradient"/>
    <linearGradient id="linear-gradient-264" x1="37.355" y1="-21.979" x2="-26.057" y2="16.697" xlink:href="#linear-gradient"/>
    <linearGradient id="linear-gradient-265" x1="35.874" y1="-21.07" x2="-27.538" y2="17.597" xlink:href="#linear-gradient"/>
    <linearGradient id="linear-gradient-266" x1="40.317" y1="-23.78" x2="-23.095" y2="14.887" xlink:href="#linear-gradient"/>
    <linearGradient id="linear-gradient-267" x1="38.836" y1="-22.882" x2="-24.576" y2="15.794" xlink:href="#linear-gradient"/>
    <linearGradient id="linear-gradient-268" x1="43.279" y1="-25.592" x2="-20.133" y2="13.084" xlink:href="#linear-gradient"/>
    <linearGradient id="linear-gradient-269" x1="41.798" y1="-24.689" x2="-21.614" y2="13.987" xlink:href="#linear-gradient"/>
    <linearGradient id="linear-gradient-270" x1="46.242" y1="-27.399" x2="-17.171" y2="11.278" xlink:href="#linear-gradient"/>
    <linearGradient id="linear-gradient-271" x1="44.761" y1="-26.489" x2="-18.652" y2="12.178" xlink:href="#linear-gradient"/>
    <linearGradient id="linear-gradient-272" x1="47.723" y1="-28.302" x2="-15.69" y2="10.374" xlink:href="#linear-gradient"/>
  </defs>
  <g id="Groupe_539" data-name="Groupe 539" transform="translate(-130.391 23.76)">
    <path id="Tracé_2025" data-name="Tracé 2025" d="M355.345-2.16a1.752,1.752,0,0,0-1.752,1.752,1.752,1.752,0,0,0,1.752,1.753A1.752,1.752,0,0,0,357.1-.408,1.752,1.752,0,0,0,355.345-2.16Z" transform="translate(-42.185 -4.082)" fill="url(#linear-gradient)"/>
    <path id="Tracé_2026" data-name="Tracé 2026" d="M355.345-13.056a1.752,1.752,0,0,0,1.752-1.752,1.751,1.751,0,0,0-1.752-1.752,1.751,1.751,0,0,0-1.752,1.752A1.752,1.752,0,0,0,355.345-13.056Z" transform="translate(-42.185 -1.361)" fill="url(#linear-gradient-2)"/>
    <path id="Tracé_2027" data-name="Tracé 2027" d="M348.145-9.359a1.751,1.751,0,0,0-1.752,1.75,1.752,1.752,0,0,0,1.752,1.752A1.752,1.752,0,0,0,349.9-7.609,1.751,1.751,0,0,0,348.145-9.359Z" transform="translate(-40.824 -2.722)" fill="url(#linear-gradient-3)"/>
    <path id="Tracé_2028" data-name="Tracé 2028" d="M348.145-23.76a1.752,1.752,0,0,0-1.752,1.752,1.752,1.752,0,0,0,1.752,1.751,1.752,1.752,0,0,0,1.752-1.751A1.752,1.752,0,0,0,348.145-23.76Z" transform="translate(-40.824 0)" fill="url(#linear-gradient-4)"/>
    <path id="Tracé_2029" data-name="Tracé 2029" d="M340.945-2.16a1.745,1.745,0,0,0-.98.3,1.75,1.75,0,0,0-.772,1.453,1.752,1.752,0,0,0,.772,1.453,1.745,1.745,0,0,0,.98.3A1.752,1.752,0,0,0,342.7-.408,1.752,1.752,0,0,0,340.945-2.16Z" transform="translate(-39.463 -4.082)" fill="url(#linear-gradient-5)"/>
    <path id="Tracé_2030" data-name="Tracé 2030" d="M340.945-16.56a1.745,1.745,0,0,0-.98.3,1.752,1.752,0,0,0-.772,1.453,1.75,1.75,0,0,0,.772,1.453,1.745,1.745,0,0,0,.98.3,1.752,1.752,0,0,0,1.751-1.752A1.751,1.751,0,0,0,340.945-16.56Z" transform="translate(-39.463 -1.361)" fill="url(#linear-gradient-6)"/>
    <path id="Tracé_2031" data-name="Tracé 2031" d="M355.345,26.641a1.752,1.752,0,1,0,1.752,1.752A1.751,1.751,0,0,0,355.345,26.641Z" transform="translate(-42.185 -9.526)" fill="url(#linear-gradient-7)"/>
    <path id="Tracé_2032" data-name="Tracé 2032" d="M355.345,12.24a1.752,1.752,0,1,0,1.752,1.752A1.752,1.752,0,0,0,355.345,12.24Z" transform="translate(-42.185 -6.804)" fill="url(#linear-gradient-8)"/>
    <path id="Tracé_2033" data-name="Tracé 2033" d="M348.145,19.441a1.751,1.751,0,1,0,1.752,1.751A1.752,1.752,0,0,0,348.145,19.441Z" transform="translate(-40.824 -8.165)" fill="url(#linear-gradient-9)"/>
    <path id="Tracé_2034" data-name="Tracé 2034" d="M348.145,5.041A1.751,1.751,0,1,0,349.9,6.793,1.752,1.752,0,0,0,348.145,5.041Z" transform="translate(-40.824 -5.443)" fill="url(#linear-gradient-10)"/>
    <path id="Tracé_2035" data-name="Tracé 2035" d="M340.945,26.641a1.752,1.752,0,1,0,1.751,1.752A1.745,1.745,0,0,0,340.945,26.641Z" transform="translate(-39.463 -9.526)" fill="url(#linear-gradient-11)"/>
    <path id="Tracé_2036" data-name="Tracé 2036" d="M340.945,12.24a1.752,1.752,0,1,0,1.751,1.752A1.745,1.745,0,0,0,340.945,12.24Z" transform="translate(-39.463 -6.804)" fill="url(#linear-gradient-12)"/>
    <path id="Tracé_2037" data-name="Tracé 2037" d="M355.345,55.441a1.753,1.753,0,1,0,1.752,1.752A1.752,1.752,0,0,0,355.345,55.441Z" transform="translate(-42.185 -14.969)" fill="url(#linear-gradient-13)"/>
    <path id="Tracé_2038" data-name="Tracé 2038" d="M355.345,41.041a1.752,1.752,0,1,0,1.752,1.752A1.752,1.752,0,0,0,355.345,41.041Z" transform="translate(-42.185 -12.247)" fill="url(#linear-gradient-14)"/>
    <path id="Tracé_2039" data-name="Tracé 2039" d="M348.145,48.242a1.751,1.751,0,1,0,1.752,1.75A1.751,1.751,0,0,0,348.145,48.242Z" transform="translate(-40.824 -13.608)" fill="url(#linear-gradient-15)"/>
    <path id="Tracé_2040" data-name="Tracé 2040" d="M348.145,33.842a1.751,1.751,0,1,0,1.752,1.752A1.752,1.752,0,0,0,348.145,33.842Z" transform="translate(-40.824 -10.887)" fill="url(#linear-gradient-16)"/>
    <path id="Tracé_2041" data-name="Tracé 2041" d="M340.945,55.441a1.753,1.753,0,1,0,1.751,1.752A1.745,1.745,0,0,0,340.945,55.441Z" transform="translate(-39.463 -14.969)" fill="url(#linear-gradient-17)"/>
    <path id="Tracé_2042" data-name="Tracé 2042" d="M340.945,41.041a1.752,1.752,0,1,0,1.751,1.752A1.745,1.745,0,0,0,340.945,41.041Z" transform="translate(-39.463 -12.247)" fill="url(#linear-gradient-18)"/>
    <path id="Tracé_2043" data-name="Tracé 2043" d="M355.345,84.242a1.752,1.752,0,1,0,1.752,1.752A1.752,1.752,0,0,0,355.345,84.242Z" transform="translate(-42.185 -20.412)" fill="url(#linear-gradient-19)"/>
    <path id="Tracé_2044" data-name="Tracé 2044" d="M355.345,69.842a1.752,1.752,0,1,0,1.752,1.752A1.752,1.752,0,0,0,355.345,69.842Z" transform="translate(-42.185 -17.691)" fill="url(#linear-gradient-20)"/>
    <path id="Tracé_2045" data-name="Tracé 2045" d="M348.145,77.043a1.751,1.751,0,1,0,1.752,1.75A1.751,1.751,0,0,0,348.145,77.043Z" transform="translate(-40.824 -19.052)" fill="url(#linear-gradient-21)"/>
    <path id="Tracé_2046" data-name="Tracé 2046" d="M348.145,62.642a1.751,1.751,0,1,0,1.752,1.753A1.752,1.752,0,0,0,348.145,62.642Z" transform="translate(-40.824 -16.33)" fill="url(#linear-gradient-22)"/>
    <path id="Tracé_2047" data-name="Tracé 2047" d="M340.945,84.242a1.752,1.752,0,1,0,1.751,1.752A1.745,1.745,0,0,0,340.945,84.242Z" transform="translate(-39.463 -20.412)" fill="url(#linear-gradient-23)"/>
    <path id="Tracé_2048" data-name="Tracé 2048" d="M340.945,69.842a1.752,1.752,0,1,0,1.751,1.752A1.745,1.745,0,0,0,340.945,69.842Z" transform="translate(-39.463 -17.691)" fill="url(#linear-gradient-24)"/>
    <path id="Tracé_2049" data-name="Tracé 2049" d="M348.145,91.443a1.751,1.751,0,1,0,1.752,1.752A1.752,1.752,0,0,0,348.145,91.443Z" transform="translate(-40.824 -21.773)" fill="url(#linear-gradient-25)"/>
    <path id="Tracé_2050" data-name="Tracé 2050" d="M326.545-2.16a1.752,1.752,0,0,0-1.752,1.752,1.752,1.752,0,0,0,1.752,1.753A1.753,1.753,0,0,0,328.3-.408,1.752,1.752,0,0,0,326.545-2.16Z" transform="translate(-36.741 -4.082)" fill="url(#linear-gradient-26)"/>
    <path id="Tracé_2051" data-name="Tracé 2051" d="M326.545-16.56a1.751,1.751,0,0,0-1.752,1.752,1.752,1.752,0,0,0,1.752,1.752,1.752,1.752,0,0,0,1.752-1.752A1.752,1.752,0,0,0,326.545-16.56Z" transform="translate(-36.741 -1.361)" fill="url(#linear-gradient-27)"/>
    <path id="Tracé_2052" data-name="Tracé 2052" d="M319.345-9.359a1.75,1.75,0,0,0-1.752,1.75,1.751,1.751,0,0,0,1.752,1.752A1.752,1.752,0,0,0,321.1-7.609,1.751,1.751,0,0,0,319.345-9.359Z" transform="translate(-35.381 -2.722)" fill="url(#linear-gradient-28)"/>
    <path id="Tracé_2053" data-name="Tracé 2053" d="M333.745-9.359a1.751,1.751,0,0,0-1.752,1.75,1.752,1.752,0,0,0,1.752,1.752A1.752,1.752,0,0,0,335.5-7.609,1.751,1.751,0,0,0,333.745-9.359Z" transform="translate(-38.102 -2.722)" fill="url(#linear-gradient-29)"/>
    <path id="Tracé_2054" data-name="Tracé 2054" d="M319.345-23.76a1.751,1.751,0,0,0-1.752,1.752,1.751,1.751,0,0,0,1.752,1.751,1.752,1.752,0,0,0,1.752-1.751A1.752,1.752,0,0,0,319.345-23.76Z" transform="translate(-35.381 0)" fill="url(#linear-gradient-30)"/>
    <path id="Tracé_2055" data-name="Tracé 2055" d="M333.745-23.76a1.752,1.752,0,0,0-1.752,1.752,1.752,1.752,0,0,0,1.752,1.751,1.752,1.752,0,0,0,1.752-1.751A1.752,1.752,0,0,0,333.745-23.76Z" transform="translate(-38.102 0)" fill="url(#linear-gradient-31)"/>
    <path id="Tracé_2056" data-name="Tracé 2056" d="M312.145-2.16a1.745,1.745,0,0,0-.98.3,1.75,1.75,0,0,0-.772,1.453,1.752,1.752,0,0,0,.772,1.453,1.745,1.745,0,0,0,.98.3A1.753,1.753,0,0,0,313.9-.408,1.752,1.752,0,0,0,312.145-2.16Z" transform="translate(-34.02 -4.082)" fill="url(#linear-gradient-32)"/>
    <path id="Tracé_2057" data-name="Tracé 2057" d="M312.145-16.56a1.745,1.745,0,0,0-.98.3,1.752,1.752,0,0,0-.772,1.453,1.75,1.75,0,0,0,.772,1.453,1.745,1.745,0,0,0,.98.3,1.752,1.752,0,0,0,1.751-1.752A1.752,1.752,0,0,0,312.145-16.56Z" transform="translate(-34.02 -1.361)" fill="url(#linear-gradient-33)"/>
    <path id="Tracé_2058" data-name="Tracé 2058" d="M326.545,26.641a1.752,1.752,0,1,0,1.752,1.752A1.751,1.751,0,0,0,326.545,26.641Z" transform="translate(-36.741 -9.526)" fill="url(#linear-gradient-34)"/>
    <path id="Tracé_2059" data-name="Tracé 2059" d="M326.545,12.24a1.752,1.752,0,1,0,1.752,1.752A1.752,1.752,0,0,0,326.545,12.24Z" transform="translate(-36.741 -6.804)" fill="url(#linear-gradient-35)"/>
    <path id="Tracé_2060" data-name="Tracé 2060" d="M319.345,19.441a1.751,1.751,0,1,0,1.752,1.751A1.751,1.751,0,0,0,319.345,19.441Z" transform="translate(-35.381 -8.165)" fill="url(#linear-gradient-36)"/>
    <path id="Tracé_2061" data-name="Tracé 2061" d="M333.745,19.441a1.751,1.751,0,1,0,1.752,1.751A1.752,1.752,0,0,0,333.745,19.441Z" transform="translate(-38.102 -8.165)" fill="url(#linear-gradient-37)"/>
    <path id="Tracé_2062" data-name="Tracé 2062" d="M319.345,5.041A1.751,1.751,0,1,0,321.1,6.793,1.751,1.751,0,0,0,319.345,5.041Z" transform="translate(-35.381 -5.443)" fill="url(#linear-gradient-38)"/>
    <path id="Tracé_2063" data-name="Tracé 2063" d="M333.745,5.041A1.751,1.751,0,1,0,335.5,6.793,1.752,1.752,0,0,0,333.745,5.041Z" transform="translate(-38.102 -5.443)" fill="url(#linear-gradient-39)"/>
    <path id="Tracé_2064" data-name="Tracé 2064" d="M312.145,26.641a1.752,1.752,0,1,0,1.751,1.752A1.744,1.744,0,0,0,312.145,26.641Z" transform="translate(-34.02 -9.526)" fill="url(#linear-gradient-40)"/>
    <path id="Tracé_2065" data-name="Tracé 2065" d="M312.145,12.24a1.752,1.752,0,1,0,1.751,1.752A1.745,1.745,0,0,0,312.145,12.24Z" transform="translate(-34.02 -6.804)" fill="url(#linear-gradient-41)"/>
    <path id="Tracé_2066" data-name="Tracé 2066" d="M326.545,55.441a1.753,1.753,0,1,0,1.752,1.752A1.752,1.752,0,0,0,326.545,55.441Z" transform="translate(-36.741 -14.969)" fill="url(#linear-gradient-42)"/>
    <path id="Tracé_2067" data-name="Tracé 2067" d="M326.545,41.041a1.752,1.752,0,1,0,1.752,1.752A1.752,1.752,0,0,0,326.545,41.041Z" transform="translate(-36.741 -12.247)" fill="url(#linear-gradient-43)"/>
    <path id="Tracé_2068" data-name="Tracé 2068" d="M319.345,48.242a1.751,1.751,0,1,0,1.752,1.75A1.751,1.751,0,0,0,319.345,48.242Z" transform="translate(-35.381 -13.608)" fill="url(#linear-gradient-44)"/>
    <path id="Tracé_2069" data-name="Tracé 2069" d="M333.745,48.242a1.751,1.751,0,1,0,1.752,1.75A1.751,1.751,0,0,0,333.745,48.242Z" transform="translate(-38.102 -13.608)" fill="url(#linear-gradient-45)"/>
    <path id="Tracé_2070" data-name="Tracé 2070" d="M319.345,33.842a1.751,1.751,0,1,0,1.752,1.752A1.751,1.751,0,0,0,319.345,33.842Z" transform="translate(-35.381 -10.887)" fill="url(#linear-gradient-46)"/>
    <path id="Tracé_2071" data-name="Tracé 2071" d="M333.745,33.842a1.751,1.751,0,1,0,1.752,1.752A1.752,1.752,0,0,0,333.745,33.842Z" transform="translate(-38.102 -10.887)" fill="url(#linear-gradient-47)"/>
    <path id="Tracé_2072" data-name="Tracé 2072" d="M312.145,55.441a1.753,1.753,0,1,0,1.751,1.752A1.745,1.745,0,0,0,312.145,55.441Z" transform="translate(-34.02 -14.969)" fill="url(#linear-gradient-48)"/>
    <path id="Tracé_2073" data-name="Tracé 2073" d="M312.145,41.041a1.752,1.752,0,1,0,1.751,1.752A1.745,1.745,0,0,0,312.145,41.041Z" transform="translate(-34.02 -12.247)" fill="url(#linear-gradient-49)"/>
    <path id="Tracé_2074" data-name="Tracé 2074" d="M326.545,84.242a1.752,1.752,0,1,0,1.752,1.752A1.752,1.752,0,0,0,326.545,84.242Z" transform="translate(-36.741 -20.412)" fill="url(#linear-gradient-50)"/>
    <path id="Tracé_2075" data-name="Tracé 2075" d="M326.545,69.842a1.752,1.752,0,1,0,1.752,1.752A1.752,1.752,0,0,0,326.545,69.842Z" transform="translate(-36.741 -17.691)" fill="url(#linear-gradient-51)"/>
    <path id="Tracé_2076" data-name="Tracé 2076" d="M319.345,77.043a1.751,1.751,0,1,0,1.752,1.75A1.751,1.751,0,0,0,319.345,77.043Z" transform="translate(-35.381 -19.052)" fill="url(#linear-gradient-52)"/>
    <path id="Tracé_2077" data-name="Tracé 2077" d="M333.745,77.043a1.751,1.751,0,1,0,1.752,1.75A1.751,1.751,0,0,0,333.745,77.043Z" transform="translate(-38.102 -19.052)" fill="url(#linear-gradient-53)"/>
    <path id="Tracé_2078" data-name="Tracé 2078" d="M319.345,62.642a1.751,1.751,0,1,0,1.752,1.753A1.751,1.751,0,0,0,319.345,62.642Z" transform="translate(-35.381 -16.33)" fill="url(#linear-gradient-54)"/>
    <path id="Tracé_2079" data-name="Tracé 2079" d="M333.745,62.642a1.751,1.751,0,1,0,1.752,1.753A1.752,1.752,0,0,0,333.745,62.642Z" transform="translate(-38.102 -16.33)" fill="url(#linear-gradient-55)"/>
    <path id="Tracé_2080" data-name="Tracé 2080" d="M312.145,84.242a1.752,1.752,0,1,0,1.751,1.752A1.745,1.745,0,0,0,312.145,84.242Z" transform="translate(-34.02 -20.412)" fill="url(#linear-gradient-56)"/>
    <path id="Tracé_2081" data-name="Tracé 2081" d="M312.145,69.842a1.752,1.752,0,1,0,1.751,1.752A1.745,1.745,0,0,0,312.145,69.842Z" transform="translate(-34.02 -17.691)" fill="url(#linear-gradient-57)"/>
    <path id="Tracé_2082" data-name="Tracé 2082" d="M319.345,91.443a1.751,1.751,0,1,0,1.752,1.752A1.751,1.751,0,0,0,319.345,91.443Z" transform="translate(-35.381 -21.773)" fill="url(#linear-gradient-58)"/>
    <path id="Tracé_2083" data-name="Tracé 2083" d="M333.745,91.443a1.751,1.751,0,1,0,1.752,1.752A1.752,1.752,0,0,0,333.745,91.443Z" transform="translate(-38.102 -21.773)" fill="url(#linear-gradient-59)"/>
    <path id="Tracé_2084" data-name="Tracé 2084" d="M297.745-2.16a1.751,1.751,0,0,0-1.752,1.752,1.752,1.752,0,0,0,1.752,1.753A1.753,1.753,0,0,0,299.5-.408,1.752,1.752,0,0,0,297.745-2.16Z" transform="translate(-31.298 -4.082)" fill="url(#linear-gradient-60)"/>
    <path id="Tracé_2085" data-name="Tracé 2085" d="M297.745-16.56a1.751,1.751,0,0,0-1.752,1.752,1.751,1.751,0,0,0,1.752,1.752,1.752,1.752,0,0,0,1.752-1.752A1.752,1.752,0,0,0,297.745-16.56Z" transform="translate(-31.298 -1.361)" fill="url(#linear-gradient-61)"/>
    <path id="Tracé_2086" data-name="Tracé 2086" d="M290.545-9.359a1.751,1.751,0,0,0-1.753,1.75,1.752,1.752,0,0,0,1.753,1.752A1.752,1.752,0,0,0,292.3-7.609,1.751,1.751,0,0,0,290.545-9.359Z" transform="translate(-29.937 -2.722)" fill="url(#linear-gradient-62)"/>
    <path id="Tracé_2087" data-name="Tracé 2087" d="M304.945-9.359a1.751,1.751,0,0,0-1.752,1.75,1.752,1.752,0,0,0,1.752,1.752A1.753,1.753,0,0,0,306.7-7.609,1.752,1.752,0,0,0,304.945-9.359Z" transform="translate(-32.659 -2.722)" fill="url(#linear-gradient-63)"/>
    <path id="Tracé_2088" data-name="Tracé 2088" d="M290.545-23.76a1.752,1.752,0,0,0-1.753,1.752,1.752,1.752,0,0,0,1.753,1.751,1.752,1.752,0,0,0,1.752-1.751A1.752,1.752,0,0,0,290.545-23.76Z" transform="translate(-29.937 0)" fill="url(#linear-gradient-64)"/>
    <path id="Tracé_2089" data-name="Tracé 2089" d="M304.945-23.76a1.752,1.752,0,0,0-1.752,1.752,1.752,1.752,0,0,0,1.752,1.751,1.753,1.753,0,0,0,1.752-1.751A1.753,1.753,0,0,0,304.945-23.76Z" transform="translate(-32.659 0)" fill="url(#linear-gradient-65)"/>
    <path id="Tracé_2090" data-name="Tracé 2090" d="M283.345-2.16a1.743,1.743,0,0,0-.98.3,1.748,1.748,0,0,0-.772,1.453,1.75,1.75,0,0,0,.772,1.453,1.743,1.743,0,0,0,.98.3A1.753,1.753,0,0,0,285.1-.408,1.752,1.752,0,0,0,283.345-2.16Z" transform="translate(-28.577 -4.082)" fill="url(#linear-gradient-66)"/>
    <path id="Tracé_2091" data-name="Tracé 2091" d="M283.345-16.56a1.742,1.742,0,0,0-.98.3,1.75,1.75,0,0,0-.772,1.453,1.748,1.748,0,0,0,.772,1.453,1.743,1.743,0,0,0,.98.3,1.752,1.752,0,0,0,1.751-1.752A1.752,1.752,0,0,0,283.345-16.56Z" transform="translate(-28.577 -1.361)" fill="url(#linear-gradient-67)"/>
    <path id="Tracé_2092" data-name="Tracé 2092" d="M297.745,26.641a1.752,1.752,0,1,0,1.752,1.752A1.751,1.751,0,0,0,297.745,26.641Z" transform="translate(-31.298 -9.526)" fill="url(#linear-gradient-68)"/>
    <path id="Tracé_2093" data-name="Tracé 2093" d="M297.745,12.24a1.752,1.752,0,1,0,1.752,1.752A1.751,1.751,0,0,0,297.745,12.24Z" transform="translate(-31.298 -6.804)" fill="url(#linear-gradient-69)"/>
    <path id="Tracé_2094" data-name="Tracé 2094" d="M290.545,19.441a1.751,1.751,0,1,0,1.752,1.751A1.752,1.752,0,0,0,290.545,19.441Z" transform="translate(-29.937 -8.165)" fill="url(#linear-gradient-70)"/>
    <path id="Tracé_2095" data-name="Tracé 2095" d="M304.945,19.441a1.751,1.751,0,1,0,1.752,1.751A1.752,1.752,0,0,0,304.945,19.441Z" transform="translate(-32.659 -8.165)" fill="url(#linear-gradient-71)"/>
    <path id="Tracé_2096" data-name="Tracé 2096" d="M290.545,5.041A1.751,1.751,0,1,0,292.3,6.793,1.752,1.752,0,0,0,290.545,5.041Z" transform="translate(-29.937 -5.443)" fill="url(#linear-gradient-72)"/>
    <path id="Tracé_2097" data-name="Tracé 2097" d="M304.945,5.041A1.751,1.751,0,1,0,306.7,6.793,1.752,1.752,0,0,0,304.945,5.041Z" transform="translate(-32.659 -5.443)" fill="url(#linear-gradient-73)"/>
    <path id="Tracé_2098" data-name="Tracé 2098" d="M283.345,26.641a1.752,1.752,0,1,0,1.751,1.752A1.742,1.742,0,0,0,283.345,26.641Z" transform="translate(-28.577 -9.526)" fill="url(#linear-gradient-74)"/>
    <path id="Tracé_2099" data-name="Tracé 2099" d="M283.345,12.24a1.752,1.752,0,1,0,1.751,1.752A1.743,1.743,0,0,0,283.345,12.24Z" transform="translate(-28.577 -6.804)" fill="url(#linear-gradient-75)"/>
    <path id="Tracé_2100" data-name="Tracé 2100" d="M297.745,55.441a1.753,1.753,0,1,0,1.752,1.752A1.751,1.751,0,0,0,297.745,55.441Z" transform="translate(-31.298 -14.969)" fill="url(#linear-gradient-76)"/>
    <path id="Tracé_2101" data-name="Tracé 2101" d="M297.745,41.041a1.752,1.752,0,1,0,1.752,1.752A1.751,1.751,0,0,0,297.745,41.041Z" transform="translate(-31.298 -12.247)" fill="url(#linear-gradient-77)"/>
    <path id="Tracé_2102" data-name="Tracé 2102" d="M290.545,48.242a1.751,1.751,0,1,0,1.752,1.75A1.752,1.752,0,0,0,290.545,48.242Z" transform="translate(-29.937 -13.608)" fill="url(#linear-gradient-78)"/>
    <path id="Tracé_2103" data-name="Tracé 2103" d="M304.945,48.242a1.751,1.751,0,1,0,1.752,1.75A1.751,1.751,0,0,0,304.945,48.242Z" transform="translate(-32.659 -13.608)" fill="url(#linear-gradient-79)"/>
    <path id="Tracé_2104" data-name="Tracé 2104" d="M290.545,33.842a1.751,1.751,0,1,0,1.752,1.752A1.752,1.752,0,0,0,290.545,33.842Z" transform="translate(-29.937 -10.887)" fill="url(#linear-gradient-80)"/>
    <path id="Tracé_2105" data-name="Tracé 2105" d="M304.945,33.842a1.751,1.751,0,1,0,1.752,1.752A1.752,1.752,0,0,0,304.945,33.842Z" transform="translate(-32.659 -10.887)" fill="url(#linear-gradient-81)"/>
    <path id="Tracé_2106" data-name="Tracé 2106" d="M283.345,55.441a1.753,1.753,0,1,0,1.751,1.752A1.743,1.743,0,0,0,283.345,55.441Z" transform="translate(-28.577 -14.969)" fill="url(#linear-gradient-82)"/>
    <path id="Tracé_2107" data-name="Tracé 2107" d="M283.345,41.041a1.752,1.752,0,1,0,1.751,1.752A1.743,1.743,0,0,0,283.345,41.041Z" transform="translate(-28.577 -12.247)" fill="url(#linear-gradient-83)"/>
    <path id="Tracé_2108" data-name="Tracé 2108" d="M297.745,84.242a1.752,1.752,0,1,0,1.752,1.752A1.751,1.751,0,0,0,297.745,84.242Z" transform="translate(-31.298 -20.412)" fill="url(#linear-gradient-84)"/>
    <path id="Tracé_2109" data-name="Tracé 2109" d="M297.745,69.842a1.752,1.752,0,1,0,1.752,1.752A1.751,1.751,0,0,0,297.745,69.842Z" transform="translate(-31.298 -17.691)" fill="url(#linear-gradient-85)"/>
    <path id="Tracé_2110" data-name="Tracé 2110" d="M290.545,77.043a1.751,1.751,0,1,0,1.752,1.75A1.752,1.752,0,0,0,290.545,77.043Z" transform="translate(-29.937 -19.052)" fill="url(#linear-gradient-86)"/>
    <path id="Tracé_2111" data-name="Tracé 2111" d="M304.945,77.043a1.751,1.751,0,1,0,1.752,1.75A1.751,1.751,0,0,0,304.945,77.043Z" transform="translate(-32.659 -19.052)" fill="url(#linear-gradient-87)"/>
    <path id="Tracé_2112" data-name="Tracé 2112" d="M290.545,62.642a1.751,1.751,0,1,0,1.752,1.753A1.752,1.752,0,0,0,290.545,62.642Z" transform="translate(-29.937 -16.33)" fill="url(#linear-gradient-88)"/>
    <path id="Tracé_2113" data-name="Tracé 2113" d="M304.945,62.642a1.751,1.751,0,1,0,1.752,1.753A1.752,1.752,0,0,0,304.945,62.642Z" transform="translate(-32.659 -16.33)" fill="url(#linear-gradient-89)"/>
    <path id="Tracé_2114" data-name="Tracé 2114" d="M283.345,84.242a1.752,1.752,0,1,0,1.751,1.752A1.743,1.743,0,0,0,283.345,84.242Z" transform="translate(-28.577 -20.412)" fill="url(#linear-gradient-90)"/>
    <path id="Tracé_2115" data-name="Tracé 2115" d="M283.345,69.842a1.752,1.752,0,1,0,1.751,1.752A1.743,1.743,0,0,0,283.345,69.842Z" transform="translate(-28.577 -17.691)" fill="url(#linear-gradient-91)"/>
    <path id="Tracé_2116" data-name="Tracé 2116" d="M290.545,91.443a1.751,1.751,0,1,0,1.752,1.752A1.752,1.752,0,0,0,290.545,91.443Z" transform="translate(-29.937 -21.773)" fill="url(#linear-gradient-92)"/>
    <path id="Tracé_2117" data-name="Tracé 2117" d="M304.945,91.443a1.751,1.751,0,1,0,1.752,1.752A1.752,1.752,0,0,0,304.945,91.443Z" transform="translate(-32.659 -21.773)" fill="url(#linear-gradient-93)"/>
    <path id="Tracé_2118" data-name="Tracé 2118" d="M268.945-2.16a1.752,1.752,0,0,0-1.753,1.752,1.753,1.753,0,0,0,1.753,1.753A1.753,1.753,0,0,0,270.7-.408,1.752,1.752,0,0,0,268.945-2.16Z" transform="translate(-25.855 -4.082)" fill="url(#linear-gradient-94)"/>
    <path id="Tracé_2119" data-name="Tracé 2119" d="M268.945-16.56a1.751,1.751,0,0,0-1.753,1.752,1.752,1.752,0,0,0,1.753,1.752,1.752,1.752,0,0,0,1.752-1.752A1.752,1.752,0,0,0,268.945-16.56Z" transform="translate(-25.855 -1.361)" fill="url(#linear-gradient-95)"/>
    <path id="Tracé_2120" data-name="Tracé 2120" d="M261.744-9.359a1.751,1.751,0,0,0-1.752,1.75,1.752,1.752,0,0,0,1.752,1.752A1.752,1.752,0,0,0,263.5-7.609,1.751,1.751,0,0,0,261.744-9.359Z" transform="translate(-24.494 -2.722)" fill="url(#linear-gradient-96)"/>
    <path id="Tracé_2121" data-name="Tracé 2121" d="M276.145-9.359a1.75,1.75,0,0,0-1.752,1.75,1.751,1.751,0,0,0,1.752,1.752A1.753,1.753,0,0,0,277.9-7.609,1.752,1.752,0,0,0,276.145-9.359Z" transform="translate(-27.216 -2.722)" fill="url(#linear-gradient-97)"/>
    <path id="Tracé_2122" data-name="Tracé 2122" d="M261.744-23.76a1.752,1.752,0,0,0-1.752,1.752,1.752,1.752,0,0,0,1.752,1.751,1.752,1.752,0,0,0,1.752-1.751A1.752,1.752,0,0,0,261.744-23.76Z" transform="translate(-24.494 0)" fill="url(#linear-gradient-98)"/>
    <path id="Tracé_2123" data-name="Tracé 2123" d="M276.145-23.76a1.751,1.751,0,0,0-1.752,1.752,1.751,1.751,0,0,0,1.752,1.751,1.753,1.753,0,0,0,1.752-1.751A1.753,1.753,0,0,0,276.145-23.76Z" transform="translate(-27.216 0)" fill="url(#linear-gradient-99)"/>
    <path id="Tracé_2124" data-name="Tracé 2124" d="M254.545-2.16a1.741,1.741,0,0,0-.98.3,1.749,1.749,0,0,0-.773,1.453,1.75,1.75,0,0,0,.773,1.453,1.741,1.741,0,0,0,.98.3A1.751,1.751,0,0,0,256,.571a1.743,1.743,0,0,0,.3-.98,1.743,1.743,0,0,0-.3-.98A1.752,1.752,0,0,0,254.545-2.16Z" transform="translate(-23.133 -4.082)" fill="url(#linear-gradient-100)"/>
    <path id="Tracé_2125" data-name="Tracé 2125" d="M254.545-16.56a1.741,1.741,0,0,0-.98.3,1.75,1.75,0,0,0-.773,1.453,1.749,1.749,0,0,0,.773,1.453,1.741,1.741,0,0,0,.98.3A1.752,1.752,0,0,0,256-13.829a1.745,1.745,0,0,0,.3-.98,1.741,1.741,0,0,0-.3-.98A1.75,1.75,0,0,0,254.545-16.56Z" transform="translate(-23.133 -1.361)" fill="url(#linear-gradient-101)"/>
    <path id="Tracé_2126" data-name="Tracé 2126" d="M268.945,26.641a1.752,1.752,0,1,0,1.752,1.752A1.751,1.751,0,0,0,268.945,26.641Z" transform="translate(-25.855 -9.526)" fill="url(#linear-gradient-102)"/>
    <path id="Tracé_2127" data-name="Tracé 2127" d="M268.945,12.24a1.752,1.752,0,1,0,1.752,1.752A1.752,1.752,0,0,0,268.945,12.24Z" transform="translate(-25.855 -6.804)" fill="url(#linear-gradient-103)"/>
    <path id="Tracé_2128" data-name="Tracé 2128" d="M261.744,19.441a1.751,1.751,0,1,0,1.752,1.751A1.752,1.752,0,0,0,261.744,19.441Z" transform="translate(-24.494 -8.165)" fill="url(#linear-gradient-104)"/>
    <path id="Tracé_2129" data-name="Tracé 2129" d="M276.145,19.441a1.751,1.751,0,1,0,1.752,1.751A1.751,1.751,0,0,0,276.145,19.441Z" transform="translate(-27.216 -8.165)" fill="url(#linear-gradient-105)"/>
    <path id="Tracé_2130" data-name="Tracé 2130" d="M261.744,5.041A1.751,1.751,0,1,0,263.5,6.793,1.752,1.752,0,0,0,261.744,5.041Z" transform="translate(-24.494 -5.443)" fill="url(#linear-gradient-106)"/>
    <path id="Tracé_2131" data-name="Tracé 2131" d="M276.145,5.041A1.751,1.751,0,1,0,277.9,6.793,1.751,1.751,0,0,0,276.145,5.041Z" transform="translate(-27.216 -5.443)" fill="url(#linear-gradient-107)"/>
    <path id="Tracé_2132" data-name="Tracé 2132" d="M254.545,26.641a1.751,1.751,0,1,0,1.452.772A1.741,1.741,0,0,0,254.545,26.641Z" transform="translate(-23.133 -9.526)" fill="url(#linear-gradient-108)"/>
    <path id="Tracé_2133" data-name="Tracé 2133" d="M254.545,12.24a1.751,1.751,0,1,0,1.452.772A1.741,1.741,0,0,0,254.545,12.24Z" transform="translate(-23.133 -6.804)" fill="url(#linear-gradient-109)"/>
    <path id="Tracé_2134" data-name="Tracé 2134" d="M268.945,55.441a1.753,1.753,0,1,0,1.752,1.752A1.752,1.752,0,0,0,268.945,55.441Z" transform="translate(-25.855 -14.969)" fill="url(#linear-gradient-110)"/>
    <path id="Tracé_2135" data-name="Tracé 2135" d="M268.945,41.041a1.752,1.752,0,1,0,1.752,1.752A1.752,1.752,0,0,0,268.945,41.041Z" transform="translate(-25.855 -12.247)" fill="url(#linear-gradient-111)"/>
    <path id="Tracé_2136" data-name="Tracé 2136" d="M261.744,48.242a1.751,1.751,0,1,0,1.752,1.75A1.751,1.751,0,0,0,261.744,48.242Z" transform="translate(-24.494 -13.608)" fill="url(#linear-gradient-112)"/>
    <path id="Tracé_2137" data-name="Tracé 2137" d="M276.145,48.242a1.751,1.751,0,1,0,1.752,1.75A1.751,1.751,0,0,0,276.145,48.242Z" transform="translate(-27.216 -13.608)" fill="url(#linear-gradient-113)"/>
    <path id="Tracé_2138" data-name="Tracé 2138" d="M261.744,33.842a1.751,1.751,0,1,0,1.752,1.752A1.752,1.752,0,0,0,261.744,33.842Z" transform="translate(-24.494 -10.887)" fill="url(#linear-gradient-114)"/>
    <path id="Tracé_2139" data-name="Tracé 2139" d="M276.145,33.842a1.751,1.751,0,1,0,1.752,1.752A1.751,1.751,0,0,0,276.145,33.842Z" transform="translate(-27.216 -10.887)" fill="url(#linear-gradient-115)"/>
    <path id="Tracé_2140" data-name="Tracé 2140" d="M254.545,55.441a1.752,1.752,0,1,0,1.452.773A1.741,1.741,0,0,0,254.545,55.441Z" transform="translate(-23.133 -14.969)" fill="url(#linear-gradient-116)"/>
    <path id="Tracé_2141" data-name="Tracé 2141" d="M254.545,41.041a1.751,1.751,0,1,0,1.452.772A1.741,1.741,0,0,0,254.545,41.041Z" transform="translate(-23.133 -12.247)" fill="url(#linear-gradient-117)"/>
    <path id="Tracé_2142" data-name="Tracé 2142" d="M268.945,84.242a1.752,1.752,0,1,0,1.752,1.752A1.752,1.752,0,0,0,268.945,84.242Z" transform="translate(-25.855 -20.412)" fill="url(#linear-gradient-118)"/>
    <path id="Tracé_2143" data-name="Tracé 2143" d="M268.945,69.842a1.752,1.752,0,1,0,1.752,1.752A1.752,1.752,0,0,0,268.945,69.842Z" transform="translate(-25.855 -17.691)" fill="url(#linear-gradient-119)"/>
    <path id="Tracé_2144" data-name="Tracé 2144" d="M261.744,77.043a1.751,1.751,0,1,0,1.752,1.75A1.751,1.751,0,0,0,261.744,77.043Z" transform="translate(-24.494 -19.052)" fill="url(#linear-gradient-120)"/>
    <path id="Tracé_2145" data-name="Tracé 2145" d="M276.145,77.043a1.751,1.751,0,1,0,1.752,1.75A1.751,1.751,0,0,0,276.145,77.043Z" transform="translate(-27.216 -19.052)" fill="url(#linear-gradient-121)"/>
    <path id="Tracé_2146" data-name="Tracé 2146" d="M261.744,62.642a1.751,1.751,0,1,0,1.752,1.753A1.752,1.752,0,0,0,261.744,62.642Z" transform="translate(-24.494 -16.33)" fill="url(#linear-gradient-122)"/>
    <path id="Tracé_2147" data-name="Tracé 2147" d="M276.145,62.642a1.751,1.751,0,1,0,1.752,1.753A1.751,1.751,0,0,0,276.145,62.642Z" transform="translate(-27.216 -16.33)" fill="url(#linear-gradient-123)"/>
    <path id="Tracé_2148" data-name="Tracé 2148" d="M254.545,84.242a1.751,1.751,0,1,0,1.452.772A1.741,1.741,0,0,0,254.545,84.242Z" transform="translate(-23.133 -20.412)" fill="url(#linear-gradient-124)"/>
    <path id="Tracé_2149" data-name="Tracé 2149" d="M254.545,69.842a1.751,1.751,0,1,0,1.452.772A1.741,1.741,0,0,0,254.545,69.842Z" transform="translate(-23.133 -17.691)" fill="url(#linear-gradient-125)"/>
    <path id="Tracé_2150" data-name="Tracé 2150" d="M261.744,91.443a1.751,1.751,0,1,0,1.752,1.752A1.752,1.752,0,0,0,261.744,91.443Z" transform="translate(-24.494 -21.773)" fill="url(#linear-gradient-126)"/>
    <path id="Tracé_2151" data-name="Tracé 2151" d="M276.145,91.443a1.751,1.751,0,1,0,1.752,1.752A1.751,1.751,0,0,0,276.145,91.443Z" transform="translate(-27.216 -21.773)" fill="url(#linear-gradient-127)"/>
    <path id="Tracé_2152" data-name="Tracé 2152" d="M240.144-2.16a1.752,1.752,0,0,0-1.752,1.752,1.752,1.752,0,0,0,1.752,1.753A1.752,1.752,0,0,0,241.9-.408,1.752,1.752,0,0,0,240.144-2.16Z" transform="translate(-20.412 -4.082)" fill="url(#linear-gradient-128)"/>
    <path id="Tracé_2153" data-name="Tracé 2153" d="M240.144-16.56a1.751,1.751,0,0,0-1.752,1.752,1.752,1.752,0,0,0,1.752,1.752,1.752,1.752,0,0,0,1.752-1.752A1.751,1.751,0,0,0,240.144-16.56Z" transform="translate(-20.412 -1.361)" fill="url(#linear-gradient-129)"/>
    <path id="Tracé_2154" data-name="Tracé 2154" d="M232.944-9.359a1.751,1.751,0,0,0-1.752,1.75,1.752,1.752,0,0,0,1.752,1.752A1.752,1.752,0,0,0,234.7-7.609,1.751,1.751,0,0,0,232.944-9.359Z" transform="translate(-19.051 -2.722)" fill="url(#linear-gradient-130)"/>
    <path id="Tracé_2155" data-name="Tracé 2155" d="M247.344-9.359a1.751,1.751,0,0,0-1.752,1.75,1.752,1.752,0,0,0,1.752,1.752A1.753,1.753,0,0,0,249.1-7.609,1.752,1.752,0,0,0,247.344-9.359Z" transform="translate(-21.773 -2.722)" fill="url(#linear-gradient-131)"/>
    <path id="Tracé_2156" data-name="Tracé 2156" d="M232.944-23.76a1.752,1.752,0,0,0-1.752,1.752,1.752,1.752,0,0,0,1.752,1.751,1.752,1.752,0,0,0,1.752-1.751A1.752,1.752,0,0,0,232.944-23.76Z" transform="translate(-19.051 0)" fill="url(#linear-gradient-132)"/>
    <path id="Tracé_2157" data-name="Tracé 2157" d="M247.344-23.76a1.752,1.752,0,0,0-1.752,1.752,1.752,1.752,0,0,0,1.752,1.751,1.753,1.753,0,0,0,1.753-1.751A1.753,1.753,0,0,0,247.344-23.76Z" transform="translate(-21.773 0)" fill="url(#linear-gradient-133)"/>
    <path id="Tracé_2158" data-name="Tracé 2158" d="M225.744-2.16a1.745,1.745,0,0,0-.98.3,1.75,1.75,0,0,0-.772,1.453,1.752,1.752,0,0,0,.772,1.453,1.745,1.745,0,0,0,.98.3,1.746,1.746,0,0,0,1.238-.513A1.747,1.747,0,0,0,227.5-.408a1.747,1.747,0,0,0-.513-1.239A1.749,1.749,0,0,0,225.744-2.16Z" transform="translate(-17.69 -4.082)" fill="url(#linear-gradient-134)"/>
    <path id="Tracé_2159" data-name="Tracé 2159" d="M225.744-16.56a1.744,1.744,0,0,0-.98.3,1.752,1.752,0,0,0-.772,1.453,1.75,1.75,0,0,0,.772,1.453,1.745,1.745,0,0,0,.98.3,1.746,1.746,0,0,0,1.238-.513,1.746,1.746,0,0,0,.513-1.238,1.747,1.747,0,0,0-.513-1.239A1.746,1.746,0,0,0,225.744-16.56Z" transform="translate(-17.69 -1.361)" fill="url(#linear-gradient-135)"/>
    <path id="Tracé_2160" data-name="Tracé 2160" d="M240.144,26.641a1.752,1.752,0,1,0,1.752,1.752A1.751,1.751,0,0,0,240.144,26.641Z" transform="translate(-20.412 -9.526)" fill="url(#linear-gradient-136)"/>
    <path id="Tracé_2161" data-name="Tracé 2161" d="M240.144,12.24a1.752,1.752,0,1,0,1.752,1.752A1.752,1.752,0,0,0,240.144,12.24Z" transform="translate(-20.412 -6.804)" fill="url(#linear-gradient-137)"/>
    <path id="Tracé_2162" data-name="Tracé 2162" d="M232.944,19.441a1.751,1.751,0,1,0,1.752,1.751A1.752,1.752,0,0,0,232.944,19.441Z" transform="translate(-19.051 -8.165)" fill="url(#linear-gradient-138)"/>
    <path id="Tracé_2163" data-name="Tracé 2163" d="M247.344,19.441a1.751,1.751,0,1,0,1.753,1.751A1.752,1.752,0,0,0,247.344,19.441Z" transform="translate(-21.773 -8.165)" fill="url(#linear-gradient-139)"/>
    <path id="Tracé_2164" data-name="Tracé 2164" d="M232.944,5.041A1.751,1.751,0,1,0,234.7,6.793,1.752,1.752,0,0,0,232.944,5.041Z" transform="translate(-19.051 -5.443)" fill="url(#linear-gradient-140)"/>
    <path id="Tracé_2165" data-name="Tracé 2165" d="M247.344,5.041A1.751,1.751,0,1,0,249.1,6.793,1.752,1.752,0,0,0,247.344,5.041Z" transform="translate(-21.773 -5.443)" fill="url(#linear-gradient-141)"/>
    <path id="Tracé_2166" data-name="Tracé 2166" d="M225.744,26.641a1.751,1.751,0,1,0,1.238.513A1.744,1.744,0,0,0,225.744,26.641Z" transform="translate(-17.69 -9.526)" fill="url(#linear-gradient-142)"/>
    <path id="Tracé_2167" data-name="Tracé 2167" d="M225.744,12.24a1.753,1.753,0,1,0,1.238.513A1.745,1.745,0,0,0,225.744,12.24Z" transform="translate(-17.69 -6.804)" fill="url(#linear-gradient-143)"/>
    <path id="Tracé_2168" data-name="Tracé 2168" d="M240.144,55.441a1.753,1.753,0,1,0,1.752,1.752A1.752,1.752,0,0,0,240.144,55.441Z" transform="translate(-20.412 -14.969)" fill="url(#linear-gradient-144)"/>
    <path id="Tracé_2169" data-name="Tracé 2169" d="M240.144,41.041a1.752,1.752,0,1,0,1.752,1.752A1.752,1.752,0,0,0,240.144,41.041Z" transform="translate(-20.412 -12.247)" fill="url(#linear-gradient-145)"/>
    <path id="Tracé_2170" data-name="Tracé 2170" d="M232.944,48.242a1.751,1.751,0,1,0,1.752,1.75A1.751,1.751,0,0,0,232.944,48.242Z" transform="translate(-19.051 -13.608)" fill="url(#linear-gradient-146)"/>
    <path id="Tracé_2171" data-name="Tracé 2171" d="M247.344,48.242a1.751,1.751,0,1,0,1.753,1.75A1.751,1.751,0,0,0,247.344,48.242Z" transform="translate(-21.773 -13.608)" fill="url(#linear-gradient-147)"/>
    <path id="Tracé_2172" data-name="Tracé 2172" d="M232.944,33.842a1.751,1.751,0,1,0,1.752,1.752A1.752,1.752,0,0,0,232.944,33.842Z" transform="translate(-19.051 -10.887)" fill="url(#linear-gradient-148)"/>
    <path id="Tracé_2173" data-name="Tracé 2173" d="M247.344,33.842a1.751,1.751,0,1,0,1.753,1.752A1.752,1.752,0,0,0,247.344,33.842Z" transform="translate(-21.773 -10.887)" fill="url(#linear-gradient-149)"/>
    <path id="Tracé_2174" data-name="Tracé 2174" d="M225.744,55.441a1.753,1.753,0,1,0,1.238.513A1.745,1.745,0,0,0,225.744,55.441Z" transform="translate(-17.69 -14.969)" fill="url(#linear-gradient-150)"/>
    <path id="Tracé_2175" data-name="Tracé 2175" d="M225.744,41.041a1.751,1.751,0,1,0,1.238.513A1.745,1.745,0,0,0,225.744,41.041Z" transform="translate(-17.69 -12.247)" fill="url(#linear-gradient-151)"/>
    <path id="Tracé_2176" data-name="Tracé 2176" d="M240.144,84.242a1.752,1.752,0,1,0,1.752,1.752A1.752,1.752,0,0,0,240.144,84.242Z" transform="translate(-20.412 -20.412)" fill="url(#linear-gradient-152)"/>
    <path id="Tracé_2177" data-name="Tracé 2177" d="M240.144,69.842a1.752,1.752,0,1,0,1.752,1.752A1.752,1.752,0,0,0,240.144,69.842Z" transform="translate(-20.412 -17.691)" fill="url(#linear-gradient-153)"/>
    <path id="Tracé_2178" data-name="Tracé 2178" d="M232.944,77.043a1.751,1.751,0,1,0,1.752,1.75A1.751,1.751,0,0,0,232.944,77.043Z" transform="translate(-19.051 -19.052)" fill="url(#linear-gradient-154)"/>
    <path id="Tracé_2179" data-name="Tracé 2179" d="M247.344,77.043a1.751,1.751,0,1,0,1.753,1.75A1.751,1.751,0,0,0,247.344,77.043Z" transform="translate(-21.773 -19.052)" fill="url(#linear-gradient-155)"/>
    <path id="Tracé_2180" data-name="Tracé 2180" d="M232.944,62.642a1.751,1.751,0,1,0,1.752,1.753A1.752,1.752,0,0,0,232.944,62.642Z" transform="translate(-19.051 -16.33)" fill="url(#linear-gradient-156)"/>
    <path id="Tracé_2181" data-name="Tracé 2181" d="M247.344,62.642a1.751,1.751,0,1,0,1.753,1.753A1.752,1.752,0,0,0,247.344,62.642Z" transform="translate(-21.773 -16.33)" fill="url(#linear-gradient-157)"/>
    <path id="Tracé_2182" data-name="Tracé 2182" d="M225.744,84.242a1.753,1.753,0,1,0,1.238.513A1.745,1.745,0,0,0,225.744,84.242Z" transform="translate(-17.69 -20.412)" fill="url(#linear-gradient-158)"/>
    <path id="Tracé_2183" data-name="Tracé 2183" d="M225.744,69.842a1.751,1.751,0,1,0,1.238.513A1.745,1.745,0,0,0,225.744,69.842Z" transform="translate(-17.69 -17.691)" fill="url(#linear-gradient-159)"/>
    <path id="Tracé_2184" data-name="Tracé 2184" d="M232.944,91.443a1.751,1.751,0,1,0,1.752,1.752A1.752,1.752,0,0,0,232.944,91.443Z" transform="translate(-19.051 -21.773)" fill="url(#linear-gradient-160)"/>
    <path id="Tracé_2185" data-name="Tracé 2185" d="M247.344,91.443a1.751,1.751,0,1,0,1.753,1.752A1.752,1.752,0,0,0,247.344,91.443Z" transform="translate(-21.773 -21.773)" fill="url(#linear-gradient-161)"/>
    <path id="Tracé_2186" data-name="Tracé 2186" d="M211.344-2.16a1.752,1.752,0,0,0-1.752,1.752,1.752,1.752,0,0,0,1.752,1.753A1.753,1.753,0,0,0,213.1-.408,1.752,1.752,0,0,0,211.344-2.16Z" transform="translate(-14.969 -4.082)" fill="url(#linear-gradient-162)"/>
    <path id="Tracé_2187" data-name="Tracé 2187" d="M211.344-16.56a1.751,1.751,0,0,0-1.752,1.752,1.752,1.752,0,0,0,1.752,1.752,1.752,1.752,0,0,0,1.752-1.752A1.752,1.752,0,0,0,211.344-16.56Z" transform="translate(-14.969 -1.361)" fill="url(#linear-gradient-163)"/>
    <path id="Tracé_2188" data-name="Tracé 2188" d="M204.144-9.359a1.75,1.75,0,0,0-1.752,1.75,1.751,1.751,0,0,0,1.752,1.752A1.752,1.752,0,0,0,205.9-7.609,1.751,1.751,0,0,0,204.144-9.359Z" transform="translate(-13.608 -2.722)" fill="url(#linear-gradient-164)"/>
    <path id="Tracé_2189" data-name="Tracé 2189" d="M218.544-9.359a1.751,1.751,0,0,0-1.752,1.75,1.752,1.752,0,0,0,1.752,1.752A1.752,1.752,0,0,0,220.3-7.609,1.751,1.751,0,0,0,218.544-9.359Z" transform="translate(-16.33 -2.722)" fill="url(#linear-gradient-165)"/>
    <path id="Tracé_2190" data-name="Tracé 2190" d="M204.144-23.76a1.751,1.751,0,0,0-1.752,1.752,1.751,1.751,0,0,0,1.752,1.751,1.752,1.752,0,0,0,1.752-1.751A1.752,1.752,0,0,0,204.144-23.76Z" transform="translate(-13.608 0)" fill="url(#linear-gradient-166)"/>
    <path id="Tracé_2191" data-name="Tracé 2191" d="M218.544-23.76a1.752,1.752,0,0,0-1.752,1.752,1.752,1.752,0,0,0,1.752,1.751,1.752,1.752,0,0,0,1.752-1.751A1.752,1.752,0,0,0,218.544-23.76Z" transform="translate(-16.33 0)" fill="url(#linear-gradient-167)"/>
    <path id="Tracé_2192" data-name="Tracé 2192" d="M196.944-2.16a1.745,1.745,0,0,0-.98.3,1.75,1.75,0,0,0-.772,1.453,1.752,1.752,0,0,0,.772,1.453,1.745,1.745,0,0,0,.98.3,1.743,1.743,0,0,0,1.238-.513,1.747,1.747,0,0,0,.513-1.239,1.747,1.747,0,0,0-.513-1.239A1.746,1.746,0,0,0,196.944-2.16Z" transform="translate(-12.247 -4.082)" fill="url(#linear-gradient-168)"/>
    <path id="Tracé_2193" data-name="Tracé 2193" d="M196.944-16.56a1.744,1.744,0,0,0-.98.3,1.752,1.752,0,0,0-.772,1.453,1.75,1.75,0,0,0,.772,1.453,1.745,1.745,0,0,0,.98.3,1.743,1.743,0,0,0,1.238-.513,1.746,1.746,0,0,0,.513-1.238,1.747,1.747,0,0,0-.513-1.239A1.742,1.742,0,0,0,196.944-16.56Z" transform="translate(-12.247 -1.361)" fill="url(#linear-gradient-169)"/>
    <path id="Tracé_2194" data-name="Tracé 2194" d="M211.344,26.641a1.752,1.752,0,1,0,1.752,1.752A1.751,1.751,0,0,0,211.344,26.641Z" transform="translate(-14.969 -9.526)" fill="url(#linear-gradient-170)"/>
    <path id="Tracé_2195" data-name="Tracé 2195" d="M211.344,12.24a1.752,1.752,0,1,0,1.752,1.752A1.752,1.752,0,0,0,211.344,12.24Z" transform="translate(-14.969 -6.804)" fill="url(#linear-gradient-171)"/>
    <path id="Tracé_2196" data-name="Tracé 2196" d="M204.144,19.441a1.751,1.751,0,1,0,1.752,1.751A1.751,1.751,0,0,0,204.144,19.441Z" transform="translate(-13.608 -8.165)" fill="url(#linear-gradient-172)"/>
    <path id="Tracé_2197" data-name="Tracé 2197" d="M218.544,19.441a1.751,1.751,0,1,0,1.752,1.751A1.752,1.752,0,0,0,218.544,19.441Z" transform="translate(-16.33 -8.165)" fill="url(#linear-gradient-173)"/>
    <path id="Tracé_2198" data-name="Tracé 2198" d="M204.144,5.041A1.751,1.751,0,1,0,205.9,6.793,1.751,1.751,0,0,0,204.144,5.041Z" transform="translate(-13.608 -5.443)" fill="url(#linear-gradient-174)"/>
    <path id="Tracé_2199" data-name="Tracé 2199" d="M218.544,5.041A1.751,1.751,0,1,0,220.3,6.793,1.752,1.752,0,0,0,218.544,5.041Z" transform="translate(-16.33 -5.443)" fill="url(#linear-gradient-175)"/>
    <path id="Tracé_2200" data-name="Tracé 2200" d="M196.944,26.641a1.751,1.751,0,1,0,1.238.513A1.744,1.744,0,0,0,196.944,26.641Z" transform="translate(-12.247 -9.526)" fill="url(#linear-gradient-176)"/>
    <path id="Tracé_2201" data-name="Tracé 2201" d="M196.944,12.24a1.753,1.753,0,1,0,1.238.513A1.745,1.745,0,0,0,196.944,12.24Z" transform="translate(-12.247 -6.804)" fill="url(#linear-gradient-177)"/>
    <path id="Tracé_2202" data-name="Tracé 2202" d="M211.344,55.441a1.753,1.753,0,1,0,1.752,1.752A1.752,1.752,0,0,0,211.344,55.441Z" transform="translate(-14.969 -14.969)" fill="url(#linear-gradient-178)"/>
    <path id="Tracé_2203" data-name="Tracé 2203" d="M211.344,41.041a1.752,1.752,0,1,0,1.752,1.752A1.752,1.752,0,0,0,211.344,41.041Z" transform="translate(-14.969 -12.247)" fill="url(#linear-gradient-179)"/>
    <path id="Tracé_2204" data-name="Tracé 2204" d="M204.144,48.242a1.751,1.751,0,1,0,1.752,1.75A1.751,1.751,0,0,0,204.144,48.242Z" transform="translate(-13.608 -13.608)" fill="url(#linear-gradient-180)"/>
    <path id="Tracé_2205" data-name="Tracé 2205" d="M218.544,48.242a1.751,1.751,0,1,0,1.752,1.75A1.751,1.751,0,0,0,218.544,48.242Z" transform="translate(-16.33 -13.608)" fill="url(#linear-gradient-181)"/>
    <path id="Tracé_2206" data-name="Tracé 2206" d="M204.144,33.842a1.751,1.751,0,1,0,1.752,1.752A1.751,1.751,0,0,0,204.144,33.842Z" transform="translate(-13.608 -10.887)" fill="url(#linear-gradient-182)"/>
    <path id="Tracé_2207" data-name="Tracé 2207" d="M218.544,33.842a1.751,1.751,0,1,0,1.752,1.752A1.752,1.752,0,0,0,218.544,33.842Z" transform="translate(-16.33 -10.887)" fill="url(#linear-gradient-183)"/>
    <path id="Tracé_2208" data-name="Tracé 2208" d="M196.944,55.441a1.753,1.753,0,1,0,1.238.513A1.745,1.745,0,0,0,196.944,55.441Z" transform="translate(-12.247 -14.969)" fill="url(#linear-gradient-184)"/>
    <path id="Tracé_2209" data-name="Tracé 2209" d="M196.944,41.041a1.751,1.751,0,1,0,1.238.513A1.745,1.745,0,0,0,196.944,41.041Z" transform="translate(-12.247 -12.247)" fill="url(#linear-gradient-185)"/>
    <path id="Tracé_2210" data-name="Tracé 2210" d="M211.344,84.242a1.752,1.752,0,1,0,1.752,1.752A1.752,1.752,0,0,0,211.344,84.242Z" transform="translate(-14.969 -20.412)" fill="url(#linear-gradient-186)"/>
    <path id="Tracé_2211" data-name="Tracé 2211" d="M211.344,69.842a1.752,1.752,0,1,0,1.752,1.752A1.752,1.752,0,0,0,211.344,69.842Z" transform="translate(-14.969 -17.691)" fill="url(#linear-gradient-187)"/>
    <path id="Tracé_2212" data-name="Tracé 2212" d="M204.144,77.043a1.751,1.751,0,1,0,1.752,1.75A1.751,1.751,0,0,0,204.144,77.043Z" transform="translate(-13.608 -19.052)" fill="url(#linear-gradient-188)"/>
    <path id="Tracé_2213" data-name="Tracé 2213" d="M218.544,77.043a1.751,1.751,0,1,0,1.752,1.75A1.751,1.751,0,0,0,218.544,77.043Z" transform="translate(-16.33 -19.052)" fill="url(#linear-gradient-189)"/>
    <path id="Tracé_2214" data-name="Tracé 2214" d="M204.144,62.642a1.751,1.751,0,1,0,1.752,1.753A1.751,1.751,0,0,0,204.144,62.642Z" transform="translate(-13.608 -16.33)" fill="url(#linear-gradient-190)"/>
    <path id="Tracé_2215" data-name="Tracé 2215" d="M218.544,62.642a1.751,1.751,0,1,0,1.752,1.753A1.752,1.752,0,0,0,218.544,62.642Z" transform="translate(-16.33 -16.33)" fill="url(#linear-gradient-191)"/>
    <path id="Tracé_2216" data-name="Tracé 2216" d="M196.944,84.242a1.753,1.753,0,1,0,1.238.513A1.745,1.745,0,0,0,196.944,84.242Z" transform="translate(-12.247 -20.412)" fill="url(#linear-gradient-192)"/>
    <path id="Tracé_2217" data-name="Tracé 2217" d="M196.944,69.842a1.751,1.751,0,1,0,1.238.513A1.745,1.745,0,0,0,196.944,69.842Z" transform="translate(-12.247 -17.691)" fill="url(#linear-gradient-193)"/>
    <path id="Tracé_2218" data-name="Tracé 2218" d="M204.144,91.443a1.751,1.751,0,1,0,1.752,1.752A1.751,1.751,0,0,0,204.144,91.443Z" transform="translate(-13.608 -21.773)" fill="url(#linear-gradient-194)"/>
    <path id="Tracé_2219" data-name="Tracé 2219" d="M218.544,91.443a1.751,1.751,0,1,0,1.752,1.752A1.752,1.752,0,0,0,218.544,91.443Z" transform="translate(-16.33 -21.773)" fill="url(#linear-gradient-195)"/>
    <path id="Tracé_2220" data-name="Tracé 2220" d="M182.544-2.16a1.751,1.751,0,0,0-1.752,1.752,1.752,1.752,0,0,0,1.752,1.753A1.753,1.753,0,0,0,184.3-.408,1.752,1.752,0,0,0,182.544-2.16Z" transform="translate(-9.526 -4.082)" fill="url(#linear-gradient-196)"/>
    <path id="Tracé_2221" data-name="Tracé 2221" d="M182.544-16.56a1.751,1.751,0,0,0-1.752,1.752,1.751,1.751,0,0,0,1.752,1.752,1.752,1.752,0,0,0,1.752-1.752A1.752,1.752,0,0,0,182.544-16.56Z" transform="translate(-9.526 -1.361)" fill="url(#linear-gradient-197)"/>
    <path id="Tracé_2222" data-name="Tracé 2222" d="M175.344-9.359a1.751,1.751,0,0,0-1.753,1.75,1.752,1.752,0,0,0,1.753,1.752A1.752,1.752,0,0,0,177.1-7.609,1.751,1.751,0,0,0,175.344-9.359Z" transform="translate(-8.165 -2.722)" fill="url(#linear-gradient-198)"/>
    <path id="Tracé_2223" data-name="Tracé 2223" d="M189.744-9.359a1.751,1.751,0,0,0-1.752,1.75,1.752,1.752,0,0,0,1.752,1.752A1.753,1.753,0,0,0,191.5-7.609,1.752,1.752,0,0,0,189.744-9.359Z" transform="translate(-10.886 -2.722)" fill="url(#linear-gradient-199)"/>
    <path id="Tracé_2224" data-name="Tracé 2224" d="M175.344-23.76a1.752,1.752,0,0,0-1.753,1.752,1.752,1.752,0,0,0,1.753,1.751,1.752,1.752,0,0,0,1.752-1.751A1.752,1.752,0,0,0,175.344-23.76Z" transform="translate(-8.165 0)" fill="url(#linear-gradient-200)"/>
    <path id="Tracé_2225" data-name="Tracé 2225" d="M189.744-23.76a1.752,1.752,0,0,0-1.752,1.752,1.752,1.752,0,0,0,1.752,1.751,1.753,1.753,0,0,0,1.752-1.751A1.753,1.753,0,0,0,189.744-23.76Z" transform="translate(-10.886 0)" fill="url(#linear-gradient-201)"/>
    <path id="Tracé_2226" data-name="Tracé 2226" d="M168.144-2.16a1.743,1.743,0,0,0-.98.3,1.748,1.748,0,0,0-.772,1.453,1.75,1.75,0,0,0,.772,1.453,1.743,1.743,0,0,0,.98.3,1.744,1.744,0,0,0,1.238-.513,1.747,1.747,0,0,0,.513-1.239,1.747,1.747,0,0,0-.513-1.239A1.747,1.747,0,0,0,168.144-2.16Z" transform="translate(-6.804 -4.082)" fill="url(#linear-gradient-202)"/>
    <path id="Tracé_2227" data-name="Tracé 2227" d="M168.144-16.56a1.743,1.743,0,0,0-.98.3,1.75,1.75,0,0,0-.772,1.453,1.748,1.748,0,0,0,.772,1.453,1.743,1.743,0,0,0,.98.3,1.744,1.744,0,0,0,1.238-.513,1.746,1.746,0,0,0,.513-1.238,1.747,1.747,0,0,0-.513-1.239A1.744,1.744,0,0,0,168.144-16.56Z" transform="translate(-6.804 -1.361)" fill="url(#linear-gradient-203)"/>
    <path id="Tracé_2228" data-name="Tracé 2228" d="M182.544,26.641a1.752,1.752,0,1,0,1.752,1.752A1.751,1.751,0,0,0,182.544,26.641Z" transform="translate(-9.526 -9.526)" fill="url(#linear-gradient-204)"/>
    <path id="Tracé_2229" data-name="Tracé 2229" d="M182.544,12.24a1.752,1.752,0,1,0,1.752,1.752A1.751,1.751,0,0,0,182.544,12.24Z" transform="translate(-9.526 -6.804)" fill="url(#linear-gradient-205)"/>
    <path id="Tracé_2230" data-name="Tracé 2230" d="M175.344,19.441a1.751,1.751,0,1,0,1.752,1.751A1.752,1.752,0,0,0,175.344,19.441Z" transform="translate(-8.165 -8.165)" fill="url(#linear-gradient-206)"/>
    <path id="Tracé_2231" data-name="Tracé 2231" d="M189.744,19.441a1.751,1.751,0,1,0,1.752,1.751A1.752,1.752,0,0,0,189.744,19.441Z" transform="translate(-10.886 -8.165)" fill="url(#linear-gradient-207)"/>
    <path id="Tracé_2232" data-name="Tracé 2232" d="M175.344,5.041A1.751,1.751,0,1,0,177.1,6.793,1.752,1.752,0,0,0,175.344,5.041Z" transform="translate(-8.165 -5.443)" fill="url(#linear-gradient-208)"/>
    <path id="Tracé_2233" data-name="Tracé 2233" d="M189.744,5.041A1.751,1.751,0,1,0,191.5,6.793,1.752,1.752,0,0,0,189.744,5.041Z" transform="translate(-10.886 -5.443)" fill="url(#linear-gradient-209)"/>
    <path id="Tracé_2234" data-name="Tracé 2234" d="M168.144,26.641a1.751,1.751,0,1,0,1.238.513A1.743,1.743,0,0,0,168.144,26.641Z" transform="translate(-6.804 -9.526)" fill="url(#linear-gradient-210)"/>
    <path id="Tracé_2235" data-name="Tracé 2235" d="M168.144,12.24a1.753,1.753,0,1,0,1.238.513A1.743,1.743,0,0,0,168.144,12.24Z" transform="translate(-6.804 -6.804)" fill="url(#linear-gradient-211)"/>
    <path id="Tracé_2236" data-name="Tracé 2236" d="M182.544,55.441a1.753,1.753,0,1,0,1.752,1.752A1.751,1.751,0,0,0,182.544,55.441Z" transform="translate(-9.526 -14.969)" fill="url(#linear-gradient-212)"/>
    <circle id="Ellipse_134" data-name="Ellipse 134" cx="1.752" cy="1.752" r="1.752" transform="translate(171.266 28.794)" fill="url(#linear-gradient-213)"/>
    <path id="Tracé_2237" data-name="Tracé 2237" d="M175.344,48.242a1.751,1.751,0,1,0,1.752,1.75A1.752,1.752,0,0,0,175.344,48.242Z" transform="translate(-8.165 -13.608)" fill="url(#linear-gradient-214)"/>
    <path id="Tracé_2238" data-name="Tracé 2238" d="M189.744,48.242a1.751,1.751,0,1,0,1.752,1.75A1.751,1.751,0,0,0,189.744,48.242Z" transform="translate(-10.886 -13.608)" fill="url(#linear-gradient-215)"/>
    <path id="Tracé_2239" data-name="Tracé 2239" d="M175.344,33.842a1.751,1.751,0,1,0,1.752,1.752A1.752,1.752,0,0,0,175.344,33.842Z" transform="translate(-8.165 -10.887)" fill="url(#linear-gradient-216)"/>
    <path id="Tracé_2240" data-name="Tracé 2240" d="M189.744,33.842a1.751,1.751,0,1,0,1.752,1.752A1.752,1.752,0,0,0,189.744,33.842Z" transform="translate(-10.886 -10.887)" fill="url(#linear-gradient-217)"/>
    <path id="Tracé_2241" data-name="Tracé 2241" d="M168.144,55.441a1.753,1.753,0,1,0,1.238.513A1.743,1.743,0,0,0,168.144,55.441Z" transform="translate(-6.804 -14.969)" fill="url(#linear-gradient-218)"/>
    <path id="Tracé_2242" data-name="Tracé 2242" d="M168.144,41.041a1.751,1.751,0,1,0,1.238.513A1.743,1.743,0,0,0,168.144,41.041Z" transform="translate(-6.804 -12.247)" fill="url(#linear-gradient-219)"/>
    <path id="Tracé_2243" data-name="Tracé 2243" d="M182.544,84.242a1.752,1.752,0,1,0,1.752,1.752A1.751,1.751,0,0,0,182.544,84.242Z" transform="translate(-9.526 -20.412)" fill="url(#linear-gradient-220)"/>
    <path id="Tracé_2244" data-name="Tracé 2244" d="M182.544,69.842a1.752,1.752,0,1,0,1.752,1.752A1.751,1.751,0,0,0,182.544,69.842Z" transform="translate(-9.526 -17.691)" fill="url(#linear-gradient-221)"/>
    <path id="Tracé_2245" data-name="Tracé 2245" d="M175.344,77.043a1.751,1.751,0,1,0,1.752,1.75A1.752,1.752,0,0,0,175.344,77.043Z" transform="translate(-8.165 -19.052)" fill="url(#linear-gradient-222)"/>
    <path id="Tracé_2246" data-name="Tracé 2246" d="M189.744,77.043a1.751,1.751,0,1,0,1.752,1.75A1.751,1.751,0,0,0,189.744,77.043Z" transform="translate(-10.886 -19.052)" fill="url(#linear-gradient-223)"/>
    <path id="Tracé_2247" data-name="Tracé 2247" d="M175.344,62.642a1.751,1.751,0,1,0,1.752,1.753A1.752,1.752,0,0,0,175.344,62.642Z" transform="translate(-8.165 -16.33)" fill="url(#linear-gradient-224)"/>
    <path id="Tracé_2248" data-name="Tracé 2248" d="M189.744,62.642a1.751,1.751,0,1,0,1.752,1.753A1.752,1.752,0,0,0,189.744,62.642Z" transform="translate(-10.886 -16.33)" fill="url(#linear-gradient-225)"/>
    <path id="Tracé_2249" data-name="Tracé 2249" d="M168.144,84.242a1.753,1.753,0,1,0,1.238.513A1.743,1.743,0,0,0,168.144,84.242Z" transform="translate(-6.804 -20.412)" fill="url(#linear-gradient-226)"/>
    <path id="Tracé_2250" data-name="Tracé 2250" d="M168.144,69.842a1.751,1.751,0,1,0,1.238.513A1.743,1.743,0,0,0,168.144,69.842Z" transform="translate(-6.804 -17.691)" fill="url(#linear-gradient-227)"/>
    <path id="Tracé_2251" data-name="Tracé 2251" d="M175.344,91.443a1.751,1.751,0,1,0,1.752,1.752A1.752,1.752,0,0,0,175.344,91.443Z" transform="translate(-8.165 -21.773)" fill="url(#linear-gradient-228)"/>
    <path id="Tracé_2252" data-name="Tracé 2252" d="M189.744,91.443a1.751,1.751,0,1,0,1.752,1.752A1.752,1.752,0,0,0,189.744,91.443Z" transform="translate(-10.886 -21.773)" fill="url(#linear-gradient-229)"/>
    <path id="Tracé_2253" data-name="Tracé 2253" d="M153.744-2.16a1.752,1.752,0,0,0-1.753,1.752,1.753,1.753,0,0,0,1.753,1.753A1.753,1.753,0,0,0,155.5-.408,1.752,1.752,0,0,0,153.744-2.16Z" transform="translate(-4.082 -4.082)" fill="url(#linear-gradient-230)"/>
    <path id="Tracé_2254" data-name="Tracé 2254" d="M153.744-16.56a1.751,1.751,0,0,0-1.753,1.752,1.752,1.752,0,0,0,1.753,1.752,1.752,1.752,0,0,0,1.752-1.752A1.752,1.752,0,0,0,153.744-16.56Z" transform="translate(-4.082 -1.361)" fill="url(#linear-gradient-231)"/>
    <path id="Tracé_2255" data-name="Tracé 2255" d="M146.543-9.359a1.751,1.751,0,0,0-1.752,1.75,1.752,1.752,0,0,0,1.752,1.752,1.752,1.752,0,0,0,1.752-1.752A1.751,1.751,0,0,0,146.543-9.359Z" transform="translate(-2.722 -2.722)" fill="url(#linear-gradient-232)"/>
    <path id="Tracé_2256" data-name="Tracé 2256" d="M160.944-9.359a1.75,1.75,0,0,0-1.752,1.75,1.751,1.751,0,0,0,1.752,1.752A1.753,1.753,0,0,0,162.7-7.609,1.752,1.752,0,0,0,160.944-9.359Z" transform="translate(-5.443 -2.722)" fill="url(#linear-gradient-233)"/>
    <path id="Tracé_2257" data-name="Tracé 2257" d="M146.543-23.76a1.752,1.752,0,0,0-1.752,1.752,1.752,1.752,0,0,0,1.752,1.751,1.752,1.752,0,0,0,1.752-1.751A1.752,1.752,0,0,0,146.543-23.76Z" transform="translate(-2.722 0)" fill="url(#linear-gradient-234)"/>
    <path id="Tracé_2258" data-name="Tracé 2258" d="M160.944-23.76a1.751,1.751,0,0,0-1.752,1.752,1.751,1.751,0,0,0,1.752,1.751,1.753,1.753,0,0,0,1.752-1.751A1.753,1.753,0,0,0,160.944-23.76Z" transform="translate(-5.443 0)" fill="url(#linear-gradient-235)"/>
    <path id="Tracé_2259" data-name="Tracé 2259" d="M139.344-2.16a1.752,1.752,0,0,0-1.753,1.752,1.753,1.753,0,0,0,1.753,1.753,1.753,1.753,0,0,0,1.715-1.4,1.742,1.742,0,0,0,.036-.353,1.742,1.742,0,0,0-.036-.353A1.753,1.753,0,0,0,139.344-2.16Z" transform="translate(-1.361 -4.082)" fill="url(#linear-gradient-236)"/>
    <path id="Tracé_2260" data-name="Tracé 2260" d="M139.344-16.56a1.751,1.751,0,0,0-1.753,1.752,1.752,1.752,0,0,0,1.753,1.752,1.753,1.753,0,0,0,1.715-1.4,1.742,1.742,0,0,0,.036-.353,1.75,1.75,0,0,0-.036-.354A1.753,1.753,0,0,0,139.344-16.56Z" transform="translate(-1.361 -1.361)" fill="url(#linear-gradient-237)"/>
    <path id="Tracé_2261" data-name="Tracé 2261" d="M153.744,26.641a1.752,1.752,0,1,0,1.752,1.752A1.751,1.751,0,0,0,153.744,26.641Z" transform="translate(-4.082 -9.526)" fill="url(#linear-gradient-238)"/>
    <path id="Tracé_2262" data-name="Tracé 2262" d="M153.744,12.24a1.752,1.752,0,1,0,1.752,1.752A1.752,1.752,0,0,0,153.744,12.24Z" transform="translate(-4.082 -6.804)" fill="url(#linear-gradient-239)"/>
    <path id="Tracé_2263" data-name="Tracé 2263" d="M146.543,19.441a1.751,1.751,0,1,0,1.752,1.751A1.752,1.752,0,0,0,146.543,19.441Z" transform="translate(-2.722 -8.165)" fill="url(#linear-gradient-240)"/>
    <path id="Tracé_2264" data-name="Tracé 2264" d="M160.944,19.441a1.751,1.751,0,1,0,1.752,1.751A1.751,1.751,0,0,0,160.944,19.441Z" transform="translate(-5.443 -8.165)" fill="url(#linear-gradient-241)"/>
    <path id="Tracé_2265" data-name="Tracé 2265" d="M146.543,5.041a1.751,1.751,0,1,0,1.752,1.752A1.752,1.752,0,0,0,146.543,5.041Z" transform="translate(-2.722 -5.443)" fill="url(#linear-gradient-242)"/>
    <path id="Tracé_2266" data-name="Tracé 2266" d="M160.944,5.041A1.751,1.751,0,1,0,162.7,6.793,1.751,1.751,0,0,0,160.944,5.041Z" transform="translate(-5.443 -5.443)" fill="url(#linear-gradient-243)"/>
    <path id="Tracé_2267" data-name="Tracé 2267" d="M139.344,26.641a1.75,1.75,0,1,0,1.715,1.4A1.751,1.751,0,0,0,139.344,26.641Z" transform="translate(-1.361 -9.526)" fill="url(#linear-gradient-244)"/>
    <path id="Tracé_2268" data-name="Tracé 2268" d="M139.344,12.24a1.751,1.751,0,1,0,1.715,1.4A1.752,1.752,0,0,0,139.344,12.24Z" transform="translate(-1.361 -6.804)" fill="url(#linear-gradient-245)"/>
    <path id="Tracé_2269" data-name="Tracé 2269" d="M153.744,55.441a1.753,1.753,0,1,0,1.752,1.752A1.752,1.752,0,0,0,153.744,55.441Z" transform="translate(-4.082 -14.969)" fill="url(#linear-gradient-246)"/>
    <path id="Tracé_2270" data-name="Tracé 2270" d="M153.744,41.041a1.752,1.752,0,1,0,1.752,1.752A1.752,1.752,0,0,0,153.744,41.041Z" transform="translate(-4.082 -12.247)" fill="url(#linear-gradient-247)"/>
    <path id="Tracé_2271" data-name="Tracé 2271" d="M146.543,48.242a1.751,1.751,0,1,0,1.752,1.75A1.751,1.751,0,0,0,146.543,48.242Z" transform="translate(-2.722 -13.608)" fill="url(#linear-gradient-248)"/>
    <path id="Tracé_2272" data-name="Tracé 2272" d="M160.944,48.242a1.751,1.751,0,1,0,1.752,1.75A1.751,1.751,0,0,0,160.944,48.242Z" transform="translate(-5.443 -13.608)" fill="url(#linear-gradient-249)"/>
    <path id="Tracé_2273" data-name="Tracé 2273" d="M146.543,33.842a1.751,1.751,0,1,0,1.752,1.752A1.752,1.752,0,0,0,146.543,33.842Z" transform="translate(-2.722 -10.887)" fill="url(#linear-gradient-250)"/>
    <path id="Tracé_2274" data-name="Tracé 2274" d="M160.944,33.842a1.751,1.751,0,1,0,1.752,1.752A1.751,1.751,0,0,0,160.944,33.842Z" transform="translate(-5.443 -10.887)" fill="url(#linear-gradient-251)"/>
    <path id="Tracé_2275" data-name="Tracé 2275" d="M139.344,55.441a1.751,1.751,0,1,0,1.715,1.4A1.752,1.752,0,0,0,139.344,55.441Z" transform="translate(-1.361 -14.969)" fill="url(#linear-gradient-252)"/>
    <path id="Tracé_2276" data-name="Tracé 2276" d="M139.344,41.041a1.751,1.751,0,1,0,1.715,1.4A1.752,1.752,0,0,0,139.344,41.041Z" transform="translate(-1.361 -12.247)" fill="url(#linear-gradient-253)"/>
    <path id="Tracé_2277" data-name="Tracé 2277" d="M153.744,84.242a1.752,1.752,0,1,0,1.752,1.752A1.752,1.752,0,0,0,153.744,84.242Z" transform="translate(-4.082 -20.412)" fill="url(#linear-gradient-254)"/>
    <path id="Tracé_2278" data-name="Tracé 2278" d="M153.744,69.842a1.752,1.752,0,1,0,1.752,1.752A1.752,1.752,0,0,0,153.744,69.842Z" transform="translate(-4.082 -17.691)" fill="url(#linear-gradient-255)"/>
    <path id="Tracé_2279" data-name="Tracé 2279" d="M146.543,77.043a1.751,1.751,0,1,0,1.752,1.75A1.751,1.751,0,0,0,146.543,77.043Z" transform="translate(-2.722 -19.052)" fill="url(#linear-gradient-256)"/>
    <path id="Tracé_2280" data-name="Tracé 2280" d="M160.944,77.043a1.751,1.751,0,1,0,1.752,1.75A1.751,1.751,0,0,0,160.944,77.043Z" transform="translate(-5.443 -19.052)" fill="url(#linear-gradient-257)"/>
    <path id="Tracé_2281" data-name="Tracé 2281" d="M146.543,62.642a1.751,1.751,0,1,0,1.752,1.753A1.752,1.752,0,0,0,146.543,62.642Z" transform="translate(-2.722 -16.33)" fill="url(#linear-gradient-258)"/>
    <path id="Tracé_2282" data-name="Tracé 2282" d="M160.944,62.642a1.751,1.751,0,1,0,1.752,1.753A1.751,1.751,0,0,0,160.944,62.642Z" transform="translate(-5.443 -16.33)" fill="url(#linear-gradient-259)"/>
    <path id="Tracé_2283" data-name="Tracé 2283" d="M139.344,84.242a1.751,1.751,0,1,0,1.715,1.4A1.752,1.752,0,0,0,139.344,84.242Z" transform="translate(-1.361 -20.412)" fill="url(#linear-gradient-260)"/>
    <path id="Tracé_2284" data-name="Tracé 2284" d="M139.344,69.842a1.75,1.75,0,1,0,1.715,1.4A1.752,1.752,0,0,0,139.344,69.842Z" transform="translate(-1.361 -17.691)" fill="url(#linear-gradient-261)"/>
    <path id="Tracé_2285" data-name="Tracé 2285" d="M146.543,91.443a1.751,1.751,0,1,0,1.752,1.752A1.752,1.752,0,0,0,146.543,91.443Z" transform="translate(-2.722 -21.773)" fill="url(#linear-gradient-262)"/>
    <path id="Tracé_2286" data-name="Tracé 2286" d="M160.944,91.443a1.751,1.751,0,1,0,1.752,1.752A1.751,1.751,0,0,0,160.944,91.443Z" transform="translate(-5.443 -21.773)" fill="url(#linear-gradient-263)"/>
    <path id="Tracé_2287" data-name="Tracé 2287" d="M132.144-9.359a1.751,1.751,0,0,0-1.753,1.75,1.752,1.752,0,0,0,1.753,1.752A1.753,1.753,0,0,0,133.9-7.609,1.752,1.752,0,0,0,132.144-9.359Z" transform="translate(0 -2.722)" fill="url(#linear-gradient-264)"/>
    <path id="Tracé_2288" data-name="Tracé 2288" d="M132.144-23.76a1.752,1.752,0,0,0-1.753,1.752,1.752,1.752,0,0,0,1.753,1.751,1.753,1.753,0,0,0,1.752-1.751A1.753,1.753,0,0,0,132.144-23.76Z" transform="translate(0 0)" fill="url(#linear-gradient-265)"/>
    <path id="Tracé_2289" data-name="Tracé 2289" d="M132.144,19.441a1.751,1.751,0,1,0,1.752,1.751A1.752,1.752,0,0,0,132.144,19.441Z" transform="translate(0 -8.165)" fill="url(#linear-gradient-266)"/>
    <path id="Tracé_2290" data-name="Tracé 2290" d="M132.144,5.041A1.751,1.751,0,1,0,133.9,6.793,1.752,1.752,0,0,0,132.144,5.041Z" transform="translate(0 -5.443)" fill="url(#linear-gradient-267)"/>
    <path id="Tracé_2291" data-name="Tracé 2291" d="M132.144,48.242a1.751,1.751,0,1,0,1.752,1.75A1.752,1.752,0,0,0,132.144,48.242Z" transform="translate(0 -13.608)" fill="url(#linear-gradient-268)"/>
    <path id="Tracé_2292" data-name="Tracé 2292" d="M132.144,33.842a1.751,1.751,0,1,0,1.752,1.752A1.752,1.752,0,0,0,132.144,33.842Z" transform="translate(0 -10.887)" fill="url(#linear-gradient-269)"/>
    <path id="Tracé_2293" data-name="Tracé 2293" d="M132.144,77.043a1.751,1.751,0,1,0,1.752,1.75A1.752,1.752,0,0,0,132.144,77.043Z" transform="translate(0 -19.052)" fill="url(#linear-gradient-270)"/>
    <path id="Tracé_2294" data-name="Tracé 2294" d="M132.144,62.642a1.751,1.751,0,1,0,1.752,1.753A1.752,1.752,0,0,0,132.144,62.642Z" transform="translate(0 -16.33)" fill="url(#linear-gradient-271)"/>
    <path id="Tracé_2295" data-name="Tracé 2295" d="M132.144,91.443a1.751,1.751,0,1,0,1.752,1.752A1.752,1.752,0,0,0,132.144,91.443Z" transform="translate(0 -21.773)" fill="url(#linear-gradient-272)"/>
  </g>
</svg>
