<svg xmlns="http://www.w3.org/2000/svg" width="83.721" height="60" viewBox="0 0 83.721 60">
  <g id="truck" transform="translate(0 -72.533)">
    <g id="Groupe_489" data-name="Groupe 489" transform="translate(11.163 115.789)">
      <g id="Groupe_488" data-name="Groupe 488">
        <path id="Tracé_2006" data-name="Tracé 2006" d="M76.639,337.067a8.372,8.372,0,1,0,8.372,8.372A8.381,8.381,0,0,0,76.639,337.067Zm0,13.953a5.581,5.581,0,1,1,5.581-5.581A5.587,5.587,0,0,1,76.639,351.02Z" transform="translate(-68.267 -337.067)" fill="#dd6b7f"/>
      </g>
    </g>
    <g id="Groupe_491" data-name="Groupe 491" transform="translate(58.605 115.789)">
      <g id="Groupe_490" data-name="Groupe 490">
        <path id="Tracé_2007" data-name="Tracé 2007" d="M366.772,337.067a8.372,8.372,0,1,0,8.372,8.372A8.381,8.381,0,0,0,366.772,337.067Zm0,13.953a5.581,5.581,0,1,1,5.581-5.581A5.587,5.587,0,0,1,366.772,351.02Z" transform="translate(-358.4 -337.067)" fill="#dd6b7f"/>
      </g>
    </g>
    <g id="Groupe_493" data-name="Groupe 493" transform="translate(53.023 87.882)">
      <g id="Groupe_492" data-name="Groupe 492" transform="translate(0 0)">
        <path id="Tracé_2008" data-name="Tracé 2008" d="M354.743,186.575,342.185,167.04a1.4,1.4,0,0,0-1.174-.641H325.662a1.4,1.4,0,0,0-1.4,1.4v34.884a1.394,1.394,0,0,0,1.4,1.4h5.581v-2.791h-4.186V169.191h13.192l11.925,18.55v13.543H345.2v2.791h8.372a1.394,1.394,0,0,0,1.4-1.4V187.33A1.392,1.392,0,0,0,354.743,186.575Z" transform="translate(-324.267 -166.4)" fill="#dd6b7f"/>
      </g>
    </g>
    <g id="Groupe_495" data-name="Groupe 495" transform="translate(58.605 93.463)">
      <g id="Groupe_494" data-name="Groupe 494" transform="translate(0 0)">
        <path id="Tracé_2009" data-name="Tracé 2009" d="M361.192,213.091v-9.767h11.163v-2.791H359.8a1.4,1.4,0,0,0-1.4,1.4v12.558a1.394,1.394,0,0,0,1.4,1.4h20.93v-2.791H361.192Z" transform="translate(-358.401 -200.533)" fill="#dd6b7f"/>
      </g>
    </g>
    <g id="Groupe_499" data-name="Groupe 499" transform="translate(1.395 117.184)">
      <g id="Groupe_498" data-name="Groupe 498" transform="translate(0 0)">
        <rect id="Rectangle_79" data-name="Rectangle 79" width="8.372" height="2.791" fill="#dd6b7f"/>
      </g>
    </g>
    <g id="Groupe_501" data-name="Groupe 501" transform="translate(29.302 117.184)">
      <g id="Groupe_500" data-name="Groupe 500" transform="translate(0 0)">
        <rect id="Rectangle_80" data-name="Rectangle 80" width="23.721" height="2.791" fill="#dd6b7f"/>
      </g>
    </g>
    <g id="Groupe_503" data-name="Groupe 503" transform="translate(76.744 117.184)">
      <g id="Groupe_502" data-name="Groupe 502" transform="translate(0 0)">
        <rect id="Rectangle_81" data-name="Rectangle 81" width="5.581" height="2.791" fill="#dd6b7f"/>
      </g>
    </g>
    <g id="Groupe_505" data-name="Groupe 505" transform="translate(5.581 83.696)">
      <g id="Groupe_504" data-name="Groupe 504" transform="translate(0 0)">
        <rect id="Rectangle_82" data-name="Rectangle 82" width="48.837" height="2.791" fill="#a8c7e8"/>
      </g>
    </g>
    <g id="Groupe_507" data-name="Groupe 507" transform="translate(18.14 122.766)">
      <g id="Groupe_506" data-name="Groupe 506">
        <rect id="Rectangle_83" data-name="Rectangle 83" width="2.791" height="2.791" fill="#dd6b7f"/>
      </g>
    </g>
    <g id="Groupe_509" data-name="Groupe 509" transform="translate(65.582 122.766)">
      <g id="Groupe_508" data-name="Groupe 508">
        <rect id="Rectangle_84" data-name="Rectangle 84" width="2.791" height="2.791" fill="#dd6b7f"/>
      </g>
    </g>
    <g id="Groupe_511" data-name="Groupe 511" transform="translate(5.581 72.533)">
      <g id="Groupe_510" data-name="Groupe 510" transform="translate(0 0)">
        <rect id="Rectangle_85" data-name="Rectangle 85" width="19.535" height="2.791" fill="#a8c7e8"/>
      </g>
    </g>
    <g id="Groupe_513" data-name="Groupe 513" transform="translate(0 72.533)">
      <g id="Groupe_512" data-name="Groupe 512" transform="translate(0 0)">
        <rect id="Rectangle_86" data-name="Rectangle 86" width="2.791" height="2.791" fill="#a8c7e8"/>
      </g>
    </g>
    <g id="Groupe_497" data-name="Groupe 497" transform="translate(0 78.115)">
      <g id="Groupe_496" data-name="Groupe 496">
        <path id="Tracé_2010" data-name="Tracé 2010" d="M54.419,106.667H1.4a1.4,1.4,0,0,0-1.4,1.4v44.651a1.4,1.4,0,0,0,1.4,1.4H12.558v-2.791H2.791V109.458H53.023v41.861H26.512v2.791H54.419a1.394,1.394,0,0,0,1.4-1.4V108.062A1.4,1.4,0,0,0,54.419,106.667Z" transform="translate(0 -106.667)" fill="#dd6b7f"/>
      </g>
    </g>
  </g>
</svg>
